<?xml version="1.0" encoding="UTF-8"?>
<!DOCTYPE svg PUBLIC "-//W3C//DTD SVG 1.1//EN" "http://www.w3.org/Graphics/SVG/1.1/DTD/svg11.dtd">
<svg xmlns="http://www.w3.org/2000/svg" version="1.1" width="440px" height="299px" style="shape-rendering:geometricPrecision; text-rendering:geometricPrecision; image-rendering:optimizeQuality; fill-rule:evenodd; clip-rule:evenodd" xmlns:xlink="http://www.w3.org/1999/xlink">
<g><path style="opacity:1" fill="#9e4766" d="M 241.5,64.5 C 239.873,62.5363 237.873,61.203 235.5,60.5C 235.776,57.1475 234.609,54.4809 232,52.5C 230.899,54.3939 229.566,55.0606 228,54.5C 228.344,52.7424 228.844,50.9091 229.5,49C 227.497,43.2302 224.997,43.0635 222,48.5C 221.667,50.1667 221.333,51.8333 221,53.5C 218.966,54.7213 217.133,56.0546 215.5,57.5C 216.598,56.603 216.598,55.7697 215.5,55C 218.186,52.2902 220.519,49.2902 222.5,46C 221.366,44.984 221.699,44.3173 223.5,44C 223.167,43.6667 222.833,43.3333 222.5,43C 223.943,41.9328 225.276,40.7662 226.5,39.5C 231.917,47.5836 236.917,55.9169 241.5,64.5 Z"/></g>
<g><path style="opacity:1" fill="#ad285d" d="M 241.5,64.5 C 243.338,67.8701 244.338,71.5368 244.5,75.5C 242.645,75.272 241.812,75.9387 242,77.5C 243.558,76.6548 244.558,77.3215 245,79.5C 246.049,78.4829 247.216,78.3162 248.5,79C 249.406,80.6995 249.739,82.5328 249.5,84.5C 249.5,84.8333 249.5,85.1667 249.5,85.5C 248.178,85.33 247.011,85.6634 246,86.5C 245,89.1667 244,91.8333 243,94.5C 242.086,93.3463 241.253,93.513 240.5,95C 241.38,96.3561 241.714,97.8561 241.5,99.5C 237.648,101.612 234.314,104.445 231.5,108C 232.45,110.432 232.45,112.932 231.5,115.5C 230.5,115.5 229.5,115.5 228.5,115.5C 227.833,118.833 227.167,122.167 226.5,125.5C 226.5,125.833 226.5,126.167 226.5,126.5C 225.833,126.5 225.5,126.833 225.5,127.5C 225.5,127.833 225.5,128.167 225.5,128.5C 223.952,128.821 223.285,129.821 223.5,131.5C 222.471,133.517 221.471,135.517 220.5,137.5C 217.082,143.337 213.416,149.004 209.5,154.5C 207.665,155.122 206.498,156.456 206,158.5C 203.609,157.398 203.109,158.064 204.5,160.5C 202.454,162.782 201.454,165.449 201.5,168.5C 197.657,169.688 195.657,172.355 195.5,176.5C 194.667,176.833 193.833,177.167 193,177.5C 179.177,178.79 165.343,178.79 151.5,177.5C 152.263,176.281 153.263,175.281 154.5,174.5C 154.167,173.5 153.5,172.833 152.5,172.5C 151.719,173.737 150.719,174.737 149.5,175.5C 149.167,175 148.833,174.5 148.5,174C 149.856,172.433 150.523,170.6 150.5,168.5C 152.068,166.069 153.568,166.069 155,168.5C 155.508,160.49 159.008,153.823 165.5,148.5C 168.157,144.18 169.823,139.514 170.5,134.5C 173.838,127.317 177.838,120.484 182.5,114C 182.5,113 182.5,112 182.5,111C 185.189,108.452 187.523,105.618 189.5,102.5C 190.15,102.196 190.817,101.863 191.5,101.5C 192.258,102.811 193.258,103.311 194.5,103C 194.043,102.586 193.709,102.086 193.5,101.5C 194.97,98.6919 195.803,95.6919 196,92.5C 200.266,88.755 202.433,84.0884 202.5,78.5C 207.084,71.6676 211.417,64.6676 215.5,57.5C 217.133,56.0546 218.966,54.7213 221,53.5C 221.333,51.8333 221.667,50.1667 222,48.5C 224.997,43.0635 227.497,43.2302 229.5,49C 228.844,50.9091 228.344,52.7424 228,54.5C 229.566,55.0606 230.899,54.3939 232,52.5C 234.609,54.4809 235.776,57.1475 235.5,60.5C 237.873,61.203 239.873,62.5363 241.5,64.5 Z"/></g>
<g><path style="opacity:1" fill="#a34868" d="M 241.5,64.5 C 244.804,69.3263 247.97,74.3263 251,79.5C 251.877,81.6742 251.377,83.3409 249.5,84.5C 249.739,82.5328 249.406,80.6995 248.5,79C 247.216,78.3162 246.049,78.4829 245,79.5C 244.558,77.3215 243.558,76.6548 242,77.5C 241.812,75.9387 242.645,75.272 244.5,75.5C 244.338,71.5368 243.338,67.8701 241.5,64.5 Z"/></g>
<g><path style="opacity:1" fill="#a55570" d="M 249.5,85.5 C 246.818,90.2019 244.151,94.8686 241.5,99.5C 241.714,97.8561 241.38,96.3561 240.5,95C 241.253,93.513 242.086,93.3463 243,94.5C 244,91.8333 245,89.1667 246,86.5C 247.011,85.6634 248.178,85.33 249.5,85.5 Z"/></g>
<g><path style="opacity:1" fill="#a64569" d="M 202.5,78.5 C 202.433,84.0884 200.266,88.755 196,92.5C 195.803,95.6919 194.97,98.6919 193.5,101.5C 193.709,102.086 194.043,102.586 194.5,103C 193.258,103.311 192.258,102.811 191.5,101.5C 190.817,101.863 190.15,102.196 189.5,102.5C 191.176,97.9842 193.51,93.8176 196.5,90C 196.167,89.6667 195.833,89.3333 195.5,89C 198.478,85.8691 200.811,82.3691 202.5,78.5 Z"/></g>
<g><path style="opacity:1" fill="#a74a6b" d="M 241.5,99.5 C 236.99,108.529 231.99,117.196 226.5,125.5C 227.167,122.167 227.833,118.833 228.5,115.5C 229.5,115.5 230.5,115.5 231.5,115.5C 232.45,112.932 232.45,110.432 231.5,108C 234.314,104.445 237.648,101.612 241.5,99.5 Z"/></g>
<g><path style="opacity:0.392" fill="#875467" d="M 225.5,127.5 C 225.5,126.833 225.833,126.5 226.5,126.5C 243.837,126.333 261.17,126.5 278.5,127C 280.426,130.076 282.092,133.242 283.5,136.5C 282.504,136.586 281.671,136.252 281,135.5C 280.235,132.804 279.068,130.304 277.5,128C 261.49,127.167 245.49,127.334 229.5,128.5C 231.263,131.305 232.93,134.138 234.5,137C 233.944,137.383 233.611,137.883 233.5,138.5C 230.856,135.156 228.856,131.823 227.5,128.5C 227.043,127.702 226.376,127.369 225.5,127.5 Z"/></g>
<g><path style="opacity:0.298" fill="#bb98a5" d="M 225.5,128.5 C 225.068,129.71 224.401,130.71 223.5,131.5C 223.285,129.821 223.952,128.821 225.5,128.5 Z"/></g>
<g><path style="opacity:0.004" fill="#fefffe" d="M 220.5,137.5 C 221.833,138.167 221.833,138.167 220.5,137.5 Z"/></g>
<g><path style="opacity:1" fill="#ad275e" d="M 283.5,136.5 C 285.588,138.336 286.921,140.669 287.5,143.5C 287.301,146.941 287.801,150.274 289,153.5C 289.718,152.549 290.551,152.383 291.5,153C 293.801,157.156 294.967,161.656 295,166.5C 295.333,164.5 295.667,162.5 296,160.5C 295.791,166.094 298.124,170.094 303,172.5C 304.559,174.217 305.392,176.217 305.5,178.5C 290.496,178.667 275.496,178.5 260.5,178C 259.333,177.5 258.5,176.667 258,175.5C 257.667,175.833 257.333,176.167 257,176.5C 255.956,174.285 255.29,171.952 255,169.5C 254.667,169.833 254.333,170.167 254,170.5C 253.583,169.244 252.75,168.577 251.5,168.5C 249.347,166.206 247.68,163.54 246.5,160.5C 245.562,154.622 242.895,149.288 238.5,144.5C 239.46,143.188 239.294,141.854 238,140.5C 237.667,141.167 237.333,141.833 237,142.5C 236.583,141.244 235.75,140.577 234.5,140.5C 234.167,139.833 233.833,139.167 233.5,138.5C 233.611,137.883 233.944,137.383 234.5,137C 232.93,134.138 231.263,131.305 229.5,128.5C 245.49,127.334 261.49,127.167 277.5,128C 279.068,130.304 280.235,132.804 281,135.5C 281.671,136.252 282.504,136.586 283.5,136.5 Z"/></g>
<g><path style="opacity:1" fill="#a75a74" d="M 234.5,140.5 C 235.75,140.577 236.583,141.244 237,142.5C 237.333,141.833 237.667,141.167 238,140.5C 239.294,141.854 239.46,143.188 238.5,144.5C 242.895,149.288 245.562,154.622 246.5,160.5C 245.416,158.185 243.749,156.352 241.5,155C 242.634,153.984 242.301,153.317 240.5,153C 239.588,148.552 237.255,144.552 233.5,141C 233.728,140.601 234.062,140.435 234.5,140.5 Z"/></g>
<g><path style="opacity:1" fill="#a84d6c" d="M 170.5,134.5 C 169.823,139.514 168.157,144.18 165.5,148.5C 159.008,153.823 155.508,160.49 155,168.5C 153.568,166.069 152.068,166.069 150.5,168.5C 152.897,163.244 155.897,157.744 159.5,152C 159.167,151.667 158.833,151.333 158.5,151C 159.416,150.626 160.25,150.126 161,149.5C 163.683,144.121 166.849,139.121 170.5,134.5 Z"/></g>
<g><path style="opacity:1" fill="#9d3d60" d="M 287.5,143.5 C 295.29,154.976 302.29,166.976 308.5,179.5C 292.5,179.5 276.5,179.5 260.5,179.5C 259.022,179.762 257.689,179.429 256.5,178.5C 255.747,176.247 254.414,174.413 252.5,173C 252.833,172.667 253.167,172.333 253.5,172C 252.177,171.184 251.511,170.017 251.5,168.5C 252.75,168.577 253.583,169.244 254,170.5C 254.333,170.167 254.667,169.833 255,169.5C 255.29,171.952 255.956,174.285 257,176.5C 257.333,176.167 257.667,175.833 258,175.5C 258.5,176.667 259.333,177.5 260.5,178C 275.496,178.5 290.496,178.667 305.5,178.5C 305.392,176.217 304.559,174.217 303,172.5C 298.124,170.094 295.791,166.094 296,160.5C 295.667,162.5 295.333,164.5 295,166.5C 294.967,161.656 293.801,157.156 291.5,153C 290.551,152.383 289.718,152.549 289,153.5C 287.801,150.274 287.301,146.941 287.5,143.5 Z"/></g>
<g><path style="opacity:1" fill="#a3536e" d="M 209.5,154.5 C 207.225,159.429 204.559,164.096 201.5,168.5C 201.454,165.449 202.454,162.782 204.5,160.5C 203.109,158.064 203.609,157.398 206,158.5C 206.498,156.456 207.665,155.122 209.5,154.5 Z"/></g>
<g><path style="opacity:1" fill="#963a5c" d="M 150.5,168.5 C 150.523,170.6 149.856,172.433 148.5,174C 148.833,174.5 149.167,175 149.5,175.5C 150.719,174.737 151.719,173.737 152.5,172.5C 153.5,172.833 154.167,173.5 154.5,174.5C 153.263,175.281 152.263,176.281 151.5,177.5C 165.343,178.79 179.177,178.79 193,177.5C 193.833,177.167 194.667,176.833 195.5,176.5C 195.657,172.355 197.657,169.688 201.5,168.5C 199.896,171.943 198.062,175.277 196,178.5C 194.644,179.38 193.144,179.714 191.5,179.5C 175.833,179.5 160.167,179.5 144.5,179.5C 143.761,179.631 143.094,179.464 142.5,179C 145.305,176.401 147.639,173.401 149.5,170C 148.288,168.893 148.621,168.393 150.5,168.5 Z"/></g>
<g><path style="opacity:0.173" fill="#d9bdc9" d="M 144.5,179.5 C 160.167,179.5 175.833,179.5 191.5,179.5C 187.969,180.23 184.303,180.896 180.5,181.5C 172.856,180.573 165.356,180.573 158,181.5C 153.322,181.056 148.822,180.389 144.5,179.5 Z"/></g>
<g><path style="opacity:0.173" fill="#e7dbe1" d="M 260.5,179.5 C 276.5,179.5 292.5,179.5 308.5,179.5C 300.432,180.18 292.265,180.847 284,181.5C 280.023,181.345 276.023,181.345 272,181.5C 268.065,180.862 264.231,180.196 260.5,179.5 Z"/></g>
<g><path style="opacity:1" fill="#ad6e85" d="M 283.5,222.5 C 281.833,221.167 280.167,221.167 278.5,222.5C 280.167,215.833 281.833,215.833 283.5,222.5 Z"/></g>
<g><path style="opacity:0.278" fill="#bf95a6" d="M 410.5,221.5 C 414.351,220.191 418.351,220.191 422.5,221.5C 422.145,222.522 421.478,223.189 420.5,223.5C 417.663,221.598 414.329,220.931 410.5,221.5 Z"/></g>
<g><path style="opacity:1" fill="#a85573" d="M 85.5,224.5 C 84.7784,224.918 84.2784,225.584 84,226.5C 83.0619,223.277 80.8952,221.944 77.5,222.5C 78.0715,224.36 78.0715,226.027 77.5,227.5C 75.3311,225.66 73.9977,223.326 73.5,220.5C 76.8499,220.335 80.1832,220.502 83.5,221C 84.8228,221.816 85.4894,222.983 85.5,224.5 Z"/></g>
<g><path style="opacity:1" fill="#ad6c83" d="M 323.5,224.5 C 321.883,223.962 320.216,223.629 318.5,223.5C 318.912,221.027 317.912,219.694 315.5,219.5C 315.696,217.354 316.696,217.188 318.5,219C 319.762,221.276 321.429,223.109 323.5,224.5 Z"/></g>
<g><path style="opacity:0.753" fill="#854860" d="M 387.5,221.5 C 385.08,221.292 382.747,221.626 380.5,222.5C 379.501,238.486 379.167,254.486 379.5,270.5C 378.711,270.217 378.044,269.717 377.5,269C 378.724,253.19 378.724,237.19 377.5,221C 381.027,220.192 384.36,220.359 387.5,221.5 Z"/></g>
<g><path style="opacity:1" fill="#a44165" d="M 410.5,221.5 C 414.329,220.931 417.663,221.598 420.5,223.5C 415.514,227.155 410.847,231.155 406.5,235.5C 405.609,236.11 404.609,236.443 403.5,236.5C 403.55,234.41 402.55,233.077 400.5,232.5C 397.897,235.78 394.564,237.78 390.5,238.5C 396.795,232.359 403.462,226.692 410.5,221.5 Z"/></g>
<g><path style="opacity:1" fill="#ac2a5d" d="M 318.5,223.5 C 320.216,223.629 321.883,223.962 323.5,224.5C 326.192,226.862 328.859,229.196 331.5,231.5C 331.848,234.019 333.181,235.853 335.5,237C 335.167,237.333 334.833,237.667 334.5,238C 336.5,239.333 338.167,241 339.5,243C 338.892,243.87 338.059,244.37 337,244.5C 334.532,242.197 331.699,240.53 328.5,239.5C 326.926,239.063 325.759,238.063 325,236.5C 324.601,236.728 324.435,237.062 324.5,237.5C 323.761,237.369 323.094,237.536 322.5,238C 323.651,247.756 323.818,257.589 323,267.5C 322.667,268.167 322.333,268.833 322,269.5C 320.749,266.184 319.082,265.85 317,268.5C 316.833,261 316.667,253.5 316.5,246C 316.503,238.136 317.169,230.636 318.5,223.5 Z"/></g>
<g><path style="opacity:0.004" fill="#fefffe" d="M 114.5,225.5 C 115.833,226.167 115.833,226.167 114.5,225.5 Z"/></g>
<g><path style="opacity:1" fill="#ac275c" d="M 390.5,238.5 C 394.564,237.78 397.897,235.78 400.5,232.5C 402.55,233.077 403.55,234.41 403.5,236.5C 403.167,237.5 402.5,238.167 401.5,238.5C 397.145,239.198 394.811,241.865 394.5,246.5C 395.325,247.386 396.325,247.719 397.5,247.5C 397.5,248.833 397.5,250.167 397.5,251.5C 396.167,251.5 394.833,251.5 393.5,251.5C 393.5,250.167 393.5,248.833 393.5,247.5C 390.873,248.092 388.206,248.425 385.5,248.5C 386.539,254.797 386.706,261.13 386,267.5C 384.293,266.862 382.46,266.862 380.5,267.5C 380.5,252.833 380.5,238.167 380.5,223.5C 382.5,223.167 384.5,222.833 386.5,222.5C 386.5,228.167 386.5,233.833 386.5,239.5C 385.325,239.281 384.325,239.614 383.5,240.5C 384.391,241.59 385.391,241.59 386.5,240.5C 389.409,247.005 390.742,246.338 390.5,238.5 Z"/></g>
<g><path style="opacity:0.984" fill="#9b546e" d="M 175.5,224.5 C 181.065,227.297 180.732,229.297 174.5,230.5C 175.15,228.565 175.483,226.565 175.5,224.5 Z"/></g>
<g><path style="opacity:1" fill="#a3345d" d="M 283.5,222.5 C 288.261,229.686 292.261,237.353 295.5,245.5C 294.577,244.697 293.577,244.53 292.5,245C 291.888,246.303 291.554,247.47 291.5,248.5C 290.327,246.021 290.327,243.521 291.5,241C 290.683,239.51 289.85,238.01 289,236.5C 288.333,235.167 287.667,235.167 287,236.5C 286.505,234.527 286.338,232.527 286.5,230.5C 283.276,230.797 280.276,230.13 277.5,228.5C 275.917,230.446 275.417,232.446 276,234.5C 275.586,234.043 275.086,233.709 274.5,233.5C 273.591,235.375 272.257,236.708 270.5,237.5C 270.893,235.716 271.559,234.05 272.5,232.5C 273.906,232.027 274.573,231.027 274.5,229.5C 275.584,226.996 276.917,224.663 278.5,222.5C 280.167,221.167 281.833,221.167 283.5,222.5 Z"/></g>
<g><path style="opacity:1" fill="#953f60" d="M 367.5,272.5 C 366.833,272.167 366.167,271.833 365.5,271.5C 364.448,271.649 363.448,271.483 362.5,271C 363.738,270.31 363.738,269.81 362.5,269.5C 362.167,268.833 361.833,268.167 361.5,267.5C 363.911,267.137 365.411,268.137 366,270.5C 366.5,254.503 366.667,238.503 366.5,222.5C 364.833,222.5 363.167,222.5 361.5,222.5C 361.786,228.259 361.452,233.925 360.5,239.5C 359.833,243.5 359.167,247.5 358.5,251.5C 358.26,241.45 357.927,231.283 357.5,221C 360.817,220.502 364.15,220.335 367.5,220.5C 367.5,237.833 367.5,255.167 367.5,272.5 Z"/></g>
<g><path style="opacity:1" fill="#a14165" d="M 47.5,229.5 C 46.8826,229.389 46.3826,229.056 46,228.5C 45.6667,229.833 45.3333,231.167 45,232.5C 41.2999,230.446 40.7999,227.946 43.5,225C 43.0019,223.842 42.1685,223.009 41,222.5C 39.2514,224.605 37.4181,226.605 35.5,228.5C 36.7951,224.577 38.6284,220.91 41,217.5C 43.4458,221.394 45.6124,225.394 47.5,229.5 Z"/></g>
<g><path style="opacity:1" fill="#ab2a5e" d="M 361.5,267.5 C 360.5,266.833 359.5,266.167 358.5,265.5C 357.448,265.649 356.448,265.483 355.5,265C 355.833,264.667 356.167,264.333 356.5,264C 354.382,262.951 352.716,261.451 351.5,259.5C 351.611,258.883 351.944,258.383 352.5,258C 350.985,256.274 349.318,254.774 347.5,253.5C 348.242,252.713 349.075,252.047 350,251.5C 352.589,252.337 354.422,254.003 355.5,256.5C 356.736,257.246 358.07,257.579 359.5,257.5C 360.307,251.536 360.64,245.536 360.5,239.5C 361.452,233.925 361.786,228.259 361.5,222.5C 363.167,222.5 364.833,222.5 366.5,222.5C 366.667,238.503 366.5,254.503 366,270.5C 365.411,268.137 363.911,267.137 361.5,267.5 Z"/></g>
<g><path style="opacity:1" fill="#ad255a" d="M 47.5,229.5 C 47.7493,233.546 49.0826,237.213 51.5,240.5C 50.4571,242.849 49.1238,244.849 47.5,246.5C 47.8638,244.529 48.1972,242.529 48.5,240.5C 47.3112,239.571 45.9778,239.238 44.5,239.5C 44.9118,237.027 43.9118,235.694 41.5,235.5C 39.8657,234.028 38.3657,232.362 37,230.5C 36.6667,230.833 36.3333,231.167 36,231.5C 35.5172,230.552 35.3505,229.552 35.5,228.5C 37.4181,226.605 39.2514,224.605 41,222.5C 42.1685,223.009 43.0019,223.842 43.5,225C 40.7999,227.946 41.2999,230.446 45,232.5C 45.3333,231.167 45.6667,229.833 46,228.5C 46.3826,229.056 46.8826,229.389 47.5,229.5 Z"/></g>
<g><path style="opacity:1" fill="#a7305c" d="M 100.5,229.5 C 101.475,227.205 102.808,225.205 104.5,223.5C 107.215,221.877 110.215,221.21 113.5,221.5C 112.648,224.613 110.982,227.28 108.5,229.5C 106.323,228.496 105.989,229.162 107.5,231.5C 104.025,236.626 101.692,235.959 100.5,229.5 Z"/></g>
<g><path style="opacity:0.322" fill="#e5ced7" d="M 274.5,229.5 C 274.573,231.027 273.906,232.027 272.5,232.5C 272.427,230.973 273.094,229.973 274.5,229.5 Z"/></g>
<g><path style="opacity:1" fill="#ab5371" d="M 114.5,225.5 C 110.5,230.5 106.5,235.5 102.5,240.5C 102.884,238.335 102.217,236.668 100.5,235.5C 98.098,237.009 95.7647,237.342 93.5,236.5C 94.2389,236.631 94.9056,236.464 95.5,236C 97.0303,233.648 98.6969,231.481 100.5,229.5C 101.692,235.959 104.025,236.626 107.5,231.5C 105.989,229.162 106.323,228.496 108.5,229.5C 110.982,227.28 112.648,224.613 113.5,221.5C 110.215,221.21 107.215,221.877 104.5,223.5C 104.953,222.542 105.619,221.708 106.5,221C 110.362,220.087 114.028,220.42 117.5,222C 115.944,222.72 114.944,223.887 114.5,225.5 Z"/></g>
<g><path style="opacity:0.004" fill="#fefffe" d="M 406.5,235.5 C 407.833,236.167 407.833,236.167 406.5,235.5 Z"/></g>
<g><path style="opacity:0.722" fill="#8d3d5c" d="M 124.5,221.5 C 127.625,220.521 130.958,220.187 134.5,220.5C 134.5,237.167 134.5,253.833 134.5,270.5C 131.5,270.5 128.5,270.5 125.5,270.5C 125.694,253.832 125.361,237.498 124.5,221.5 Z"/></g>
<g><path style="opacity:1" fill="#aa275d" d="M 126.5,222.5 C 128.806,222.993 131.139,223.326 133.5,223.5C 133.5,238.5 133.5,253.5 133.5,268.5C 131.167,267.167 128.833,267.167 126.5,268.5C 126.5,253.167 126.5,237.833 126.5,222.5 Z"/></g>
<g><path style="opacity:1" fill="#aa3461" d="M 226.5,221.5 C 240.53,220.193 246.53,226.193 244.5,239.5C 244.297,241.044 243.63,242.378 242.5,243.5C 242.624,244.107 242.957,244.44 243.5,244.5C 244.214,246.874 245.548,248.874 247.5,250.5C 248.167,252.833 248.833,255.167 249.5,257.5C 249.444,258.737 248.944,259.737 248,260.5C 247.83,258.285 247.163,256.285 246,254.5C 245.762,258.222 245.262,261.889 244.5,265.5C 241.183,267.721 237.517,268.888 233.5,269C 227.687,269.106 222.02,269.272 216.5,269.5C 216.5,253.5 216.5,237.5 216.5,221.5C 219.833,221.5 223.167,221.5 226.5,221.5 Z M 230.5,227.5 C 231.287,229.104 232.62,229.771 234.5,229.5C 235.167,229.5 235.5,229.833 235.5,230.5C 235.062,230.435 234.728,230.601 234.5,231C 235.244,232.039 236.244,232.539 237.5,232.5C 237.473,239.358 233.973,242.692 227,242.5C 225.839,238.298 225.005,233.965 224.5,229.5C 226.023,227.717 228.023,227.051 230.5,227.5 Z M 233.5,248.5 C 234.531,249.249 235.698,249.915 237,250.5C 237.399,250.272 237.565,249.938 237.5,249.5C 237.833,249.5 238.167,249.5 238.5,249.5C 238.5,250.833 239.167,251.5 240.5,251.5C 240.427,253.027 241.094,254.027 242.5,254.5C 242.451,257.099 241.451,259.266 239.5,261C 234.6,262.615 230.1,263.448 226,263.5C 225.333,258.5 225.333,253.5 226,248.5C 228.354,248.892 230.854,248.892 233.5,248.5 Z"/></g>
<g><path style="opacity:1" fill="#b3265c" d="M 244.5,239.5 C 243.504,239.586 242.671,239.252 242,238.5C 240.81,235.806 240.644,233.139 241.5,230.5C 242.478,230.977 243.311,231.643 244,232.5C 244.497,234.81 244.663,237.143 244.5,239.5 Z"/></g>
<g><path style="opacity:0.004" fill="#fbfafb" d="M 235.5,230.5 C 236.5,230.833 237.167,231.5 237.5,232.5C 236.244,232.539 235.244,232.039 234.5,231C 234.728,230.601 235.062,230.435 235.5,230.5 Z"/></g>
<g><path style="opacity:0.004" fill="#ecdee3" d="M 230.5,227.5 C 232.153,227.66 233.486,228.326 234.5,229.5C 232.62,229.771 231.287,229.104 230.5,227.5 Z"/></g>
<g><path style="opacity:1" fill="#ad2a5d" d="M 295.5,245.5 C 297.988,248.466 299.988,251.799 301.5,255.5C 300.293,256.189 298.959,256.355 297.5,256C 299.211,257.133 299.711,258.633 299,260.5C 298.667,259.833 298.333,259.167 298,258.5C 297.722,259.416 297.222,260.082 296.5,260.5C 295.833,260.5 295.167,260.5 294.5,260.5C 294.167,259.833 293.833,259.167 293.5,258.5C 284.432,257.821 275.265,257.155 266,256.5C 266.771,258.18 266.605,259.847 265.5,261.5C 263.299,261.142 261.965,259.808 261.5,257.5C 264.892,251.355 267.892,244.689 270.5,237.5C 272.257,236.708 273.591,235.375 274.5,233.5C 275.086,233.709 275.586,234.043 276,234.5C 275.417,232.446 275.917,230.446 277.5,228.5C 280.276,230.13 283.276,230.797 286.5,230.5C 286.338,232.527 286.505,234.527 287,236.5C 287.667,235.167 288.333,235.167 289,236.5C 289.85,238.01 290.683,239.51 291.5,241C 290.327,243.521 290.327,246.021 291.5,248.5C 291.554,247.47 291.888,246.303 292.5,245C 293.577,244.53 294.577,244.697 295.5,245.5 Z M 283.5,238.5 C 283.229,240.38 283.896,241.713 285.5,242.5C 286.326,245.485 287.659,248.151 289.5,250.5C 284.025,251.489 278.358,251.822 272.5,251.5C 274.638,245.845 277.472,240.511 281,235.5C 281.377,236.942 282.21,237.942 283.5,238.5 Z"/></g>
<g><path style="opacity:1" fill="#a24264" d="M 283.5,238.5 C 282.21,237.942 281.377,236.942 281,235.5C 277.472,240.511 274.638,245.845 272.5,251.5C 271.751,250.469 271.085,249.302 270.5,248C 272.192,246.599 272.859,244.766 272.5,242.5C 274.911,242.863 276.411,241.863 277,239.5C 277.333,236.5 277.667,233.5 278,230.5C 279.174,232.671 281.007,233.671 283.5,233.5C 283.5,235.167 283.5,236.833 283.5,238.5 Z"/></g>
<g><path style="opacity:1" fill="#b02b5d" d="M 85.5,224.5 C 87.3264,226.147 88.6597,228.147 89.5,230.5C 89.6715,232.492 89.0049,234.158 87.5,235.5C 89.0778,236.072 90.5778,236.406 92,236.5C 92.6368,239.495 93.3034,242.828 94,246.5C 95.0113,247.337 96.1779,247.67 97.5,247.5C 97.5,248.5 97.5,249.5 97.5,250.5C 94.3959,249.971 92.0625,250.971 90.5,253.5C 89.3112,254.429 87.9778,254.762 86.5,254.5C 86.5,252.833 86.5,251.167 86.5,249.5C 87.8333,249.5 89.1667,249.5 90.5,249.5C 91.3165,243.879 89.3165,239.879 84.5,237.5C 81.6869,234.554 79.3535,231.221 77.5,227.5C 78.0715,226.027 78.0715,224.36 77.5,222.5C 80.8952,221.944 83.0619,223.277 84,226.5C 84.2784,225.584 84.7784,224.918 85.5,224.5 Z"/></g>
<g><path style="opacity:0.004" fill="#fefffe" d="M 153.5,244.5 C 152.833,245.167 152.833,245.167 153.5,244.5 Z"/></g>
<g><path style="opacity:0.953" fill="#a45873" d="M 285.5,242.5 C 288.375,244.249 289.708,246.915 289.5,250.5C 287.659,248.151 286.326,245.485 285.5,242.5 Z"/></g>
<g><path style="opacity:1" fill="#a23d61" d="M 175.5,224.5 C 175.483,226.565 175.15,228.565 174.5,230.5C 172.544,231.801 170.877,231.301 169.5,229C 167.047,228.262 164.547,227.762 162,227.5C 159.779,227.393 157.946,228.06 156.5,229.5C 154.502,231.177 154.169,233.177 155.5,235.5C 162.124,238.763 168.79,241.93 175.5,245C 183.5,252.333 183.5,259.667 175.5,267C 172.928,269.287 169.928,270.453 166.5,270.5C 166.414,269.504 166.748,268.671 167.5,268C 169.813,267.338 172.146,266.838 174.5,266.5C 174.5,265.167 174.5,263.833 174.5,262.5C 170.952,264.52 167.119,265.52 163,265.5C 160.705,265.453 158.871,264.787 157.5,263.5C 166.999,265.827 171.499,262.161 171,252.5C 168.742,249.701 166.075,248.368 163,248.5C 160.146,246.491 156.979,245.158 153.5,244.5C 147.322,241.805 144.822,236.472 146,228.5C 150.088,222.624 155.755,219.957 163,220.5C 165.5,220.667 168,220.833 170.5,221C 172.881,221.223 174.547,222.39 175.5,224.5 Z"/></g>
<g><path style="opacity:0.004" fill="#fefffe" d="M 156.5,229.5 C 157.833,230.167 157.833,230.167 156.5,229.5 Z"/></g>
<g><path style="opacity:1" fill="#b0265c" d="M 153.5,223.5 C 155.103,223.312 156.437,223.812 157.5,225C 154.157,228.931 152.657,233.431 153,238.5C 153.414,238.043 153.914,237.709 154.5,237.5C 159.13,239.706 163.797,241.706 168.5,243.5C 169.59,244.609 169.59,245.609 168.5,246.5C 165.436,245.879 162.436,245.045 159.5,244C 160.5,243.667 161.5,243.333 162.5,243C 158.281,242.827 154.281,241.827 150.5,240C 150.875,234.568 151.875,229.068 153.5,223.5 Z"/></g>
<g><path style="opacity:0.018" fill="#f5e9ed" d="M 265.5,246.5 C 265.167,247.5 264.5,248.167 263.5,248.5C 263.5,247.167 264.167,246.5 265.5,246.5 Z"/></g>
<g><path style="opacity:0.616" fill="#c7859f" d="M 226.5,221.5 C 223.167,221.5 219.833,221.5 216.5,221.5C 216.5,237.5 216.5,253.5 216.5,269.5C 216.5,269.833 216.5,270.167 216.5,270.5C 215.711,270.217 215.044,269.717 214.5,269C 214.9,251.843 215.233,235.677 215.5,220.5C 219.371,220.185 223.038,220.518 226.5,221.5 Z"/></g>
<g><path style="opacity:0.424" fill="#c8a9b6" d="M 233.5,248.5 C 235.099,248.232 236.432,248.566 237.5,249.5C 237.565,249.938 237.399,250.272 237,250.5C 235.698,249.915 234.531,249.249 233.5,248.5 Z"/></g>
<g><path style="opacity:1" fill="#a53c62" d="M 331.5,231.5 C 340.166,239.331 348.999,246.997 358,254.5C 358.483,253.552 358.649,252.552 358.5,251.5C 359.167,247.5 359.833,243.5 360.5,239.5C 360.64,245.536 360.307,251.536 359.5,257.5C 358.07,257.579 356.736,257.246 355.5,256.5C 354.422,254.003 352.589,252.337 350,251.5C 349.075,252.047 348.242,252.713 347.5,253.5C 349.318,254.774 350.985,256.274 352.5,258C 351.944,258.383 351.611,258.883 351.5,259.5C 343.833,252.833 336.167,246.167 328.5,239.5C 331.699,240.53 334.532,242.197 337,244.5C 338.059,244.37 338.892,243.87 339.5,243C 338.167,241 336.5,239.333 334.5,238C 334.833,237.667 335.167,237.333 335.5,237C 333.181,235.853 331.848,234.019 331.5,231.5 Z"/></g>
<g><path style="opacity:1" fill="#a83c64" d="M 35.5,228.5 C 35.3505,229.552 35.5172,230.552 36,231.5C 36.3333,231.167 36.6667,230.833 37,230.5C 38.3657,232.362 39.8657,234.028 41.5,235.5C 38.6634,239.169 36.33,243.169 34.5,247.5C 33.6091,248.261 32.9424,249.261 32.5,250.5C 37.7921,251.495 43.1254,251.828 48.5,251.5C 48.3713,249.784 48.038,248.117 47.5,246.5C 49.1238,244.849 50.4571,242.849 51.5,240.5C 49.0826,237.213 47.7493,233.546 47.5,229.5C 54.8175,242.798 62.1509,256.132 69.5,269.5C 69.1583,270.338 68.4916,270.672 67.5,270.5C 64.8127,270.664 62.146,270.497 59.5,270C 57.4599,266.086 55.2933,262.252 53,258.5C 45.1226,258.917 36.9559,258.917 28.5,258.5C 29.6151,256.545 30.9485,254.712 32.5,253C 31.0443,251.255 29.711,249.422 28.5,247.5C 27.2736,246.637 25.9403,246.637 24.5,247.5C 27.7582,241.368 31.4248,235.035 35.5,228.5 Z M 41.5,235.5 C 41.5569,236.609 41.8902,237.609 42.5,238.5C 43.6532,241.47 45.3199,244.137 47.5,246.5C 48.038,248.117 48.3713,249.784 48.5,251.5C 43.1254,251.828 37.7921,251.495 32.5,250.5C 32.9424,249.261 33.6091,248.261 34.5,247.5C 36.33,243.169 38.6634,239.169 41.5,235.5 Z"/></g>
<g><path style="opacity:1" fill="#a24365" d="M 41.5,235.5 C 43.9118,235.694 44.9118,237.027 44.5,239.5C 45.9778,239.238 47.3112,239.571 48.5,240.5C 48.1972,242.529 47.8638,244.529 47.5,246.5C 45.3199,244.137 43.6532,241.47 42.5,238.5C 41.8902,237.609 41.5569,236.609 41.5,235.5 Z"/></g>
<g><path style="opacity:0.004" fill="#efe8ec" d="M 238.5,249.5 C 239.5,249.833 240.167,250.5 240.5,251.5C 239.167,251.5 238.5,250.833 238.5,249.5 Z"/></g>
<g><path style="opacity:0.018" fill="#f3edf0" d="M 240.5,251.5 C 241.906,251.973 242.573,252.973 242.5,254.5C 241.094,254.027 240.427,253.027 240.5,251.5 Z"/></g>
<g><path style="opacity:1" fill="#ac295d" d="M 28.5,258.5 C 27.8333,258.5 27.5,258.833 27.5,259.5C 25.8514,260.714 24.1848,262.047 22.5,263.5C 23.462,265.883 22.462,266.883 19.5,266.5C 19.3398,264.801 19.5065,263.134 20,261.5C 20.3333,261.833 20.6667,262.167 21,262.5C 22.5173,261.048 22.684,259.548 21.5,258C 21.6135,256.72 22.2801,255.887 23.5,255.5C 24.4742,253.257 24.8076,250.924 24.5,248.5C 24.5,248.167 24.5,247.833 24.5,247.5C 25.9403,246.637 27.2736,246.637 28.5,247.5C 29.711,249.422 31.0443,251.255 32.5,253C 30.9485,254.712 29.6151,256.545 28.5,258.5 Z"/></g>
<g><path style="opacity:1" fill="#ae265c" d="M 48.5,251.5 C 49.552,251.351 50.552,251.517 51.5,252C 50.3044,252.654 50.3044,253.154 51.5,253.5C 52.3857,252.675 52.719,251.675 52.5,250.5C 53.8333,249.833 55.1667,249.167 56.5,248.5C 56.7394,250.467 56.4061,252.301 55.5,254C 56.676,255.914 57.676,255.748 58.5,253.5C 61.0186,255.359 61.0186,257.359 58.5,259.5C 57.675,260.386 56.675,260.719 55.5,260.5C 55.5,259.5 55.5,258.5 55.5,257.5C 49.8555,256.873 44.1888,256.373 38.5,256C 39.7112,255.107 39.7112,254.274 38.5,253.5C 37.6143,254.325 37.281,255.325 37.5,256.5C 36.1667,256.5 34.8333,256.5 33.5,256.5C 33.5,255.167 33.5,253.833 33.5,252.5C 38.6946,252.821 43.6946,252.487 48.5,251.5 Z"/></g>
<g><path style="opacity:1" fill="#b1275d" d="M 174.5,262.5 C 173.627,258.232 173.294,253.898 173.5,249.5C 176.244,249.2 177.911,250.367 178.5,253C 178.561,254.711 177.894,256.044 176.5,257C 177.406,258.699 177.739,260.533 177.5,262.5C 176.5,262.5 175.5,262.5 174.5,262.5 Z"/></g>
<g><path style="opacity:1" fill="#a1375f" d="M 387.5,221.5 C 387.171,227.537 387.504,233.537 388.5,239.5C 389.183,239.137 389.85,238.804 390.5,238.5C 390.742,246.338 389.409,247.005 386.5,240.5C 385.391,241.59 384.391,241.59 383.5,240.5C 384.325,239.614 385.325,239.281 386.5,239.5C 386.5,233.833 386.5,228.167 386.5,222.5C 384.5,222.833 382.5,223.167 380.5,223.5C 380.5,238.167 380.5,252.833 380.5,267.5C 382.46,266.862 384.293,266.862 386,267.5C 386.706,261.13 386.539,254.797 385.5,248.5C 388.206,248.425 390.873,248.092 393.5,247.5C 393.5,248.833 393.5,250.167 393.5,251.5C 394.833,251.5 396.167,251.5 397.5,251.5C 397.5,250.167 397.5,248.833 397.5,247.5C 396.325,247.719 395.325,247.386 394.5,246.5C 394.811,241.865 397.145,239.198 401.5,238.5C 400.167,239.933 398.667,241.267 397,242.5C 396.333,243.167 396.333,243.833 397,244.5C 405.654,252.987 414.154,261.654 422.5,270.5C 418.865,270.521 415.198,270.854 411.5,271.5C 408.721,268.273 405.721,265.273 402.5,262.5C 400.833,260.5 399.167,258.5 397.5,256.5C 396.415,254.413 394.749,253.08 392.5,252.5C 391.608,250.054 390.108,249.388 388,250.5C 387.5,257.158 387.334,263.825 387.5,270.5C 384.938,271.371 382.272,271.371 379.5,270.5C 379.167,254.486 379.501,238.486 380.5,222.5C 382.747,221.626 385.08,221.292 387.5,221.5 Z"/></g>
<g><path style="opacity:0.122" fill="#f6eef1" d="M 392.5,252.5 C 394.749,253.08 396.415,254.413 397.5,256.5C 395.251,255.92 393.585,254.587 392.5,252.5 Z"/></g>
<g><path style="opacity:0.62" fill="#9e5871" d="M 145.5,256.5 C 147.288,255.378 149.288,255.211 151.5,256C 152.234,258.561 153.567,260.727 155.5,262.5C 154.325,262.719 153.325,262.386 152.5,261.5C 152.114,257.15 149.781,255.483 145.5,256.5 Z"/></g>
<g><path style="opacity:0.722" fill="#8b405e" d="M 293.5,258.5 C 284.976,258.308 276.309,258.641 267.5,259.5C 267.058,260.739 266.391,261.739 265.5,262.5C 265.5,262.167 265.5,261.833 265.5,261.5C 266.605,259.847 266.771,258.18 266,256.5C 275.265,257.155 284.432,257.821 293.5,258.5 Z"/></g>
<g><path style="opacity:1" fill="#b77d91" d="M 294.5,260.5 C 295.167,260.5 295.833,260.5 296.5,260.5C 298.169,263.886 299.836,267.219 301.5,270.5C 301.565,270.938 301.399,271.272 301,271.5C 297.774,268.445 295.608,264.778 294.5,260.5 Z"/></g>
<g><path style="opacity:1" fill="#a63961" d="M 89.5,230.5 C 91.2181,232.223 92.5514,234.223 93.5,236.5C 95.7647,237.342 98.098,237.009 100.5,235.5C 102.217,236.668 102.884,238.335 102.5,240.5C 101.091,242.305 100.591,244.305 101,246.5C 106.694,254.027 112.194,261.694 117.5,269.5C 116.758,270.287 115.925,270.953 115,271.5C 112.2,270.875 109.366,270.208 106.5,269.5C 106.137,268.817 105.804,268.15 105.5,267.5C 105.167,266.5 104.5,265.833 103.5,265.5C 100.978,260.953 97.9779,256.62 94.5,252.5C 89.8128,258.028 85.4795,263.861 81.5,270C 78.5738,270.218 75.7405,270.718 73,271.5C 72.6174,270.944 72.1174,270.611 71.5,270.5C 71.5,270.167 71.5,269.833 71.5,269.5C 72.075,267.589 73.075,265.922 74.5,264.5C 75.5,264.167 76.1667,263.5 76.5,262.5C 79.9269,256.575 83.9269,251.075 88.5,246C 87.9833,243.114 86.65,240.281 84.5,237.5C 89.3165,239.879 91.3165,243.879 90.5,249.5C 89.1667,249.5 87.8333,249.5 86.5,249.5C 86.5,251.167 86.5,252.833 86.5,254.5C 87.9778,254.762 89.3112,254.429 90.5,253.5C 92.0625,250.971 94.3959,249.971 97.5,250.5C 97.5,249.5 97.5,248.5 97.5,247.5C 96.1779,247.67 95.0113,247.337 94,246.5C 93.3034,242.828 92.6368,239.495 92,236.5C 90.5778,236.406 89.0778,236.072 87.5,235.5C 89.0049,234.158 89.6715,232.492 89.5,230.5 Z"/></g>
<g><path style="opacity:0.01" fill="#f4ebef" d="M 143.5,260.5 C 144.404,261.209 144.737,262.209 144.5,263.5C 143.733,262.828 143.066,261.995 142.5,261C 142.728,260.601 143.062,260.435 143.5,260.5 Z"/></g>
<g><path style="opacity:1" fill="#a2365e" d="M 301.5,255.5 C 304.155,260.139 306.821,264.806 309.5,269.5C 308.758,270.287 307.925,270.953 307,271.5C 305.301,270.594 303.467,270.261 301.5,270.5C 299.836,267.219 298.169,263.886 296.5,260.5C 297.222,260.082 297.722,259.416 298,258.5C 298.333,259.167 298.667,259.833 299,260.5C 299.711,258.633 299.211,257.133 297.5,256C 298.959,256.355 300.293,256.189 301.5,255.5 Z"/></g>
<g><path style="opacity:0.025" fill="#fefffe" d="M 76.5,262.5 C 76.1667,263.5 75.5,264.167 74.5,264.5C 74.5,263.167 75.1667,262.5 76.5,262.5 Z"/></g>
<g><path style="opacity:0.004" fill="#fefffe" d="M 402.5,262.5 C 401.833,263.167 401.833,263.167 402.5,262.5 Z"/></g>
<g><path style="opacity:1" fill="#a54366" d="M 270.5,237.5 C 267.892,244.689 264.892,251.355 261.5,257.5C 261.965,259.808 263.299,261.142 265.5,261.5C 265.5,261.833 265.5,262.167 265.5,262.5C 263.832,270.151 259.165,272.651 251.5,270C 255.352,263.173 259.352,256.006 263.5,248.5C 264.5,248.167 265.167,247.5 265.5,246.5C 265.389,245.883 265.056,245.383 264.5,245C 266.629,242.561 268.629,240.061 270.5,237.5 Z"/></g>
<g><path style="opacity:0.034" fill="#fefffe" d="M 103.5,265.5 C 104.5,265.833 105.167,266.5 105.5,267.5C 104.167,267.5 103.5,266.833 103.5,265.5 Z"/></g>
<g><path style="opacity:1" fill="#aa3761" d="M 145.5,256.5 C 149.781,255.483 152.114,257.15 152.5,261.5C 153.325,262.386 154.325,262.719 155.5,262.5C 156.492,262.328 157.158,262.662 157.5,263.5C 158.871,264.787 160.705,265.453 163,265.5C 167.119,265.52 170.952,264.52 174.5,262.5C 174.5,263.833 174.5,265.167 174.5,266.5C 172.146,266.838 169.813,267.338 167.5,268C 166.748,268.671 166.414,269.504 166.5,270.5C 157.695,273.01 150.361,270.677 144.5,263.5C 144.737,262.209 144.404,261.209 143.5,260.5C 142.766,259.292 142.433,257.959 142.5,256.5C 143.5,256.5 144.5,256.5 145.5,256.5 Z"/></g>
<g><path style="opacity:1" fill="#a04264" d="M 24.5,248.5 C 24.8076,250.924 24.4742,253.257 23.5,255.5C 22.2801,255.887 21.6135,256.72 21.5,258C 22.684,259.548 22.5173,261.048 21,262.5C 20.6667,262.167 20.3333,261.833 20,261.5C 19.5065,263.134 19.3398,264.801 19.5,266.5C 22.462,266.883 23.462,265.883 22.5,263.5C 24.1848,262.047 25.8514,260.714 27.5,259.5C 25.8912,263.217 23.8912,266.717 21.5,270C 19.236,270.236 17.0693,270.736 15,271.5C 13.8419,271.002 13.0085,270.169 12.5,269C 16.4201,261.975 20.4201,255.141 24.5,248.5 Z"/></g>
<g><path style="opacity:0.023" fill="#fdfdfd" d="M 358.5,265.5 C 359.5,266.167 360.5,266.833 361.5,267.5C 361.833,268.167 362.167,268.833 362.5,269.5C 360.167,269.167 358.833,267.833 358.5,265.5 Z"/></g>
<g><path style="opacity:0.006" fill="#fbfbfc" d="M 69.5,269.5 C 70.1667,269.5 70.8333,269.5 71.5,269.5C 71.5,269.833 71.5,270.167 71.5,270.5C 70.1667,271.833 68.8333,271.833 67.5,270.5C 68.4916,270.672 69.1583,270.338 69.5,269.5 Z"/></g>
<g><path style="opacity:0.718" fill="#94405f" d="M 243.5,244.5 C 250.697,248.584 252.863,254.584 250,262.5C 246.567,267.075 242.4,269.575 237.5,270C 230.508,270.5 223.508,270.666 216.5,270.5C 216.5,270.167 216.5,269.833 216.5,269.5C 222.02,269.272 227.687,269.106 233.5,269C 237.517,268.888 241.183,267.721 244.5,265.5C 245.262,261.889 245.762,258.222 246,254.5C 247.163,256.285 247.83,258.285 248,260.5C 248.944,259.737 249.444,258.737 249.5,257.5C 248.833,255.167 248.167,252.833 247.5,250.5C 245.548,248.874 244.214,246.874 243.5,244.5 Z"/></g>
<g><path style="opacity:0.753" fill="#903759" d="M 315.5,219.5 C 317.912,219.694 318.912,221.027 318.5,223.5C 317.169,230.636 316.503,238.136 316.5,246C 316.667,253.5 316.833,261 317,268.5C 319.082,265.85 320.749,266.184 322,269.5C 322.333,268.833 322.667,268.167 323,267.5C 323.818,257.589 323.651,247.756 322.5,238C 323.094,237.536 323.761,237.369 324.5,237.5C 324.667,248.838 324.5,260.172 324,271.5C 321.291,270.803 318.624,270.47 316,270.5C 315.5,253.503 315.333,236.503 315.5,219.5 Z"/></g>
<g><path style="opacity:0.013" fill="#fefcfd" d="M 365.5,271.5 C 366.167,271.833 366.833,272.167 367.5,272.5C 366.699,274.793 366.032,274.46 365.5,271.5 Z"/></g>
</svg>
