<?xml version="1.0" encoding="UTF-8"?>
<!DOCTYPE svg PUBLIC "-//W3C//DTD SVG 1.1//EN" "http://www.w3.org/Graphics/SVG/1.1/DTD/svg11.dtd">
<svg xmlns="http://www.w3.org/2000/svg" version="1.1" width="880px" height="548px" style="shape-rendering:geometricPrecision; text-rendering:geometricPrecision; image-rendering:optimizeQuality; fill-rule:evenodd; clip-rule:evenodd" xmlns:xlink="http://www.w3.org/1999/xlink">
<g><path style="opacity:1" fill="#fc030c" d="M 577.5,47.5 C 581.919,48.9715 586.586,49.6382 591.5,49.5C 593.905,50.7682 596.572,51.4349 599.5,51.5C 603.807,52.3266 608.14,52.9933 612.5,53.5C 614.515,54.9238 616.848,55.5905 619.5,55.5C 682.098,73.2781 733.598,107.611 774,158.5C 775.856,161.556 777.689,164.556 779.5,167.5C 757.859,169.489 735.859,170.156 713.5,169.5C 687.933,143.262 657.933,123.929 623.5,111.5C 623.423,110.25 622.756,109.417 621.5,109C 615.833,107.333 610.167,105.667 604.5,104C 605.5,103.167 606.5,102.333 607.5,101.5C 606.833,101.167 606.167,100.833 605.5,100.5C 603.764,101.425 601.93,102.092 600,102.5C 595.618,100.99 591.118,100.323 586.5,100.5C 579.096,100.149 571.763,99.3157 564.5,98C 551.993,97.1735 539.66,97.3401 527.5,98.5C 521.949,98.527 516.616,99.1937 511.5,100.5C 460.758,109.533 417.425,132.199 381.5,168.5C 380.833,168.5 380.5,168.833 380.5,169.5C 358.497,169.667 336.497,169.5 314.5,169C 315.252,168.329 315.586,167.496 315.5,166.5C 329.702,144.963 347.035,126.297 367.5,110.5C 370.374,109.156 373.374,107.99 376.5,107C 377.816,104.167 379.816,103.334 382.5,104.5C 385.373,103.225 388.373,102.392 391.5,102C 390.66,100.334 391.16,100.167 393,101.5C 393.251,99.567 393.751,97.7337 394.5,96C 393.833,95.6667 393.167,95.3333 392.5,95C 395.753,93.7262 398.086,91.5595 399.5,88.5C 415.494,77.5366 432.828,69.2032 451.5,63.5C 455.023,62.491 458.523,62.491 462,63.5C 462.5,63.3333 463,63.1667 463.5,63C 461.729,62.4646 461.396,61.6313 462.5,60.5C 465.344,62.1029 468.344,62.6029 471.5,62C 474.029,60.938 476.696,60.1047 479.5,59.5C 477.726,58.8133 476.059,57.9799 474.5,57C 480.023,56.8368 485.023,55.3368 489.5,52.5C 493.49,52.0013 497.49,51.5013 501.5,51C 502.416,50.7216 503.082,50.2216 503.5,49.5C 503.833,49.5 504.167,49.5 504.5,49.5C 509.076,49.5621 513.409,48.8955 517.5,47.5C 537.499,46.1837 557.499,46.1837 577.5,47.5 Z"/></g>
<g><path style="opacity:1" fill="#f0736f" d="M 591.5,49.5 C 594.495,49.2938 597.162,49.9605 599.5,51.5C 596.572,51.4349 593.905,50.7682 591.5,49.5 Z"/></g>
<g><path style="opacity:1" fill="#f25450" d="M 503.5,49.5 C 503.082,50.2216 502.416,50.7216 501.5,51C 497.49,51.5013 493.49,52.0013 489.5,52.5C 493.862,50.6562 498.529,49.6562 503.5,49.5 Z"/></g>
<g><path style="opacity:1" fill="#feb1b3" d="M 612.5,53.5 C 615.152,53.4095 617.485,54.0762 619.5,55.5C 616.848,55.5905 614.515,54.9238 612.5,53.5 Z"/></g>
<g><path style="opacity:1" fill="#f31e1b" d="M 489.5,52.5 C 485.023,55.3368 480.023,56.8368 474.5,57C 476.059,57.9799 477.726,58.8133 479.5,59.5C 476.696,60.1047 474.029,60.938 471.5,62C 468.344,62.6029 465.344,62.1029 462.5,60.5C 461.396,61.6313 461.729,62.4646 463.5,63C 463,63.1667 462.5,63.3333 462,63.5C 458.523,62.491 455.023,62.491 451.5,63.5C 463.624,58.2987 476.291,54.632 489.5,52.5 Z"/></g>
<g><path style="opacity:1" fill="#f31e1c" d="M 399.5,88.5 C 398.086,91.5595 395.753,93.7262 392.5,95C 393.167,95.3333 393.833,95.6667 394.5,96C 393.751,97.7337 393.251,99.567 393,101.5C 391.16,100.167 390.66,100.334 391.5,102C 388.373,102.392 385.373,103.225 382.5,104.5C 379.816,103.334 377.816,104.167 376.5,107C 373.374,107.99 370.374,109.156 367.5,110.5C 377.337,102.003 388.004,94.6694 399.5,88.5 Z"/></g>
<g><path style="opacity:1" fill="#fea6a8" d="M 527.5,98.5 C 522.402,99.9573 517.069,100.624 511.5,100.5C 516.616,99.1937 521.949,98.527 527.5,98.5 Z"/></g>
<g><path style="opacity:1" fill="#eb2924" d="M 586.5,100.5 C 591.118,100.323 595.618,100.99 600,102.5C 601.93,102.092 603.764,101.425 605.5,100.5C 606.167,100.833 606.833,101.167 607.5,101.5C 606.5,102.333 605.5,103.167 604.5,104C 610.167,105.667 615.833,107.333 621.5,109C 622.756,109.417 623.423,110.25 623.5,111.5C 611.364,107.051 599.03,103.384 586.5,100.5 Z"/></g>
<g><path style="opacity:1" fill="#092768" d="M 567.5,128.5 C 567.5,158.167 567.5,187.833 567.5,217.5C 568.209,218.404 569.209,218.737 570.5,218.5C 588.705,219.858 607.038,221.191 625.5,222.5C 625.416,238.262 625.416,253.928 625.5,269.5C 606.326,269.17 587.326,269.503 568.5,270.5C 567.833,296.665 567.5,322.998 567.5,349.5C 567.354,377.539 567.854,405.539 569,433.5C 574.311,450.417 585.811,456.917 603.5,453C 617.04,450.325 629.54,445.158 641,437.5C 638.838,448.506 636.338,459.506 633.5,470.5C 632.076,472.515 631.41,474.848 631.5,477.5C 629.724,482.262 628.391,487.262 627.5,492.5C 624.17,494.162 620.836,495.828 617.5,497.5C 613.013,498.992 608.68,500.658 604.5,502.5C 591.655,505.328 578.655,506.161 565.5,505C 539.997,500.172 523.164,485.339 515,460.5C 513.712,454.421 512.545,448.421 511.5,442.5C 511.5,384.833 511.5,327.167 511.5,269.5C 495.167,269.5 478.833,269.5 462.5,269.5C 462.5,268.833 462.5,268.167 462.5,267.5C 463.496,252.009 463.83,236.342 463.5,220.5C 479.868,221.151 495.868,220.485 511.5,218.5C 511.5,218.167 511.5,217.833 511.5,217.5C 511.5,197.833 511.5,178.167 511.5,158.5C 529.782,148.022 548.449,138.022 567.5,128.5 Z"/></g>
<g><path style="opacity:1" fill="#5d6685" d="M 511.5,158.5 C 511.5,178.167 511.5,197.833 511.5,217.5C 494.833,217.5 478.167,217.5 461.5,217.5C 477.658,216.504 493.991,216.17 510.5,216.5C 510.17,196.993 510.503,177.659 511.5,158.5 Z"/></g>
<g><path style="opacity:1" fill="#303867" d="M 802.5,159.5 C 803.228,161.512 804.062,163.512 805,165.5C 806.559,163.783 807.392,161.783 807.5,159.5C 808.5,159.5 809.5,159.5 810.5,159.5C 810.823,163.226 810.489,166.893 809.5,170.5C 808.692,168.577 808.192,166.577 808,164.5C 807,166.167 806,167.833 805,169.5C 802.388,162.965 800.888,163.298 800.5,170.5C 799.92,166.351 800.586,162.684 802.5,159.5 Z"/></g>
<g><path style="opacity:1" fill="#838cc2" d="M 802.5,159.5 C 800.586,162.684 799.92,166.351 800.5,170.5C 799.517,166.702 799.183,162.702 799.5,158.5C 800.791,158.263 801.791,158.596 802.5,159.5 Z"/></g>
<g><path style="opacity:1" fill="#e24044" d="M 315.5,166.5 C 315.586,167.496 315.252,168.329 314.5,169C 336.497,169.5 358.497,169.667 380.5,169.5C 369.505,170.167 358.338,170.5 347,170.5C 335.479,170.499 324.313,169.832 313.5,168.5C 313.833,167.5 314.5,166.833 315.5,166.5 Z"/></g>
<g><path style="opacity:1" fill="#e24145" d="M 779.5,167.5 C 780.478,167.811 781.145,168.478 781.5,169.5C 758.67,170.829 736.004,170.829 713.5,169.5C 735.859,170.156 757.859,169.489 779.5,167.5 Z"/></g>
<g><path style="opacity:1" fill="#313567" d="M 790.5,159.5 C 792.604,159.201 794.604,159.534 796.5,160.5C 795.113,160.807 793.446,160.807 791.5,160.5C 791.5,161.5 791.5,162.5 791.5,163.5C 796.541,163.353 798.207,165.519 796.5,170C 794.5,170.667 792.5,170.667 790.5,170C 789.289,169.107 789.289,168.274 790.5,167.5C 792.198,168.681 793.865,168.681 795.5,167.5C 793.78,166.08 791.946,164.747 790,163.5C 789.421,162.072 789.588,160.738 790.5,159.5 Z"/></g>
<g><path style="opacity:1" fill="#fec6c9" d="M 313.5,168.5 C 324.313,169.832 335.479,170.499 347,170.5C 358.338,170.5 369.505,170.167 380.5,169.5C 380.5,168.833 380.833,168.5 381.5,168.5C 381.5,169.5 381.5,170.5 381.5,171.5C 358.5,171.5 335.5,171.5 312.5,171.5C 312.263,170.209 312.596,169.209 313.5,168.5 Z"/></g>
<g><path style="opacity:1" fill="#c2c7dc" d="M 194.5,212.5 C 194.5,212.833 194.5,213.167 194.5,213.5C 188.142,214.372 181.809,215.372 175.5,216.5C 178.868,215.865 181.701,214.198 184,211.5C 187.394,212.456 190.894,212.789 194.5,212.5 Z"/></g>
<g><path style="opacity:1" fill="#868bbd" d="M 223.5,211.5 C 223.5,211.833 223.5,212.167 223.5,212.5C 213.801,212.275 204.134,212.608 194.5,213.5C 194.5,213.167 194.5,212.833 194.5,212.5C 204.127,211.579 213.794,211.245 223.5,211.5 Z"/></g>
<g><path style="opacity:1" fill="#c2c7dd" d="M 223.5,212.5 C 223.5,212.167 223.5,211.833 223.5,211.5C 230.211,211.672 236.878,212.339 243.5,213.5C 245.044,213.21 246.377,212.544 247.5,211.5C 247.797,213.524 249.13,215.19 251.5,216.5C 242.318,214.185 232.985,212.852 223.5,212.5 Z"/></g>
<g><path style="opacity:1" fill="#0b2768" d="M 223.5,212.5 C 232.985,212.852 242.318,214.185 251.5,216.5C 277.66,224.145 299.493,238.479 317,259.5C 317.667,260.5 317.667,261.5 317,262.5C 306.325,275.339 295.491,288.006 284.5,300.5C 270.723,286.275 254.389,276.109 235.5,270C 232.081,269.752 228.747,269.252 225.5,268.5C 221.681,267.834 217.681,267.501 213.5,267.5C 207.26,267.333 201.26,268 195.5,269.5C 157.829,278.837 135.162,302.504 127.5,340.5C 126.037,346.434 125.37,352.601 125.5,359C 125.501,363.015 125.835,366.849 126.5,370.5C 130.052,403.472 146.385,427.639 175.5,443C 180.037,445.013 184.704,446.513 189.5,447.5C 191.515,448.924 193.848,449.59 196.5,449.5C 231.613,454.465 260.946,443.798 284.5,417.5C 296.225,430.226 307.225,443.559 317.5,457.5C 291.34,489.959 257.34,506.292 215.5,506.5C 171.258,507.262 133.758,491.929 103,460.5C 81.2558,435.293 69.2558,405.96 67,372.5C 64.6716,339.49 71.3383,308.49 87,279.5C 106.597,249.072 133.764,228.739 168.5,218.5C 171.152,218.59 173.485,217.924 175.5,216.5C 181.809,215.372 188.142,214.372 194.5,213.5C 204.134,212.608 213.801,212.275 223.5,212.5 Z"/></g>
<g><path style="opacity:1" fill="#78819f" d="M 567.5,128.5 C 568.498,157.662 568.831,186.995 568.5,216.5C 588.34,216.17 608.007,216.503 627.5,217.5C 627.167,217.5 626.833,217.5 626.5,217.5C 606.833,217.5 587.167,217.5 567.5,217.5C 567.5,187.833 567.5,158.167 567.5,128.5 Z"/></g>
<g><path style="opacity:1" fill="#666d99" d="M 175.5,216.5 C 173.485,217.924 171.152,218.59 168.5,218.5C 170.515,217.076 172.848,216.41 175.5,216.5 Z"/></g>
<g><path style="opacity:1" fill="#00094d" d="M 567.5,217.5 C 587.167,217.5 606.833,217.5 626.5,217.5C 626.83,235.008 626.497,252.341 625.5,269.5C 625.416,253.928 625.416,238.262 625.5,222.5C 625.5,221.167 625.5,219.833 625.5,218.5C 607.167,218.5 588.833,218.5 570.5,218.5C 569.209,218.737 568.209,218.404 567.5,217.5 Z"/></g>
<g><path style="opacity:1" fill="#0d2370" d="M 570.5,218.5 C 588.833,218.5 607.167,218.5 625.5,218.5C 625.5,219.833 625.5,221.167 625.5,222.5C 607.038,221.191 588.705,219.858 570.5,218.5 Z"/></g>
<g><path style="opacity:1" fill="#092769" d="M 407.5,220.5 C 406.133,219.147 405.133,219.481 404.5,221.5C 404.174,312.658 404.507,403.991 405.5,495.5C 406.167,404.334 406.833,313.334 407.5,222.5C 407.174,314.862 407.507,407.195 408.5,499.5C 389.5,499.5 370.5,499.5 351.5,499.5C 351.5,499.167 351.5,498.833 351.5,498.5C 352.499,405.335 352.833,312.001 352.5,218.5C 371.197,217.846 389.53,218.513 407.5,220.5 Z"/></g>
<g><path style="opacity:1" fill="#000b45" d="M 461.5,217.5 C 478.167,217.5 494.833,217.5 511.5,217.5C 511.5,217.833 511.5,218.167 511.5,218.5C 495.167,218.5 478.833,218.5 462.5,218.5C 462.5,234.833 462.5,251.167 462.5,267.5C 462.5,268.167 462.5,268.833 462.5,269.5C 462.167,269.5 461.833,269.5 461.5,269.5C 461.5,252.167 461.5,234.833 461.5,217.5 Z"/></g>
<g><path style="opacity:1" fill="#0f1a5d" d="M 351.5,499.5 C 370.5,499.5 389.5,499.5 408.5,499.5C 407.507,407.195 407.174,314.862 407.5,222.5C 407.5,221.833 407.5,221.167 407.5,220.5C 389.53,218.513 371.197,217.846 352.5,218.5C 352.833,312.001 352.499,405.335 351.5,498.5C 351.5,404.5 351.5,310.5 351.5,216.5C 370.833,216.5 390.167,216.5 409.5,216.5C 409.5,311.5 409.5,406.5 409.5,501.5C 389.804,502.154 370.471,501.488 351.5,499.5 Z"/></g>
<g><path style="opacity:1" fill="#072965" d="M 407.5,220.5 C 407.5,221.167 407.5,221.833 407.5,222.5C 406.833,313.334 406.167,404.334 405.5,495.5C 404.507,403.991 404.174,312.658 404.5,221.5C 405.133,219.481 406.133,219.147 407.5,220.5 Z"/></g>
<g><path style="opacity:1" fill="#0c2172" d="M 511.5,218.5 C 495.868,220.485 479.868,221.151 463.5,220.5C 463.83,236.342 463.496,252.009 462.5,267.5C 462.5,251.167 462.5,234.833 462.5,218.5C 478.833,218.5 495.167,218.5 511.5,218.5 Z"/></g>
<g><path style="opacity:1" fill="#3d4c76" d="M 744.5,216.5 C 744.5,216.833 744.5,217.167 744.5,217.5C 725.5,217.5 706.5,217.5 687.5,217.5C 687.5,311.833 687.5,406.167 687.5,500.5C 687.5,500.833 687.5,501.167 687.5,501.5C 686.501,406.668 686.167,311.668 686.5,216.5C 705.833,216.5 725.167,216.5 744.5,216.5 Z"/></g>
<g><path style="opacity:1" fill="#082768" d="M 744.5,217.5 C 744.5,311.833 744.5,406.167 744.5,500.5C 725.5,500.5 706.5,500.5 687.5,500.5C 687.5,406.167 687.5,311.833 687.5,217.5C 706.5,217.5 725.5,217.5 744.5,217.5 Z"/></g>
<g><path style="opacity:1" fill="#5b709e" d="M 744.5,216.5 C 745.499,311.332 745.833,406.332 745.5,501.5C 726.167,501.5 706.833,501.5 687.5,501.5C 687.5,501.167 687.5,500.833 687.5,500.5C 706.5,500.5 725.5,500.5 744.5,500.5C 744.5,406.167 744.5,311.833 744.5,217.5C 744.5,217.167 744.5,216.833 744.5,216.5 Z"/></g>
<g><path style="opacity:1" fill="#9ba2c4" d="M 225.5,268.5 C 215.484,268.453 205.484,268.787 195.5,269.5C 201.26,268 207.26,267.333 213.5,267.5C 217.681,267.501 221.681,267.834 225.5,268.5 Z"/></g>
<g><path style="opacity:1" fill="#3c4b79" d="M 626.5,217.5 C 626.833,217.5 627.167,217.5 627.5,217.5C 627.5,235.167 627.5,252.833 627.5,270.5C 607.833,270.5 588.167,270.5 568.5,270.5C 587.326,269.503 606.326,269.17 625.5,269.5C 626.497,252.341 626.83,235.008 626.5,217.5 Z"/></g>
<g><path style="opacity:1" fill="#dae3f7" d="M 461.5,270.5 C 477.833,270.5 494.167,270.5 510.5,270.5C 510.5,326.167 510.5,381.833 510.5,437.5C 509.501,382.336 509.168,327.003 509.5,271.5C 493.325,271.83 477.325,271.496 461.5,270.5 Z"/></g>
<g><path style="opacity:1" fill="#545e7f" d="M 461.5,270.5 C 461.5,270.167 461.5,269.833 461.5,269.5C 461.833,269.5 462.167,269.5 462.5,269.5C 478.833,269.5 495.167,269.5 511.5,269.5C 511.5,327.167 511.5,384.833 511.5,442.5C 510.549,441.081 510.216,439.415 510.5,437.5C 510.5,381.833 510.5,326.167 510.5,270.5C 494.167,270.5 477.833,270.5 461.5,270.5 Z"/></g>
<g><path style="opacity:1" fill="#072963" d="M 562.5,271.5 C 564.182,323.506 565.182,375.839 565.5,428.5C 565.167,429.5 564.833,430.5 564.5,431.5C 563.682,428.893 563.182,426.226 563,423.5C 562.5,372.834 562.333,322.168 562.5,271.5 Z"/></g>
<g><path style="opacity:1" fill="#959bbc" d="M 127.5,340.5 C 126.743,350.482 126.41,360.482 126.5,370.5C 125.835,366.849 125.501,363.015 125.5,359C 125.37,352.601 126.037,346.434 127.5,340.5 Z"/></g>
<g><path style="opacity:1" fill="#7f87b1" d="M 189.5,447.5 C 192.152,447.41 194.485,448.076 196.5,449.5C 193.848,449.59 191.515,448.924 189.5,447.5 Z"/></g>
<g><path style="opacity:1" fill="#9a9fbe" d="M 633.5,470.5 C 633.59,473.152 632.924,475.485 631.5,477.5C 631.41,474.848 632.076,472.515 633.5,470.5 Z"/></g>
<g><path style="opacity:1" fill="#b4bbd9" d="M 617.5,497.5 C 613.874,500.495 609.541,502.162 604.5,502.5C 608.68,500.658 613.013,498.992 617.5,497.5 Z"/></g>
</svg>
