<?xml version="1.0" encoding="UTF-8"?>
<!DOCTYPE svg PUBLIC "-//W3C//DTD SVG 1.1//EN" "http://www.w3.org/Graphics/SVG/1.1/DTD/svg11.dtd">
<svg xmlns="http://www.w3.org/2000/svg" version="1.1" width="900px" height="600px" style="shape-rendering:geometricPrecision; text-rendering:geometricPrecision; image-rendering:optimizeQuality; fill-rule:evenodd; clip-rule:evenodd" xmlns:xlink="http://www.w3.org/1999/xlink">
<g><path style="opacity:0.982" fill="#fe0000" d="M 265.5,69.5 C 320.833,69.5 376.167,69.5 431.5,69.5C 431.5,88.5 431.5,107.5 431.5,126.5C 394.833,126.5 358.167,126.5 321.5,126.5C 321.5,162.833 321.5,199.167 321.5,235.5C 302.5,235.5 283.5,235.5 264.5,235.5C 264.171,180.095 264.504,124.762 265.5,69.5 Z"/></g>
<g><path style="opacity:0.988" fill="#fe0000" d="M 466.5,69.5 C 522.167,69.5 577.833,69.5 633.5,69.5C 633.5,124.833 633.5,180.167 633.5,235.5C 614.833,235.5 596.167,235.5 577.5,235.5C 577.5,199.167 577.5,162.833 577.5,126.5C 540.5,126.5 503.5,126.5 466.5,126.5C 466.5,107.5 466.5,88.5 466.5,69.5 Z"/></g>
<g><path style="opacity:1" fill="#003296" d="M 381.5,185.5 C 426.5,185.5 471.5,185.5 516.5,185.5C 516.5,230.167 516.5,274.833 516.5,319.5C 471.5,319.5 426.5,319.5 381.5,319.5C 381.5,274.833 381.5,230.167 381.5,185.5 Z"/></g>
<g><path style="opacity:0.987" fill="#fe0000" d="M 265.5,269.5 C 284.167,269.5 302.833,269.5 321.5,269.5C 321.5,306.167 321.5,342.833 321.5,379.5C 358.167,379.5 394.833,379.5 431.5,379.5C 431.5,398.167 431.5,416.833 431.5,435.5C 375.833,435.5 320.167,435.5 264.5,435.5C 264.171,380.095 264.504,324.762 265.5,269.5 Z"/></g>
<g><path style="opacity:0.993" fill="#fe0000" d="M 577.5,269.5 C 596.167,269.5 614.833,269.5 633.5,269.5C 633.5,324.833 633.5,380.167 633.5,435.5C 577.833,435.5 522.167,435.5 466.5,435.5C 466.5,416.833 466.5,398.167 466.5,379.5C 503.5,379.5 540.5,379.5 577.5,379.5C 577.5,342.833 577.5,306.167 577.5,269.5 Z"/></g>
<g><path style="opacity:1" fill="#011d78" d="M 241.5,448.5 C 379.833,448.5 518.167,448.5 656.5,448.5C 656.5,476.5 656.5,504.5 656.5,532.5C 518.167,532.5 379.833,532.5 241.5,532.5C 241.5,504.5 241.5,476.5 241.5,448.5 Z"/></g>
<g><path style="opacity:1" fill="#f6f7f9" d="M 408.5,469.5 C 420.596,468.698 428.263,474.032 431.5,485.5C 427.167,486.833 422.833,486.833 418.5,485.5C 416.714,480.82 413.381,479.32 408.5,481C 404.248,486.243 403.415,492.076 406,498.5C 411.646,503.14 415.812,502.14 418.5,495.5C 422.833,494.167 427.167,494.167 431.5,495.5C 427.714,508.568 419.047,513.735 405.5,511C 393.5,506.17 389,497.336 392,484.5C 394.57,476.089 400.07,471.089 408.5,469.5 Z"/></g>
<g><path style="opacity:1" fill="#606e9a" d="M 554.5,471.5 C 550.5,471.5 546.5,471.5 542.5,471.5C 542.5,484.5 542.5,497.5 542.5,510.5C 541.504,497.344 541.171,484.01 541.5,470.5C 546.032,470.182 550.366,470.515 554.5,471.5 Z"/></g>
<g><path style="opacity:1" fill="#fafafb" d="M 267.5,470.5 C 271.833,470.5 276.167,470.5 280.5,470.5C 280.5,475.167 280.5,479.833 280.5,484.5C 284.5,484.5 288.5,484.5 292.5,484.5C 292.5,479.833 292.5,475.167 292.5,470.5C 296.833,470.5 301.167,470.5 305.5,470.5C 305.5,483.833 305.5,497.167 305.5,510.5C 301.167,510.5 296.833,510.5 292.5,510.5C 292.5,505.5 292.5,500.5 292.5,495.5C 288.5,495.5 284.5,495.5 280.5,495.5C 280.5,500.5 280.5,505.5 280.5,510.5C 276.167,510.5 271.833,510.5 267.5,510.5C 267.5,497.167 267.5,483.833 267.5,470.5 Z"/></g>
<g><path style="opacity:1" fill="#929bb5" d="M 335.5,471.5 C 328.167,471.5 320.833,471.5 313.5,471.5C 313.5,484.5 313.5,497.5 313.5,510.5C 312.504,497.344 312.171,484.01 312.5,470.5C 320.352,470.175 328.018,470.508 335.5,471.5 Z"/></g>
<g><path style="opacity:1" fill="#fbfbfc" d="M 335.5,471.5 C 346.171,473.107 351.504,479.441 351.5,490.5C 351.282,499.863 346.948,506.363 338.5,510C 330.173,510.5 321.84,510.666 313.5,510.5C 313.5,497.5 313.5,484.5 313.5,471.5C 320.833,471.5 328.167,471.5 335.5,471.5 Z"/></g>
<g><path style="opacity:1" fill="#f3f4f7" d="M 356.5,470.5 C 366.833,470.5 377.167,470.5 387.5,470.5C 387.5,474.167 387.5,477.833 387.5,481.5C 381.5,481.5 375.5,481.5 369.5,481.5C 369.5,483.167 369.5,484.833 369.5,486.5C 374.5,486.5 379.5,486.5 384.5,486.5C 384.5,489.833 384.5,493.167 384.5,496.5C 379.5,496.5 374.5,496.5 369.5,496.5C 369.5,501.167 369.5,505.833 369.5,510.5C 365.167,510.5 360.833,510.5 356.5,510.5C 356.5,497.167 356.5,483.833 356.5,470.5 Z"/></g>
<g><path style="opacity:1" fill="#f8f8fa" d="M 455.5,470.5 C 463.507,470.334 471.507,470.5 479.5,471C 491.119,473.555 493.452,479.555 486.5,489C 494.865,497.231 493.865,504.231 483.5,510C 474.173,510.5 464.839,510.666 455.5,510.5C 455.5,497.167 455.5,483.833 455.5,470.5 Z"/></g>
<g><path style="opacity:1" fill="#f6f7f9" d="M 509.5,470.5 C 514.167,470.5 518.833,470.5 523.5,470.5C 527.833,483.833 532.167,497.167 536.5,510.5C 532.116,510.826 527.783,510.492 523.5,509.5C 522.754,508.264 522.421,506.93 522.5,505.5C 518.167,505.5 513.833,505.5 509.5,505.5C 509.579,506.93 509.246,508.264 508.5,509.5C 504.167,510.833 499.833,510.833 495.5,509.5C 500.174,496.476 504.841,483.476 509.5,470.5 Z"/></g>
<g><path style="opacity:1" fill="#fdfdfd" d="M 554.5,471.5 C 558.586,478.007 562.92,484.34 567.5,490.5C 568.5,484.927 568.833,478.594 568.5,471.5C 572.5,471.5 576.5,471.5 580.5,471.5C 580.5,484.5 580.5,497.5 580.5,510.5C 576.154,510.666 571.821,510.499 567.5,510C 563.697,504.223 560.031,498.389 556.5,492.5C 556.217,491.711 555.717,491.044 555,490.5C 554.5,497.158 554.334,503.825 554.5,510.5C 550.5,510.5 546.5,510.5 542.5,510.5C 542.5,497.5 542.5,484.5 542.5,471.5C 546.5,471.5 550.5,471.5 554.5,471.5 Z"/></g>
<g><path style="opacity:1" fill="#b8becf" d="M 580.5,471.5 C 576.5,471.5 572.5,471.5 568.5,471.5C 568.833,478.594 568.5,484.927 567.5,490.5C 567.5,483.833 567.5,477.167 567.5,470.5C 572.032,470.182 576.366,470.515 580.5,471.5 Z"/></g>
<g><path style="opacity:1" fill="#bfc5d3" d="M 601.5,471.5 C 597.5,471.5 593.5,471.5 589.5,471.5C 589.5,484.5 589.5,497.5 589.5,510.5C 588.504,497.344 588.171,484.01 588.5,470.5C 593.032,470.182 597.366,470.515 601.5,471.5 Z"/></g>
<g><path style="opacity:1" fill="#fbfbfc" d="M 589.5,510.5 C 589.5,497.5 589.5,484.5 589.5,471.5C 593.5,471.5 597.5,471.5 601.5,471.5C 601.334,475.514 601.501,479.514 602,483.5C 605.314,479.352 608.814,475.352 612.5,471.5C 617.802,470.337 623.136,470.171 628.5,471C 623.278,475.719 618.612,480.885 614.5,486.5C 619.251,494.337 624.251,502.004 629.5,509.5C 624.167,510.833 618.833,510.833 613.5,509.5C 610.985,504.457 607.985,499.79 604.5,495.5C 603.522,495.977 602.689,496.643 602,497.5C 601.501,501.821 601.334,506.154 601.5,510.5C 597.5,510.5 593.5,510.5 589.5,510.5 Z"/></g>
<g><path style="opacity:1" fill="#041776" d="M 468.5,480.5 C 471.572,480.183 474.572,480.516 477.5,481.5C 478.859,483.306 478.525,484.806 476.5,486C 473.854,486.497 471.187,486.664 468.5,486.5C 468.5,484.5 468.5,482.5 468.5,480.5 Z"/></g>
<g><path style="opacity:1" fill="#041a76" d="M 331.5,481.5 C 333.993,481.329 335.826,482.329 337,484.5C 338.01,489.558 337.51,494.391 335.5,499C 332.607,500.149 329.607,500.649 326.5,500.5C 326.5,494.167 326.5,487.833 326.5,481.5C 328.167,481.5 329.833,481.5 331.5,481.5 Z"/></g>
<g><path style="opacity:1" fill="#0c1776" d="M 515.5,483.5 C 517.123,487.29 518.456,491.29 519.5,495.5C 517.167,496.833 514.833,496.833 512.5,495.5C 513.915,491.591 514.915,487.591 515.5,483.5 Z"/></g>
<g><path style="opacity:1" fill="#8892af" d="M 331.5,481.5 C 329.833,481.5 328.167,481.5 326.5,481.5C 326.5,487.833 326.5,494.167 326.5,500.5C 325.509,494.021 325.176,487.354 325.5,480.5C 327.735,480.205 329.735,480.539 331.5,481.5 Z"/></g>
<g><path style="opacity:1" fill="#576695" d="M 556.5,492.5 C 555.833,498.5 555.167,504.5 554.5,510.5C 554.334,503.825 554.5,497.158 555,490.5C 555.717,491.044 556.217,491.711 556.5,492.5 Z"/></g>
<g><path style="opacity:1" fill="#031775" d="M 468.5,494.5 C 471.85,494.335 475.183,494.502 478.5,495C 479.833,496.667 479.833,498.333 478.5,500C 475.274,501.199 471.941,501.699 468.5,501.5C 468.5,499.167 468.5,496.833 468.5,494.5 Z"/></g>
</svg>
