<?xml version="1.0" encoding="UTF-8"?>
<!DOCTYPE svg PUBLIC "-//W3C//DTD SVG 1.1//EN" "http://www.w3.org/Graphics/SVG/1.1/DTD/svg11.dtd">
<svg xmlns="http://www.w3.org/2000/svg" version="1.1" width="920px" height="400px" style="shape-rendering:geometricPrecision; text-rendering:geometricPrecision; image-rendering:optimizeQuality; fill-rule:evenodd; clip-rule:evenodd" xmlns:xlink="http://www.w3.org/1999/xlink">
<g><path style="opacity:1" fill="#f42928" d="M 268.5,-0.5 C 395.167,-0.5 521.833,-0.5 648.5,-0.5C 647.5,0.833333 646.5,2.16667 645.5,3.5C 645.167,3.5 644.833,3.5 644.5,3.5C 641.048,1.82661 637.214,0.826606 633,0.5C 512.829,1.82075 392.829,1.82075 273,0.5C 272.283,1.0442 271.783,1.71087 271.5,2.5C 270.167,1.83333 269.167,0.833333 268.5,-0.5 Z"/></g>
<g><path style="opacity:1" fill="#fd0100" d="M 644.5,3.5 C 640.102,6.89473 636.436,10.8947 633.5,15.5C 632.833,15.5 632.5,15.8333 632.5,16.5C 617.551,29.7808 603.218,43.7808 589.5,58.5C 586.5,60.8333 583.833,63.5 581.5,66.5C 579.833,67.5 578.5,68.8333 577.5,70.5C 576.306,71.2719 575.306,72.2719 574.5,73.5C 571.5,75.8333 568.833,78.5 566.5,81.5C 566.5,82.1667 566.167,82.5 565.5,82.5C 564.167,83.1667 563.167,84.1667 562.5,85.5C 561.306,86.2719 560.306,87.2719 559.5,88.5C 557.167,90.1667 555.167,92.1667 553.5,94.5C 552.272,95.3065 551.272,96.3065 550.5,97.5C 549.167,98.1667 548.167,99.1667 547.5,100.5C 546.306,101.272 545.306,102.272 544.5,103.5C 541.5,105.833 538.833,108.5 536.5,111.5C 533.861,113.473 531.527,115.806 529.5,118.5C 527.167,120.167 525.167,122.167 523.5,124.5C 520.272,127.306 517.272,130.306 514.5,133.5C 512.167,135.167 510.167,137.167 508.5,139.5C 500.14,147.194 492.14,155.194 484.5,163.5C 483.292,164.234 481.959,164.567 480.5,164.5C 480.567,165.959 480.234,167.292 479.5,168.5C 474.559,173.605 469.393,178.605 464,183.5C 463.536,184.094 463.369,184.761 463.5,185.5C 462.29,185.932 461.29,186.599 460.5,187.5C 458.486,187.608 456.82,186.942 455.5,185.5C 453.821,184.084 452.154,182.75 450.5,181.5C 449.496,180.317 448.662,178.984 448,177.5C 414.621,146.26 382.121,114.26 350.5,81.5C 349.833,80.1667 348.833,79.1667 347.5,78.5C 346.833,78.5 346.5,78.1667 346.5,77.5C 332.833,63.1667 318.833,49.1667 304.5,35.5C 302.289,32.7152 299.623,30.3819 296.5,28.5C 288.222,19.8864 279.889,11.2197 271.5,2.5C 271.783,1.71087 272.283,1.0442 273,0.5C 392.829,1.82075 512.829,1.82075 633,0.5C 637.214,0.826606 641.048,1.82661 644.5,3.5 Z"/></g>
<g><path style="opacity:1" fill="#f16969" d="M 262.5,4.5 C 263.209,3.59603 264.209,3.26269 265.5,3.5C 265.5,127.167 265.5,250.833 265.5,374.5C 264.611,376.859 263.278,377.025 261.5,375C 258.882,372.894 256.882,370.394 255.5,367.5C 258.167,369.833 260.833,372.167 263.5,374.5C 264.167,313.001 264.5,251.334 264.5,189.5C 264.5,127.496 263.833,65.8297 262.5,4.5 Z"/></g>
<g><path style="opacity:1" fill="#f42b2a" d="M 262.5,4.5 C 263.833,65.8297 264.5,127.496 264.5,189.5C 264.5,251.334 264.167,313.001 263.5,374.5C 263.667,251.5 263.5,128.5 263,5.5C 254.246,14.7585 245.079,23.4251 235.5,31.5C 244.167,22.1667 253.167,13.1667 262.5,4.5 Z"/></g>
<g><path style="opacity:1" fill="#f49998" d="M 644.5,3.5 C 644.833,3.5 645.167,3.5 645.5,3.5C 641.833,7.83333 637.833,11.8333 633.5,15.5C 636.436,10.8947 640.102,6.89473 644.5,3.5 Z"/></g>
<g><path style="opacity:1" fill="#fd0100" d="M 263.5,374.5 C 260.833,372.167 258.167,369.833 255.5,367.5C 242.916,355.918 230.582,343.918 218.5,331.5C 212.833,325.167 206.833,319.167 200.5,313.5C 185.837,300.504 171.837,286.837 158.5,272.5C 157.5,270.833 156.167,269.5 154.5,268.5C 151.5,264.833 148.167,261.5 144.5,258.5C 144.167,258.5 143.833,258.5 143.5,258.5C 143.573,256.973 142.906,255.973 141.5,255.5C 127.558,243.226 114.224,230.226 101.5,216.5C 100.5,214.833 99.1667,213.5 97.5,212.5C 93.8333,208.167 89.8333,204.167 85.5,200.5C 81.7017,197.533 78.3684,194.033 75.5,190C 78.6563,185.677 82.323,181.844 86.5,178.5C 92.1082,174.561 97.1082,169.894 101.5,164.5C 106.815,157.551 112.815,151.218 119.5,145.5C 130.78,134.555 142.113,123.555 153.5,112.5C 164.781,102.887 175.447,92.5541 185.5,81.5C 188.108,77.8883 191.108,74.555 194.5,71.5C 208.087,58.2488 221.753,44.9155 235.5,31.5C 245.079,23.4251 254.246,14.7585 263,5.5C 263.5,128.5 263.667,251.5 263.5,374.5 Z"/></g>
<g><path style="opacity:1" fill="#fd0201" d="M 654.5,5.5 C 662.167,12.1667 669.833,18.8333 677.5,25.5C 679.833,27.1667 681.833,29.1667 683.5,31.5C 685.167,33.8333 687.167,35.8333 689.5,37.5C 690.833,38.1667 691.833,39.1667 692.5,40.5C 693.5,42.1667 694.833,43.5 696.5,44.5C 698.89,47.2286 701.557,49.5619 704.5,51.5C 705.167,52.5 705.833,53.5 706.5,54.5C 707.585,56.5869 709.251,57.9202 711.5,58.5C 713.951,61.7698 716.618,64.7698 719.5,67.5C 719.973,68.9063 720.973,69.573 722.5,69.5C 722.833,70.1667 723.167,70.8333 723.5,71.5C 723.973,72.9063 724.973,73.573 726.5,73.5C 731.527,79.1937 736.86,84.5271 742.5,89.5C 742.427,91.0269 743.094,92.0269 744.5,92.5C 764.589,110.918 784.256,130.252 803.5,150.5C 805.167,152.833 807.167,154.833 809.5,156.5C 811.833,158.167 813.833,160.167 815.5,162.5C 822.555,170.556 830.221,177.89 838.5,184.5C 839.706,187.298 841.706,189.465 844.5,191C 843.619,191.708 842.953,192.542 842.5,193.5C 839.308,196.527 835.975,199.361 832.5,202C 825.69,209.645 818.69,217.145 811.5,224.5C 808.5,225.5 806.5,227.5 805.5,230.5C 800.935,234.277 796.602,238.277 792.5,242.5C 791.167,243.167 790.167,244.167 789.5,245.5C 789.5,246.167 789.167,246.5 788.5,246.5C 787.167,247.167 786.167,248.167 785.5,249.5C 784.167,250.167 783.167,251.167 782.5,252.5C 756.617,279.01 730.284,305.343 703.5,331.5C 689.218,344.114 675.552,357.447 662.5,371.5C 659.87,373.628 657.37,375.961 655,378.5C 654.5,254.167 654.333,129.834 654.5,5.5 Z"/></g>
<g><path style="opacity:1" fill="#f49997" d="M 632.5,16.5 C 628.5,20.8333 624.5,25.1667 620.5,29.5C 610.702,38.7978 601.035,48.2978 591.5,58C 590.906,58.4643 590.239,58.631 589.5,58.5C 603.218,43.7808 617.551,29.7808 632.5,16.5 Z"/></g>
<g><path style="opacity:1" fill="#f48d8b" d="M 304.5,35.5 C 318.833,49.1667 332.833,63.1667 346.5,77.5C 332.252,64.7553 318.419,51.422 305,37.5C 304.536,36.9056 304.369,36.2389 304.5,35.5 Z"/></g>
<g><path style="opacity:1" fill="#f4918f" d="M 706.5,54.5 C 708.749,55.0798 710.415,56.4131 711.5,58.5C 709.251,57.9202 707.585,56.5869 706.5,54.5 Z"/></g>
<g><path style="opacity:1" fill="#f49796" d="M 589.5,58.5 C 587.833,62.1667 585.167,64.8333 581.5,66.5C 583.833,63.5 586.5,60.8333 589.5,58.5 Z"/></g>
<g><path style="opacity:1" fill="#f49493" d="M 719.5,67.5 C 721.027,67.427 722.027,68.0937 722.5,69.5C 720.973,69.573 719.973,68.9063 719.5,67.5 Z"/></g>
<g><path style="opacity:1" fill="#f49594" d="M 581.5,66.5 C 581.167,68.8333 579.833,70.1667 577.5,70.5C 578.5,68.8333 579.833,67.5 581.5,66.5 Z"/></g>
<g><path style="opacity:1" fill="#f49493" d="M 723.5,71.5 C 725.027,71.427 726.027,72.0937 726.5,73.5C 724.973,73.573 723.973,72.9063 723.5,71.5 Z"/></g>
<g><path style="opacity:1" fill="#f49796" d="M 574.5,73.5 C 572.833,77.1667 570.167,79.8333 566.5,81.5C 568.833,78.5 571.5,75.8333 574.5,73.5 Z"/></g>
<g><path style="opacity:1" fill="#f48d8b" d="M 347.5,78.5 C 348.833,79.1667 349.833,80.1667 350.5,81.5C 348.5,81.5 347.5,80.5 347.5,78.5 Z"/></g>
<g><path style="opacity:1" fill="#f49493" d="M 565.5,82.5 C 565.5,84.5 564.5,85.5 562.5,85.5C 563.167,84.1667 564.167,83.1667 565.5,82.5 Z"/></g>
<g><path style="opacity:1" fill="#f06867" d="M 742.5,89.5 C 743.906,89.9731 744.573,90.9731 744.5,92.5C 743.094,92.0269 742.427,91.0269 742.5,89.5 Z"/></g>
<g><path style="opacity:1" fill="#f49796" d="M 559.5,88.5 C 558.5,91.5 556.5,93.5 553.5,94.5C 555.167,92.1667 557.167,90.1667 559.5,88.5 Z"/></g>
<g><path style="opacity:1" fill="#f49493" d="M 550.5,97.5 C 550.5,99.5 549.5,100.5 547.5,100.5C 548.167,99.1667 549.167,98.1667 550.5,97.5 Z"/></g>
<g><path style="opacity:1" fill="#f3423d" d="M 185.5,81.5 C 175.447,92.5541 164.781,102.887 153.5,112.5C 160.833,104.833 168.167,97.1667 175.5,89.5C 178.564,86.4297 181.897,83.7631 185.5,81.5 Z"/></g>
<g><path style="opacity:1" fill="#f49796" d="M 544.5,103.5 C 542.833,107.167 540.167,109.833 536.5,111.5C 538.833,108.5 541.5,105.833 544.5,103.5 Z"/></g>
<g><path style="opacity:1" fill="#f49796" d="M 529.5,118.5 C 528.5,121.5 526.5,123.5 523.5,124.5C 525.167,122.167 527.167,120.167 529.5,118.5 Z"/></g>
<g><path style="opacity:1" fill="#f49796" d="M 514.5,133.5 C 513.5,136.5 511.5,138.5 508.5,139.5C 510.167,137.167 512.167,135.167 514.5,133.5 Z"/></g>
<g><path style="opacity:1" fill="#f48d8b" d="M 803.5,150.5 C 806.5,151.5 808.5,153.5 809.5,156.5C 807.167,154.833 805.167,152.833 803.5,150.5 Z"/></g>
<g><path style="opacity:1" fill="#f48e8c" d="M 815.5,162.5 C 823.779,169.11 831.445,176.444 838.5,184.5C 830.221,177.89 822.555,170.556 815.5,162.5 Z"/></g>
<g><path style="opacity:1" fill="#fd0402" d="M 456.5,192.5 C 458.216,192.629 459.883,192.962 461.5,193.5C 470.982,203.574 480.648,213.241 490.5,222.5C 494.5,227.167 498.833,231.5 503.5,235.5C 505.167,237.833 507.167,239.833 509.5,241.5C 528.551,261.551 548.217,280.885 568.5,299.5C 568.5,299.833 568.5,300.167 568.5,300.5C 572.892,305.894 577.892,310.561 583.5,314.5C 583.833,315.167 584.167,315.833 584.5,316.5C 587.231,320.234 590.564,323.234 594.5,325.5C 595.422,327.816 597.089,329.483 599.5,330.5C 600.836,332.01 602.003,333.677 603,335.5C 616.263,348.593 629.763,361.593 643.5,374.5C 644.167,376.5 645.5,377.833 647.5,378.5C 522.171,380.498 396.504,381.165 270.5,380.5C 273.098,376.562 276.098,372.895 279.5,369.5C 279.833,367.167 281.167,365.833 283.5,365.5C 286.5,363.167 289.167,360.5 291.5,357.5C 345.686,302.647 400.686,247.647 456.5,192.5 Z"/></g>
<g><path style="opacity:1" fill="#f48d8b" d="M 490.5,222.5 C 492.062,222.733 493.395,223.4 494.5,224.5C 497.902,227.895 500.902,231.562 503.5,235.5C 498.833,231.5 494.5,227.167 490.5,222.5 Z"/></g>
<g><path style="opacity:1" fill="#f48d8c" d="M 509.5,241.5 C 514.776,245.437 519.776,249.771 524.5,254.5C 529.167,259.833 534.167,264.833 539.5,269.5C 544.167,274.833 549.167,279.833 554.5,284.5C 559.167,289.5 563.833,294.5 568.5,299.5C 548.217,280.885 528.551,261.551 509.5,241.5 Z"/></g>
<g><path style="opacity:1" fill="#f49493" d="M 792.5,242.5 C 792.5,244.5 791.5,245.5 789.5,245.5C 790.167,244.167 791.167,243.167 792.5,242.5 Z"/></g>
<g><path style="opacity:1" fill="#f49493" d="M 788.5,246.5 C 788.5,248.5 787.5,249.5 785.5,249.5C 786.167,248.167 787.167,247.167 788.5,246.5 Z"/></g>
<g><path style="opacity:1" fill="#f49493" d="M 785.5,249.5 C 785.5,251.5 784.5,252.5 782.5,252.5C 783.167,251.167 784.167,250.167 785.5,249.5 Z"/></g>
<g><path style="opacity:1" fill="#f48d8b" d="M 200.5,313.5 C 206.833,319.167 212.833,325.167 218.5,331.5C 211.5,326.5 205.5,320.5 200.5,313.5 Z"/></g>
<g><path style="opacity:1" fill="#f48d8b" d="M 154.5,268.5 C 156.167,269.5 157.5,270.833 158.5,272.5C 156.167,272.167 154.833,270.833 154.5,268.5 Z"/></g>
<g><path style="opacity:1" fill="#f48d8b" d="M 144.5,258.5 C 148.167,261.5 151.5,264.833 154.5,268.5C 150.167,266.167 146.833,262.833 144.5,258.5 Z"/></g>
<g><path style="opacity:1" fill="#f49493" d="M 141.5,255.5 C 142.906,255.973 143.573,256.973 143.5,258.5C 142.094,258.027 141.427,257.027 141.5,255.5 Z"/></g>
<g><path style="opacity:1" fill="#f48d8b" d="M 97.5,212.5 C 99.1667,213.5 100.5,214.833 101.5,216.5C 99.1667,216.167 97.8333,214.833 97.5,212.5 Z"/></g>
<g><path style="opacity:1" fill="#f48d8b" d="M 85.5,200.5 C 89.8333,204.167 93.8333,208.167 97.5,212.5C 92.5,209.5 88.5,205.5 85.5,200.5 Z"/></g>
<g><path style="opacity:1" fill="#f34f4a" d="M 461.5,193.5 C 459.883,192.962 458.216,192.629 456.5,192.5C 458.457,189.941 460.123,190.274 461.5,193.5 Z"/></g>
<g><path style="opacity:1" fill="#f48f8d" d="M 455.5,185.5 C 456.82,186.942 458.486,187.608 460.5,187.5C 457.983,190.074 456.316,189.408 455.5,185.5 Z"/></g>
<g><path style="opacity:1" fill="#f49997" d="M 703.5,331.5 C 690.448,345.553 676.782,358.886 662.5,371.5C 675.552,357.447 689.218,344.114 703.5,331.5 Z"/></g>
<g><path style="opacity:1" fill="#f48d8b" d="M 692.5,40.5 C 694.833,40.8333 696.167,42.1667 696.5,44.5C 694.833,43.5 693.5,42.1667 692.5,40.5 Z"/></g>
<g><path style="opacity:1" fill="#f48d8b" d="M 683.5,31.5 C 686.5,32.5 688.5,34.5 689.5,37.5C 687.167,35.8333 685.167,33.8333 683.5,31.5 Z"/></g>
<g><path style="opacity:1" fill="#f34c46" d="M 677.5,25.5 C 669.833,18.8333 662.167,12.1667 654.5,5.5C 654.517,3.97189 655.184,3.47189 656.5,4C 663.703,11.0351 670.703,18.2018 677.5,25.5 Z"/></g>
<g><path style="opacity:1" fill="#f3423c" d="M 291.5,357.5 C 289.167,360.5 286.5,363.167 283.5,365.5C 285.167,361.833 287.833,359.167 291.5,357.5 Z"/></g>
</svg>
