<?xml version="1.0" encoding="UTF-8"?>
<!DOCTYPE svg PUBLIC "-//W3C//DTD SVG 1.1//EN" "http://www.w3.org/Graphics/SVG/1.1/DTD/svg11.dtd">
<svg xmlns="http://www.w3.org/2000/svg" version="1.1" width="1200px" height="1200px" style="shape-rendering:geometricPrecision; text-rendering:geometricPrecision; image-rendering:optimizeQuality; fill-rule:evenodd; clip-rule:evenodd" xmlns:xlink="http://www.w3.org/1999/xlink">
<g><path style="opacity:1" fill="#f1aa75" d="M 751.5,317.5 C 755.489,317.116 759.155,317.783 762.5,319.5C 758.64,319.192 754.974,318.525 751.5,317.5 Z"/></g>
<g><path style="opacity:1" fill="#dc774b" d="M 746.5,317.5 C 730.442,317.138 714.442,317.805 698.5,319.5C 702.619,318.262 706.953,317.429 711.5,317C 723.341,316.174 735.007,316.341 746.5,317.5 Z"/></g>
<g><path style="opacity:1" fill="#ae202d" d="M 746.5,317.5 C 748.167,317.5 749.833,317.5 751.5,317.5C 754.974,318.525 758.64,319.192 762.5,319.5C 812.897,329.04 845.564,358.373 860.5,407.5C 860.171,410.228 860.837,412.562 862.5,414.5C 862.5,414.833 862.5,415.167 862.5,415.5C 862.41,418.152 863.076,420.485 864.5,422.5C 864.5,423.167 864.5,423.833 864.5,424.5C 864.625,431.755 865.625,438.755 867.5,445.5C 867.859,463.553 867.192,481.553 865.5,499.5C 844.949,562.956 812.782,619.622 769,669.5C 731.741,711.788 688.908,746.954 640.5,775C 628.837,781.333 616.837,786.833 604.5,791.5C 605.434,775.701 607.6,760.034 611,744.5C 628.146,674.26 649.48,605.26 675,537.5C 678.796,518.931 671.63,506.765 653.5,501C 640.408,497.507 627.408,497.841 614.5,502C 565.008,526.821 520.508,558.655 481,597.5C 477.606,601.898 474.606,606.565 472,611.5C 469.433,618.983 471.933,623.317 479.5,624.5C 482.581,623.973 485.581,623.14 488.5,622C 500.617,614.629 513.617,609.629 527.5,607C 538.832,605.091 547.999,608.591 555,617.5C 555.822,619.788 556.489,622.122 557,624.5C 557.719,652.803 555.053,680.803 549,708.5C 541.419,743.848 530.919,778.181 517.5,811.5C 441.708,810.877 399.542,772.877 391,697.5C 389.319,667.587 392.653,638.254 401,609.5C 432.195,514.382 487.028,436.049 565.5,374.5C 594.04,355.23 624.707,340.23 657.5,329.5C 660.152,329.59 662.485,328.924 664.5,327.5C 672.603,324.62 680.937,322.62 689.5,321.5C 692.152,321.59 694.485,320.924 696.5,319.5C 697.167,319.5 697.833,319.5 698.5,319.5C 714.442,317.805 730.442,317.138 746.5,317.5 Z"/></g>
<g><path style="opacity:1" fill="#dc7b52" d="M 696.5,319.5 C 694.485,320.924 692.152,321.59 689.5,321.5C 691.438,319.837 693.772,319.171 696.5,319.5 Z"/></g>
<g><path style="opacity:1" fill="#d66d46" d="M 664.5,327.5 C 662.485,328.924 660.152,329.59 657.5,329.5C 659.515,328.076 661.848,327.41 664.5,327.5 Z"/></g>
<g><path style="opacity:1" fill="#fefdfd" d="M 698.5,361.5 C 710.646,359.355 721.479,362.021 731,369.5C 737.031,377.204 739.031,385.87 737,395.5C 728.592,428.92 708.758,453.087 677.5,468C 666.344,473.08 654.677,474.747 642.5,473C 629.571,467.719 623.571,458.053 624.5,444C 625.131,431.44 628.964,419.94 636,409.5C 650.96,385.689 671.794,369.689 698.5,361.5 Z"/></g>
<g><path style="opacity:1" fill="#f69119" d="M 565.5,374.5 C 487.028,436.049 432.195,514.382 401,609.5C 392.653,638.254 389.319,667.587 391,697.5C 399.542,772.877 441.708,810.877 517.5,811.5C 509.457,837.923 496.957,861.923 480,883.5C 465.036,900.869 446.536,906.036 424.5,899C 378.483,887.317 348.316,858.817 334,813.5C 326.302,785.949 323.969,757.949 327,729.5C 334.334,674.83 351.668,623.497 379,575.5C 418.171,505.973 469.337,446.473 532.5,397C 543.211,388.986 554.211,381.486 565.5,374.5 Z"/></g>
<g><path style="opacity:1" fill="#eb9353" d="M 860.5,407.5 C 861.924,409.515 862.59,411.848 862.5,414.5C 860.837,412.562 860.171,410.228 860.5,407.5 Z"/></g>
<g><path style="opacity:1" fill="#f1a25d" d="M 862.5,415.5 C 863.924,417.515 864.59,419.848 864.5,422.5C 863.076,420.485 862.41,418.152 862.5,415.5 Z"/></g>
<g><path style="opacity:1" fill="#df7b43" d="M 864.5,424.5 C 866.635,431.209 867.635,438.209 867.5,445.5C 865.625,438.755 864.625,431.755 864.5,424.5 Z"/></g>
<g><path style="opacity:1" fill="#f69119" d="M 865.5,499.5 C 855.619,558.642 834.786,613.642 803,664.5C 763.386,728.79 713.219,783.623 652.5,829C 645.97,834.098 638.97,838.431 631.5,842C 621.241,845.784 613.408,842.951 608,833.5C 603.578,819.748 602.411,805.748 604.5,791.5C 616.837,786.833 628.837,781.333 640.5,775C 688.908,746.954 731.741,711.788 769,669.5C 812.782,619.622 844.949,562.956 865.5,499.5 Z"/></g>
</svg>
