<?xml version="1.0" encoding="UTF-8"?>
<!DOCTYPE svg PUBLIC "-//W3C//DTD SVG 1.1//EN" "http://www.w3.org/Graphics/SVG/1.1/DTD/svg11.dtd">
<svg xmlns="http://www.w3.org/2000/svg" version="1.1" width="1480px" height="1273px" style="shape-rendering:geometricPrecision; text-rendering:geometricPrecision; image-rendering:optimizeQuality; fill-rule:evenodd; clip-rule:evenodd" xmlns:xlink="http://www.w3.org/1999/xlink">
<g><path style="opacity:0.998" fill="#003874" d="M 710.5,-0.5 C 729.833,-0.5 749.167,-0.5 768.5,-0.5C 904.868,4.34506 1032.53,40.1784 1151.5,107C 1249.52,163.124 1329.35,238.624 1391,333.5C 1444.52,418.885 1474.02,511.885 1479.5,612.5C 1479.5,628.167 1479.5,643.833 1479.5,659.5C 1472.3,781.626 1431.47,890.959 1357,987.5C 1285.26,1077.91 1197.1,1147.41 1092.5,1196C 992.041,1241.95 886.708,1267.45 776.5,1272.5C 752.167,1272.5 727.833,1272.5 703.5,1272.5C 565.949,1266.48 437.615,1228.98 318.5,1160C 231.99,1108.16 159.49,1041 101,958.5C 38.9156,867.414 5.08226,766.747 -0.5,656.5C -0.5,642.833 -0.5,629.167 -0.5,615.5C 6.27234,493.672 46.439,384.339 120,287.5C 193.298,194.437 283.798,123.271 391.5,74C 493.092,28.5175 599.425,3.68416 710.5,-0.5 Z"/></g>
<g><path style="opacity:1" fill="#ec1c24" d="M 821.5,384.5 C 800.727,405.102 781.227,426.769 763,449.5C 725.688,500.633 687.855,551.299 649.5,601.5C 649.5,577.5 649.5,553.5 649.5,529.5C 649.5,487.5 649.5,445.5 649.5,403.5C 649.333,337.166 649.5,270.832 650,204.5C 707,185.5 764,166.5 821,147.5C 821.5,226.499 821.667,305.499 821.5,384.5 Z"/></g>
<g><path style="opacity:1" fill="#fefefe" d="M 649.5,403.5 C 649.5,445.5 649.5,487.5 649.5,529.5C 594.59,499.81 535.924,482.644 473.5,478C 427.78,475.664 383.78,482.997 341.5,500C 271.325,532.562 240.825,587.396 250,664.5C 259.981,704.812 283.148,734.979 319.5,755C 373.051,782.488 427.718,784.821 483.5,762C 509.741,750.058 533.408,734.392 554.5,715C 590.142,680.218 621.808,642.385 649.5,601.5C 687.855,551.299 725.688,500.633 763,449.5C 781.227,426.769 800.727,405.102 821.5,384.5C 842.669,365.505 865.669,349.005 890.5,335C 963.417,298.897 1038.08,294.897 1114.5,323C 1162.28,343.441 1201.11,374.941 1231,417.5C 1261.03,461.23 1280.86,509.23 1290.5,561.5C 1290.5,562.5 1290.5,563.5 1290.5,564.5C 1266.83,564.5 1243.17,564.5 1219.5,564.5C 1190.15,526.64 1151.48,504.474 1103.5,498C 1057.64,492.773 1014.97,502.106 975.5,526C 946.178,544.616 920.011,567.116 897,593.5C 870.419,624.57 845.586,656.903 822.5,690.5C 821.5,690.833 820.833,691.5 820.5,692.5C 778.63,751.892 733.13,808.559 684,862.5C 672.908,874.096 661.408,885.096 649.5,895.5C 570.75,963.552 481.416,982.052 381.5,951C 331.381,931.549 290.548,900.049 259,856.5C 212.162,786.638 188.662,709.471 188.5,625C 188.289,571.466 197.456,519.633 216,469.5C 230.893,430.015 253.06,395.348 282.5,365.5C 332.854,318.827 392.521,297.994 461.5,303C 519.508,311.014 570.841,333.68 615.5,371C 627.664,380.998 638.998,391.832 649.5,403.5 Z"/></g>
<g><path style="opacity:1" fill="#003874" d="M 649.5,529.5 C 649.5,553.5 649.5,577.5 649.5,601.5C 621.808,642.385 590.142,680.218 554.5,715C 533.408,734.392 509.741,750.058 483.5,762C 427.718,784.821 373.051,782.488 319.5,755C 283.148,734.979 259.981,704.812 250,664.5C 240.825,587.396 271.325,532.562 341.5,500C 383.78,482.997 427.78,475.664 473.5,478C 535.924,482.644 594.59,499.81 649.5,529.5 Z"/></g>
<g><path style="opacity:1" fill="#bdcbdb" d="M 1290.5,561.5 C 1291.43,562.568 1291.77,563.901 1291.5,565.5C 1267.33,565.831 1243.33,565.498 1219.5,564.5C 1243.17,564.5 1266.83,564.5 1290.5,564.5C 1290.5,563.5 1290.5,562.5 1290.5,561.5 Z"/></g>
<g><path style="opacity:1" fill="#ec1c24" d="M 820.5,692.5 C 821.495,705.323 821.829,718.323 821.5,731.5C 821.175,762.573 821.508,793.573 822.5,824.5C 823.162,908.879 822.496,993.046 820.5,1077C 763.502,1095.78 706.669,1114.94 650,1134.5C 649.5,1054.83 649.333,975.167 649.5,895.5C 661.408,885.096 672.908,874.096 684,862.5C 733.13,808.559 778.63,751.892 820.5,692.5 Z"/></g>
<g><path style="opacity:1" fill="#8e2b48" d="M 822.5,690.5 C 822.5,704.167 822.5,717.833 822.5,731.5C 822.167,731.5 821.833,731.5 821.5,731.5C 821.829,718.323 821.495,705.323 820.5,692.5C 820.833,691.5 821.5,690.833 822.5,690.5 Z"/></g>
<g><path style="opacity:1" fill="#fefefe" d="M 822.5,824.5 C 821.508,793.573 821.175,762.573 821.5,731.5C 821.833,731.5 822.167,731.5 822.5,731.5C 860.956,752.062 900.623,769.895 941.5,785C 1011.4,806.148 1079.73,801.815 1146.5,772C 1170.47,760.696 1190.97,744.863 1208,724.5C 1213.79,717.095 1218.95,709.262 1223.5,701C 1247.5,700.5 1271.5,700.333 1295.5,700.5C 1288.85,761.775 1268.68,818.108 1235,869.5C 1195.2,925.335 1141.04,957.501 1072.5,966C 1015.15,972.938 963.153,959.605 916.5,926C 879.021,897.694 847.687,863.86 822.5,824.5 Z"/></g>
</svg>
