<?xml version="1.0" encoding="UTF-8"?>
<!DOCTYPE svg PUBLIC "-//W3C//DTD SVG 1.1//EN" "http://www.w3.org/Graphics/SVG/1.1/DTD/svg11.dtd">
<svg xmlns="http://www.w3.org/2000/svg" version="1.1" width="2560px" height="894px" style="shape-rendering:geometricPrecision; text-rendering:geometricPrecision; image-rendering:optimizeQuality; fill-rule:evenodd; clip-rule:evenodd" xmlns:xlink="http://www.w3.org/1999/xlink">
<g><path style="opacity:0.998" fill="#00b5ef" d="M 416.5,11.5 C 562.827,6.10474 683.66,58.4381 779,168.5C 861.875,273.321 892.541,391.987 871,524.5C 843.589,658.174 771.089,759.007 653.5,827C 602.216,854.928 547.549,872.095 489.5,878.5C 488.167,772.833 488.167,667.167 489.5,561.5C 534.959,541.934 561.125,507.601 568,458.5C 570.7,400.267 546.2,358.101 494.5,332C 438.17,311.062 389.67,322.562 349,366.5C 315.181,411.741 311.515,459.408 338,509.5C 353.139,533.136 373.639,550.47 399.5,561.5C 400.833,667.167 400.833,772.833 399.5,878.5C 251.372,858.741 139.872,784.741 65,656.5C 7.22218,547.162 -4.11115,433.162 31,314.5C 72.0569,192.777 150.557,104.277 266.5,49C 314.487,28.0033 364.487,15.5033 416.5,11.5 Z"/></g>
<g><path style="opacity:0.997" fill="#281f74" d="M 1298.5,13.5 C 1378.5,10.5833 1452.84,29.4167 1521.5,70C 1541.77,82.4367 1559.77,97.6034 1575.5,115.5C 1548.75,165.992 1521.75,216.326 1494.5,266.5C 1455.88,229.679 1410.54,204.512 1358.5,191C 1331.55,184.352 1304.55,184.019 1277.5,190C 1254.44,195.428 1235.94,207.595 1222,226.5C 1203.76,259.993 1209.6,288.493 1239.5,312C 1257.53,325.024 1276.87,336.024 1297.5,345C 1345.09,364.292 1392.09,384.959 1438.5,407C 1476.26,426.087 1509.42,451.254 1538,482.5C 1576,530.463 1592,585.13 1586,646.5C 1575.92,739.231 1529.42,806.398 1446.5,848C 1401.36,868.129 1354.02,877.962 1304.5,877.5C 1198.81,876.785 1106.14,842.285 1026.5,774C 1018.8,766.636 1011.47,758.97 1004.5,751C 1037.81,704.197 1071.48,657.697 1105.5,611.5C 1145.73,651.464 1193.07,679.964 1247.5,697C 1276.1,705.206 1305.1,707.206 1334.5,703C 1357.17,699.587 1375.67,689.087 1390,671.5C 1412.84,634.385 1407.34,602.218 1373.5,575C 1356.49,562.822 1338.49,552.155 1319.5,543C 1286.17,528.333 1252.83,513.667 1219.5,499C 1176.78,480.534 1137.44,456.867 1101.5,428C 1039.77,372.137 1016.27,302.97 1031,220.5C 1047,145.964 1088.16,90.1309 1154.5,53C 1199.61,28.9007 1247.61,15.734 1298.5,13.5 Z"/></g>
<g><path style="opacity:0.997" fill="#281f74" d="M 1664.5,26.5 C 1775.83,26.3333 1887.17,26.5 1998.5,27C 2049.48,29.5737 2096.81,43.907 2140.5,70C 2204.23,113.431 2236.23,174.098 2236.5,252C 2236.3,319.713 2210.96,375.713 2160.5,420C 2213.76,449.953 2247.59,494.786 2262,554.5C 2273.83,608.716 2269.83,661.716 2250,713.5C 2223.53,772.301 2180.36,813.801 2120.5,838C 2082.59,853.049 2043.26,861.715 2002.5,864C 1889.83,864.5 1777.17,864.667 1664.5,864.5C 1664.5,585.167 1664.5,305.833 1664.5,26.5 Z M 1842.5,183.5 C 1884.83,183.333 1927.17,183.5 1969.5,184C 1997.33,183.157 2020.5,192.99 2039,213.5C 2054.28,237.408 2059.28,263.408 2054,291.5C 2048.28,324.882 2028.78,344.715 1995.5,351C 1990.53,351.886 1985.53,352.552 1980.5,353C 1962.17,353.5 1943.84,353.667 1925.5,353.5C 1925.5,405.167 1925.5,456.833 1925.5,508.5C 1948.84,508.333 1972.17,508.5 1995.5,509C 2035.31,512.296 2063.81,531.796 2081,567.5C 2090.35,596.972 2089.01,625.972 2077,654.5C 2063.46,680.703 2042.29,697.203 2013.5,704C 2005.91,705.561 1998.24,706.561 1990.5,707C 1941.17,707.5 1891.83,707.667 1842.5,707.5C 1842.5,532.833 1842.5,358.167 1842.5,183.5 Z"/></g>
<g><path style="opacity:0.997" fill="#291f75" d="M 2350.5,26.5 C 2413.17,26.5 2475.83,26.5 2538.5,26.5C 2538.5,306.167 2538.5,585.833 2538.5,865.5C 2475.83,865.5 2413.17,865.5 2350.5,865.5C 2350.5,585.833 2350.5,306.167 2350.5,26.5 Z"/></g>
</svg>
