<?xml version="1.0" encoding="UTF-8"?>
<!DOCTYPE svg PUBLIC "-//W3C//DTD SVG 1.1//EN" "http://www.w3.org/Graphics/SVG/1.1/DTD/svg11.dtd">
<svg xmlns="http://www.w3.org/2000/svg" version="1.1" width="512px" height="512px" style="shape-rendering:geometricPrecision; text-rendering:geometricPrecision; image-rendering:optimizeQuality; fill-rule:evenodd; clip-rule:evenodd" xmlns:xlink="http://www.w3.org/1999/xlink">
<g><path style="opacity:0.78" fill="#96b3d3" d="M 99.5,175.5 C 99.5,175.833 99.5,176.167 99.5,176.5C 94.1667,176.5 88.8333,176.5 83.5,176.5C 83.5,176.167 83.5,175.833 83.5,175.5C 88.7337,174.198 94.0671,174.198 99.5,175.5 Z"/></g>
<g><path style="opacity:0.263" fill="#f4e9e9" d="M 83.5,175.5 C 83.5,175.833 83.5,176.167 83.5,176.5C 80.8333,176.833 78.1667,177.167 75.5,177.5C 77.8383,175.96 80.5049,175.294 83.5,175.5 Z"/></g>
<g><path style="opacity:1" fill="#0b5fa8" d="M 83.5,176.5 C 88.8333,176.5 94.1667,176.5 99.5,176.5C 101.764,177.219 104.097,177.552 106.5,177.5C 107.287,179.104 108.62,179.771 110.5,179.5C 111.659,181.25 113.326,182.25 115.5,182.5C 117.5,185.167 119.833,187.5 122.5,189.5C 123.326,192.485 124.659,195.151 126.5,197.5C 127.756,206.492 127.756,215.492 126.5,224.5C 124.062,230.845 122.395,237.511 121.5,244.5C 119.268,250.554 117.602,256.887 116.5,263.5C 114.5,264.833 112.833,266.5 111.5,268.5C 111.167,268.5 110.833,268.5 110.5,268.5C 106.968,268.69 103.635,268.023 100.5,266.5C 99.4208,262.865 99.4208,259.199 100.5,255.5C 100.5,255.167 100.5,254.833 100.5,254.5C 101.924,252.485 102.59,250.152 102.5,247.5C 104.13,243.774 105.13,239.774 105.5,235.5C 105.5,235.167 105.5,234.833 105.5,234.5C 107.163,232.562 107.829,230.228 107.5,227.5C 107.5,227.167 107.5,226.833 107.5,226.5C 109.498,222.874 110.498,218.874 110.5,214.5C 110.5,214.167 110.5,213.833 110.5,213.5C 111.833,211.167 111.833,208.833 110.5,206.5C 110.49,200.786 107.823,197.12 102.5,195.5C 101.365,193.787 99.698,193.12 97.5,193.5C 92.8333,192.167 88.1667,192.167 83.5,193.5C 81.302,193.12 79.6354,193.787 78.5,195.5C 75.911,195.461 73.911,196.461 72.5,198.5C 70.5956,198.738 69.2623,199.738 68.5,201.5C 65.6356,203.023 63.969,205.357 63.5,208.5C 61.6301,211.809 60.6301,215.475 60.5,219.5C 58.9605,221.838 58.2938,224.505 58.5,227.5C 56.0312,232.814 54.3645,238.481 53.5,244.5C 51.8333,245.5 50.5,246.833 49.5,248.5C 45.2953,248.809 41.2953,248.143 37.5,246.5C 37.4376,240.727 38.1043,235.061 39.5,229.5C 41.3699,226.191 42.3699,222.525 42.5,218.5C 44.0395,216.162 44.7062,213.495 44.5,210.5C 46.1007,207.45 47.1007,204.116 47.5,200.5C 48.9063,200.027 49.573,199.027 49.5,197.5C 54.1667,192.167 59.1667,187.167 64.5,182.5C 66.8185,182.008 68.8185,181.008 70.5,179.5C 72.5529,179.598 74.2196,178.931 75.5,177.5C 78.1667,177.167 80.8333,176.833 83.5,176.5 Z"/></g>
<g><path style="opacity:0.055" fill="#e5e7ed" d="M 99.5,176.5 C 99.5,176.167 99.5,175.833 99.5,175.5C 102.152,175.41 104.485,176.076 106.5,177.5C 104.097,177.552 101.764,177.219 99.5,176.5 Z"/></g>
<g><path style="opacity:0.102" fill="#f4eaea" d="M 75.5,177.5 C 74.2196,178.931 72.5529,179.598 70.5,179.5C 71.7804,178.069 73.4471,177.402 75.5,177.5 Z"/></g>
<g><path style="opacity:0.192" fill="#dfe2ea" d="M 106.5,177.5 C 108.38,177.229 109.713,177.896 110.5,179.5C 108.62,179.771 107.287,179.104 106.5,177.5 Z"/></g>
<g><path style="opacity:0.022" fill="#f2eff0" d="M 70.5,179.5 C 68.8185,181.008 66.8185,182.008 64.5,182.5C 65.911,180.461 67.911,179.461 70.5,179.5 Z"/></g>
<g><path style="opacity:0.027" fill="#e3e4ea" d="M 110.5,179.5 C 112.674,179.75 114.341,180.75 115.5,182.5C 113.326,182.25 111.659,181.25 110.5,179.5 Z"/></g>
<g><path style="opacity:0.004" fill="#eaebef" d="M 115.5,182.5 C 118.833,183.833 121.167,186.167 122.5,189.5C 119.833,187.5 117.5,185.167 115.5,182.5 Z"/></g>
<g><path style="opacity:0.055" fill="#f6dfde" d="M 31.5,192.5 C 27.5,191.167 23.5,191.167 19.5,192.5C 19.6107,191.883 19.944,191.383 20.5,191C 23.8333,190.333 27.1667,190.333 30.5,191C 31.056,191.383 31.3893,191.883 31.5,192.5 Z"/></g>
<g><path style="opacity:0.067" fill="#ced7e5" d="M 64.5,182.5 C 59.1667,187.167 54.1667,192.167 49.5,197.5C 52.4905,190.544 57.4905,185.544 64.5,182.5 Z"/></g>
<g><path style="opacity:1" fill="#ea2e23" d="M 31.5,192.5 C 32.0614,193.908 32.3948,195.408 32.5,197C 31.59,201.137 30.9233,205.304 30.5,209.5C 28.8819,212.171 28.2153,215.171 28.5,218.5C 26.4318,221.763 25.4318,225.43 25.5,229.5C 25.5,229.833 25.5,230.167 25.5,230.5C 23.7773,232.78 23.1107,235.447 23.5,238.5C 22.8826,238.611 22.3826,238.944 22,239.5C 21.8333,241.333 21.6667,243.167 21.5,245C 21.3603,248.15 22.027,250.983 23.5,253.5C 24.0536,257.055 26.0536,259.388 29.5,260.5C 43.89,266.966 56.7234,264.299 68,252.5C 69.3409,249.978 70.1743,247.311 70.5,244.5C 70.5,244.167 70.5,243.833 70.5,243.5C 72.0739,241.898 72.7406,239.898 72.5,237.5C 72.5,237.167 72.5,236.833 72.5,236.5C 74.3699,233.191 75.3699,229.525 75.5,225.5C 75.5,225.167 75.5,224.833 75.5,224.5C 77.0739,222.898 77.7406,220.898 77.5,218.5C 77.5,218.167 77.5,217.833 77.5,217.5C 78.8923,215.727 80.059,213.727 81,211.5C 82.8121,210.023 84.6455,208.69 86.5,207.5C 88.2837,206.28 89.9504,206.28 91.5,207.5C 93.1423,208.803 94.8089,210.136 96.5,211.5C 97.8333,213.167 97.8333,214.833 96.5,216.5C 94.7234,219.505 93.7234,222.838 93.5,226.5C 93.5,226.833 93.5,227.167 93.5,227.5C 91.8372,229.438 91.1706,231.772 91.5,234.5C 91.7678,236.099 91.4345,237.432 90.5,238.5C 88.3859,243.194 87.0526,248.194 86.5,253.5C 84.7549,255.033 83.7549,257.033 83.5,259.5C 78.0331,266.638 71.3665,272.305 63.5,276.5C 53.4981,280.004 43.1648,281.337 32.5,280.5C 30.4006,279.388 28.0673,278.721 25.5,278.5C 24.713,276.896 23.3797,276.229 21.5,276.5C 16.1275,272.129 11.4608,267.129 7.5,261.5C 4.92043,250.514 4.92043,239.514 7.5,228.5C 7.5,228.167 7.5,227.833 7.5,227.5C 10.2346,221.568 11.9013,215.234 12.5,208.5C 12.5,208.167 12.5,207.833 12.5,207.5C 14.1628,205.562 14.8294,203.228 14.5,200.5C 14.5,200.167 14.5,199.833 14.5,199.5C 15.9089,197.028 17.5756,194.695 19.5,192.5C 23.5,191.167 27.5,191.167 31.5,192.5 Z"/></g>
<g><path style="opacity:0.081" fill="#e8e8ec" d="M 83.5,193.5 C 88.1667,192.167 92.8333,192.167 97.5,193.5C 92.6827,193.709 88.0161,193.709 83.5,193.5 Z"/></g>
<g><path style="opacity:0.055" fill="#e9e9ed" d="M 97.5,193.5 C 99.698,193.12 101.365,193.787 102.5,195.5C 100.447,195.598 98.7804,194.931 97.5,193.5 Z"/></g>
<g><path style="opacity:0.224" fill="#f4e3e2" d="M 19.5,192.5 C 17.5756,194.695 15.9089,197.028 14.5,199.5C 14.4754,195.86 16.142,193.527 19.5,192.5 Z"/></g>
<g><path style="opacity:0.025" fill="#ede8eb" d="M 83.5,193.5 C 82.2196,194.931 80.5529,195.598 78.5,195.5C 79.6354,193.787 81.302,193.12 83.5,193.5 Z"/></g>
<g><path style="opacity:0.086" fill="#e9eaee" d="M 78.5,195.5 C 76.8185,197.008 74.8185,198.008 72.5,198.5C 73.911,196.461 75.911,195.461 78.5,195.5 Z"/></g>
<g><path style="opacity:0.086" fill="#e1e4ea" d="M 122.5,189.5 C 124.873,191.579 126.206,194.246 126.5,197.5C 124.659,195.151 123.326,192.485 122.5,189.5 Z"/></g>
<g><path style="opacity:0.014" fill="#eaebee" d="M 102.5,195.5 C 107.823,197.12 110.49,200.786 110.5,206.5C 108.249,202.575 105.583,198.908 102.5,195.5 Z"/></g>
<g><path style="opacity:0.141" fill="#f5e2e1" d="M 194.5,219.5 C 195.888,212.56 196.888,205.56 197.5,198.5C 193.833,198.5 190.167,198.5 186.5,198.5C 186.737,199.791 186.404,200.791 185.5,201.5C 184.209,200.527 184.209,199.527 185.5,198.5C 190.12,197.507 194.786,197.173 199.5,197.5C 198.579,205.12 196.912,212.453 194.5,219.5 Z"/></g>
<g><path style="opacity:0.141" fill="#f5e8e8" d="M 254.5,202.5 C 254.5,201.167 254.5,199.833 254.5,198.5C 250.774,198.177 247.107,198.511 243.5,199.5C 242.972,201.336 242.306,203.003 241.5,204.5C 241.318,202.409 241.652,200.409 242.5,198.5C 246.783,197.508 251.116,197.174 255.5,197.5C 255.784,199.415 255.451,201.081 254.5,202.5 Z"/></g>
<g><path style="opacity:0.141" fill="#f5e0df" d="M 388.5,203.5 C 387.038,202.542 385.705,201.376 384.5,200C 373.808,198.267 363.142,198.1 352.5,199.5C 357.119,198.172 362.119,197.506 367.5,197.5C 372.5,197.667 377.5,197.833 382.5,198C 385.647,198.649 387.647,200.482 388.5,203.5 Z"/></g>
<g><path style="opacity:0.141" fill="#f6dbd9" d="M 481.5,213.5 C 481.842,208.452 482.508,203.452 483.5,198.5C 480.15,198.335 476.817,198.502 473.5,199C 472.93,201.756 471.93,204.256 470.5,206.5C 470.963,203.518 471.296,200.518 471.5,197.5C 475.833,197.5 480.167,197.5 484.5,197.5C 484.559,203.16 483.559,208.494 481.5,213.5 Z"/></g>
<g><path style="opacity:0.161" fill="#e2e3ea" d="M 49.5,197.5 C 49.573,199.027 48.9063,200.027 47.5,200.5C 47.427,198.973 48.0937,197.973 49.5,197.5 Z"/></g>
<g><path style="opacity:0.027" fill="#eeeef0" d="M 72.5,198.5 C 71.7377,200.262 70.4044,201.262 68.5,201.5C 69.2623,199.738 70.5956,198.738 72.5,198.5 Z"/></g>
<g><path style="opacity:1" fill="#ea2e23" d="M 169.5,213.5 C 168.022,217.285 166.855,221.285 166,225.5C 164.508,233.846 167.675,236.513 175.5,233.5C 179.459,231.927 181.125,228.927 180.5,224.5C 181.451,223.081 181.784,221.415 181.5,219.5C 183.011,216.456 183.678,213.122 183.5,209.5C 185.223,207.22 185.889,204.553 185.5,201.5C 186.404,200.791 186.737,199.791 186.5,198.5C 190.167,198.5 193.833,198.5 197.5,198.5C 196.888,205.56 195.888,212.56 194.5,219.5C 192.763,223.542 191.763,227.876 191.5,232.5C 189.674,234.147 188.34,236.147 187.5,238.5C 187.5,239.167 187.167,239.5 186.5,239.5C 178.457,244.375 169.791,245.708 160.5,243.5C 160.027,242.094 159.027,241.427 157.5,241.5C 156.928,239.745 156.094,238.078 155,236.5C 154.501,230.484 154.668,224.484 155.5,218.5C 157.53,212.384 159.197,206.05 160.5,199.5C 164.107,198.511 167.774,198.177 171.5,198.5C 170.673,203.477 170.006,208.477 169.5,213.5 Z"/></g>
<g><path style="opacity:1" fill="#eb3327" d="M 254.5,202.5 C 253.661,203.641 252.994,204.974 252.5,206.5C 250.667,206.833 248.833,207.167 247,207.5C 244.705,207.453 242.871,206.787 241.5,205.5C 241.5,205.167 241.5,204.833 241.5,204.5C 242.306,203.003 242.972,201.336 243.5,199.5C 247.107,198.511 250.774,198.177 254.5,198.5C 254.5,199.833 254.5,201.167 254.5,202.5 Z"/></g>
<g><path style="opacity:1" fill="#eb3225" d="M 388.5,203.5 C 389.833,206.167 389.833,208.833 388.5,211.5C 387.091,213.972 385.424,216.305 383.5,218.5C 382.325,218.281 381.325,218.614 380.5,219.5C 382.186,220.857 383.852,222.19 385.5,223.5C 386.833,226.167 386.833,228.833 385.5,231.5C 383.244,235.097 380.577,238.431 377.5,241.5C 375.447,241.402 373.78,242.069 372.5,243.5C 372.167,243.5 371.833,243.5 371.5,243.5C 362.5,243.5 353.5,243.5 344.5,243.5C 344.5,241.5 344.5,239.5 344.5,237.5C 346.344,233.138 347.344,228.471 347.5,223.5C 347.5,223.167 347.5,222.833 347.5,222.5C 349.04,220.162 349.706,217.495 349.5,214.5C 351.118,209.744 352.118,204.744 352.5,199.5C 363.142,198.1 373.808,198.267 384.5,200C 385.705,201.376 387.038,202.542 388.5,203.5 Z M 375.5,208.5 C 375.5,208.833 375.5,209.167 375.5,209.5C 375.634,211.292 375.301,212.958 374.5,214.5C 373.508,214.328 372.842,214.662 372.5,215.5C 369.167,215.5 365.833,215.5 362.5,215.5C 362.148,212.927 362.648,210.594 364,208.5C 367.841,208.703 371.674,208.703 375.5,208.5 Z M 372.5,225.5 C 372.833,226.167 373.167,226.833 373.5,227.5C 372.89,228.391 372.557,229.391 372.5,230.5C 372.672,231.492 372.338,232.158 371.5,232.5C 367.232,233.373 362.898,233.706 358.5,233.5C 358.5,232.5 358.5,231.5 358.5,230.5C 358.5,229.5 358.5,228.5 358.5,227.5C 362.854,225.652 367.52,224.985 372.5,225.5 Z"/></g>
<g><path style="opacity:1" fill="#ea3024" d="M 481.5,213.5 C 479.912,215.527 479.412,217.861 480,220.5C 483.799,217.703 487.299,214.536 490.5,211C 494.833,210.333 499.167,210.333 503.5,211C 501.959,212.371 500.625,213.871 499.5,215.5C 496.269,217.22 493.436,219.553 491,222.5C 490.308,223.437 490.475,224.103 491.5,224.5C 491.402,226.553 492.069,228.22 493.5,229.5C 494.404,230.209 494.737,231.209 494.5,232.5C 494.402,234.553 495.069,236.22 496.5,237.5C 496.833,239.5 497.167,241.5 497.5,243.5C 493.5,243.5 489.5,243.5 485.5,243.5C 484.737,239.863 483.403,236.53 481.5,233.5C 481.649,232.448 481.483,231.448 481,230.5C 479.981,231.687 478.814,232.687 477.5,233.5C 476.571,234.689 476.238,236.022 476.5,237.5C 475.262,239.214 474.595,241.214 474.5,243.5C 470.351,244.08 466.684,243.414 463.5,241.5C 463.5,240.833 463.5,240.167 463.5,239.5C 465.04,237.162 465.706,234.495 465.5,231.5C 465.5,231.167 465.5,230.833 465.5,230.5C 466.222,230.082 466.722,229.416 467,228.5C 468.235,221.829 469.401,215.162 470.5,208.5C 470.5,207.833 470.5,207.167 470.5,206.5C 471.93,204.256 472.93,201.756 473.5,199C 476.817,198.502 480.15,198.335 483.5,198.5C 482.508,203.452 481.842,208.452 481.5,213.5 Z"/></g>
<g><path style="opacity:0.02" fill="#eee9ec" d="M 47.5,200.5 C 47.1007,204.116 46.1007,207.45 44.5,210.5C 44.5902,206.786 45.5902,203.452 47.5,200.5 Z"/></g>
<g><path style="opacity:0.102" fill="#f7cdca" d="M 31.5,192.5 C 33.1852,193.184 34.1852,194.517 34.5,196.5C 33.657,201.11 32.3237,205.444 30.5,209.5C 30.9233,205.304 31.59,201.137 32.5,197C 32.3948,195.408 32.0614,193.908 31.5,192.5 Z"/></g>
<g><path style="opacity:0.086" fill="#f5ebeb" d="M 14.5,200.5 C 14.8294,203.228 14.1628,205.562 12.5,207.5C 12.4095,204.848 13.0762,202.515 14.5,200.5 Z"/></g>
<g><path style="opacity:0.022" fill="#e4e7ed" d="M 68.5,201.5 C 67.2141,204.117 65.5475,206.45 63.5,208.5C 63.969,205.357 65.6356,203.023 68.5,201.5 Z"/></g>
<g><path style="opacity:0.424" fill="#c4d1e1" d="M 126.5,197.5 C 127.222,197.918 127.722,198.584 128,199.5C 130.205,208.129 129.705,216.463 126.5,224.5C 127.756,215.492 127.756,206.492 126.5,197.5 Z"/></g>
<g><path style="opacity:0.071" fill="#f6e1df" d="M 185.5,201.5 C 185.889,204.553 185.223,207.22 183.5,209.5C 183.294,206.505 183.96,203.838 185.5,201.5 Z"/></g>
<g><path style="opacity:0.086" fill="#f6dbd9" d="M 91.5,207.5 C 94.3667,207.369 96.0334,208.703 96.5,211.5C 94.8089,210.136 93.1423,208.803 91.5,207.5 Z"/></g>
<g><path style="opacity:0.141" fill="#f5e1e0" d="M 254.5,202.5 C 253.224,213.195 250.891,223.861 247.5,234.5C 248.961,226.526 250.295,218.526 251.5,210.5C 247.833,210.5 244.167,210.5 240.5,210.5C 239.95,216.455 238.616,222.122 236.5,227.5C 237.565,219.918 239.231,212.584 241.5,205.5C 242.871,206.787 244.705,207.453 247,207.5C 248.833,207.167 250.667,206.833 252.5,206.5C 252.994,204.974 253.661,203.641 254.5,202.5 Z"/></g>
<g><path style="opacity:0.161" fill="#ede8eb" d="M 110.5,206.5 C 111.833,208.833 111.833,211.167 110.5,213.5C 109.927,211.456 109.927,209.123 110.5,206.5 Z"/></g>
<g><path style="opacity:0.4" fill="#f6d2d0" d="M 284.5,210.5 C 278.18,209.212 271.847,209.212 265.5,210.5C 271.127,207.156 277.127,206.656 283.5,209C 284.056,209.383 284.389,209.883 284.5,210.5 Z"/></g>
<g><path style="opacity:0.067" fill="#f7dedc" d="M 325.5,229.5 C 326.302,223.848 326.469,218.182 326,212.5C 325.097,211.299 323.931,210.465 322.5,210C 318.463,209.393 314.463,209.56 310.5,210.5C 312.634,208.967 315.134,208.3 318,208.5C 324.513,207.683 328.013,210.517 328.5,217C 327.969,221.409 326.969,225.575 325.5,229.5 Z"/></g>
<g><path style="opacity:0.025" fill="#f6e6e5" d="M 459.5,210.5 C 454.848,209.238 450.181,209.238 445.5,210.5C 447.634,208.967 450.134,208.3 453,208.5C 454.833,208.667 456.667,208.833 458.5,209C 459.056,209.383 459.389,209.883 459.5,210.5 Z"/></g>
<g><path style="opacity:0.004" fill="#f6e0de" d="M 499.5,215.5 C 500.625,213.871 501.959,212.371 503.5,211C 499.167,210.333 494.833,210.333 490.5,211C 487.299,214.536 483.799,217.703 480,220.5C 479.412,217.861 479.912,215.527 481.5,213.5C 481.351,214.552 481.517,215.552 482,216.5C 485.13,214.372 487.963,211.872 490.5,209C 495.155,208.501 499.821,208.334 504.5,208.5C 504.759,212.237 503.093,214.57 499.5,215.5 Z"/></g>
<g><path style="opacity:0.141" fill="#f6e5e4" d="M 86.5,207.5 C 84.6455,208.69 82.8121,210.023 81,211.5C 80.059,213.727 78.8923,215.727 77.5,217.5C 77.7636,211.608 80.7636,208.274 86.5,207.5 Z"/></g>
<g><path style="opacity:0.016" fill="#f6e2e1" d="M 232.5,213.5 C 226.069,208.19 219.569,208.19 213,213.5C 212.517,212.552 212.351,211.552 212.5,210.5C 208.833,210.5 205.167,210.5 201.5,210.5C 201.611,209.883 201.944,209.383 202.5,209C 206.167,208.333 209.833,208.333 213.5,209C 214.656,210.615 215.989,210.615 217.5,209C 221.167,208.333 224.833,208.333 228.5,209C 230.751,209.748 232.084,211.248 232.5,213.5 Z"/></g>
<g><path style="opacity:1" fill="#eb3427" d="M 284.5,210.5 C 285.833,212.5 287.5,214.167 289.5,215.5C 291.082,225.876 288.082,234.542 280.5,241.5C 273.733,244.477 266.733,245.143 259.5,243.5C 257.471,241.142 255.471,238.808 253.5,236.5C 253.437,231.797 253.771,227.13 254.5,222.5C 255.674,221.486 256.34,220.153 256.5,218.5C 259.526,215.805 262.526,213.138 265.5,210.5C 271.847,209.212 278.18,209.212 284.5,210.5 Z M 276.5,219.5 C 275.185,220.895 275.519,221.895 277.5,222.5C 277.552,224.903 277.219,227.236 276.5,229.5C 274.725,234.156 271.559,235.823 267,234.5C 265.248,229.256 266.081,224.423 269.5,220C 271.895,218.402 274.228,218.236 276.5,219.5 Z"/></g>
<g><path style="opacity:0.29" fill="#f4d8d7" d="M 310.5,210.5 C 308.717,214.06 307.717,214.06 307.5,210.5C 303.833,210.5 300.167,210.5 296.5,210.5C 297.871,209.213 299.705,208.547 302,208.5C 305.104,208.362 307.938,209.029 310.5,210.5 Z"/></g>
<g><path style="opacity:0.067" fill="#f5e2e2" d="M 419.5,210.5 C 413.174,209.221 406.841,209.221 400.5,210.5C 400.918,209.778 401.584,209.278 402.5,209C 407.5,208.333 412.5,208.333 417.5,209C 418.416,209.278 419.082,209.778 419.5,210.5 Z"/></g>
<g><path style="opacity:0.055" fill="#f6d8d6" d="M 445.5,210.5 C 444.542,211.962 443.376,213.295 442,214.5C 441.508,213.451 441.674,212.451 442.5,211.5C 438.221,210.016 434.221,210.35 430.5,212.5C 430.33,211.178 430.663,210.011 431.5,209C 436.42,208.037 441.087,208.537 445.5,210.5 Z"/></g>
<g><path style="opacity:0.02" fill="#e9e9ed" d="M 44.5,210.5 C 44.7062,213.495 44.0395,216.162 42.5,218.5C 42.67,217.178 42.3366,216.011 41.5,215C 42.7811,213.591 43.7811,212.091 44.5,210.5 Z"/></g>
<g><path style="opacity:1" fill="#eb3326" d="M 232.5,213.5 C 233.833,216.167 233.833,218.833 232.5,221.5C 230.443,225.802 229.443,230.469 229.5,235.5C 227.96,237.838 227.294,240.505 227.5,243.5C 223.833,243.5 220.167,243.5 216.5,243.5C 216.5,241.833 216.5,240.167 216.5,238.5C 216.5,238.167 216.5,237.833 216.5,237.5C 217.913,234.781 218.58,231.781 218.5,228.5C 220.175,225.493 220.841,222.16 220.5,218.5C 211.601,218.081 207.934,222.414 209.5,231.5C 207.87,235.226 206.87,239.226 206.5,243.5C 202.833,243.5 199.167,243.5 195.5,243.5C 196.159,240.545 196.492,237.545 196.5,234.5C 196.5,234.167 196.5,233.833 196.5,233.5C 198.118,230.829 198.785,227.829 198.5,224.5C 200.502,220.167 201.502,215.5 201.5,210.5C 205.167,210.5 208.833,210.5 212.5,210.5C 212.351,211.552 212.517,212.552 213,213.5C 219.569,208.19 226.069,208.19 232.5,213.5 Z"/></g>
<g><path style="opacity:1" fill="#ea3125" d="M 325.5,229.5 C 323.656,233.862 322.656,238.529 322.5,243.5C 318.833,243.5 315.167,243.5 311.5,243.5C 312.284,236.13 313.284,228.796 314.5,221.5C 314.5,221.167 314.5,220.833 314.5,220.5C 314.03,219.307 313.03,218.64 311.5,218.5C 309.645,218.34 308.312,219.007 307.5,220.5C 305.896,221.287 305.229,222.62 305.5,224.5C 305.5,225.167 305.5,225.833 305.5,226.5C 304.883,226.611 304.383,226.944 304,227.5C 303.358,231.491 302.858,235.491 302.5,239.5C 301.566,240.568 301.232,241.901 301.5,243.5C 297.833,243.5 294.167,243.5 290.5,243.5C 290.833,240.167 291.167,236.833 291.5,233.5C 293.785,226.087 295.451,218.42 296.5,210.5C 300.167,210.5 303.833,210.5 307.5,210.5C 307.717,214.06 308.717,214.06 310.5,210.5C 314.463,209.56 318.463,209.393 322.5,210C 323.931,210.465 325.097,211.299 326,212.5C 326.469,218.182 326.302,223.848 325.5,229.5 Z"/></g>
<g><path style="opacity:0.092" fill="#f7dfdd" d="M 352.5,199.5 C 352.118,204.744 351.118,209.744 349.5,214.5C 350.05,210.855 350.05,207.689 349.5,205C 350.869,203.281 351.869,201.448 352.5,199.5 Z"/></g>
<g><path style="opacity:1" fill="#ea3025" d="M 419.5,210.5 C 420.122,211.627 420.955,212.627 422,213.5C 422.498,218.519 422.332,223.519 421.5,228.5C 421.5,228.833 421.5,229.167 421.5,229.5C 420.732,230.263 420.232,231.263 420,232.5C 419.501,236.152 419.335,239.818 419.5,243.5C 415.833,243.5 412.167,243.5 408.5,243.5C 408.649,242.448 408.483,241.448 408,240.5C 403.014,244.393 397.514,245.393 391.5,243.5C 387.078,236.698 388.078,230.698 394.5,225.5C 398.397,224.945 402.063,223.945 405.5,222.5C 405.833,222.5 406.167,222.5 406.5,222.5C 409.571,223.075 411.571,221.909 412.5,219C 410.231,216.001 407.897,215.834 405.5,218.5C 401.214,220.591 396.881,220.924 392.5,219.5C 392.5,219.167 392.5,218.833 392.5,218.5C 394.633,216.909 396.299,214.909 397.5,212.5C 399.027,212.573 400.027,211.906 400.5,210.5C 406.841,209.221 413.174,209.221 419.5,210.5 Z M 406.5,229.5 C 406.833,229.5 407.167,229.5 407.5,229.5C 408.492,229.328 409.158,229.662 409.5,230.5C 409.5,230.833 409.5,231.167 409.5,231.5C 408.49,233.838 406.823,235.504 404.5,236.5C 403.041,236.567 401.708,236.234 400.5,235.5C 400.433,234.041 400.766,232.708 401.5,231.5C 402.167,231.167 402.833,230.833 403.5,230.5C 404.779,231.715 405.779,231.382 406.5,229.5 Z"/></g>
<g><path style="opacity:1" fill="#ea2f24" d="M 459.5,210.5 C 461.183,214.631 461.85,218.964 461.5,223.5C 459.673,229.67 458.007,236.004 456.5,242.5C 452.893,243.489 449.226,243.823 445.5,243.5C 445.5,242.5 445.5,241.5 445.5,240.5C 445.5,240.167 445.5,239.833 445.5,239.5C 448.454,232.925 449.787,225.925 449.5,218.5C 446.881,218.232 444.381,218.565 442,219.5C 438.625,227.13 436.792,235.13 436.5,243.5C 432.833,243.5 429.167,243.5 425.5,243.5C 425.5,241.5 425.5,239.5 425.5,237.5C 425.5,237.167 425.5,236.833 425.5,236.5C 427.118,233.829 427.785,230.829 427.5,227.5C 429.451,222.816 430.451,217.816 430.5,212.5C 434.221,210.35 438.221,210.016 442.5,211.5C 441.674,212.451 441.508,213.451 442,214.5C 443.376,213.295 444.542,211.962 445.5,210.5C 450.181,209.238 454.848,209.238 459.5,210.5 Z"/></g>
<g><path style="opacity:0.016" fill="#f6e5e4" d="M 12.5,208.5 C 11.9013,215.234 10.2346,221.568 7.5,227.5C 8.07095,221.08 9.73762,214.747 12.5,208.5 Z"/></g>
<g><path style="opacity:1" fill="#ea3025" d="M 247.5,234.5 C 247.5,234.833 247.5,235.167 247.5,235.5C 245.96,237.838 245.294,240.505 245.5,243.5C 241.833,243.5 238.167,243.5 234.5,243.5C 234.5,241.833 234.5,240.167 234.5,238.5C 234.5,238.167 234.5,237.833 234.5,237.5C 236.04,235.162 236.706,232.495 236.5,229.5C 236.5,228.833 236.5,228.167 236.5,227.5C 238.616,222.122 239.95,216.455 240.5,210.5C 244.167,210.5 247.833,210.5 251.5,210.5C 250.295,218.526 248.961,226.526 247.5,234.5 Z"/></g>
<g><path style="opacity:0.29" fill="#f6dedc" d="M 400.5,210.5 C 400.027,211.906 399.027,212.573 397.5,212.5C 397.973,211.094 398.973,210.427 400.5,210.5 Z"/></g>
<g><path style="opacity:0.161" fill="#f5ecec" d="M 183.5,209.5 C 183.678,213.122 183.011,216.456 181.5,219.5C 181.322,215.878 181.989,212.544 183.5,209.5 Z"/></g>
<g><path style="opacity:0.345" fill="#f6d0ce" d="M 265.5,210.5 C 262.526,213.138 259.526,215.805 256.5,218.5C 258.266,214.398 261.266,211.731 265.5,210.5 Z"/></g>
<g><path style="opacity:0.988" fill="#faa396" d="M 375.5,209.5 C 376.139,210.097 376.472,210.93 376.5,212C 376.316,213.376 375.649,214.209 374.5,214.5C 375.649,214.209 376.316,213.376 376.5,212C 376.472,210.93 376.139,210.097 375.5,209.5 Z"/></g>
<g><path style="opacity:0.018" fill="#e8e8ec" d="M 63.5,208.5 C 63.3699,212.525 62.3699,216.191 60.5,219.5C 60.6301,215.475 61.6301,211.809 63.5,208.5 Z"/></g>
<g><path style="opacity:0.086" fill="#f5e6e6" d="M 284.5,210.5 C 287.167,211.167 288.833,212.833 289.5,215.5C 287.5,214.167 285.833,212.5 284.5,210.5 Z"/></g>
<g><path style="opacity:0.102" fill="#f6e1e0" d="M 397.5,212.5 C 396.299,214.909 394.633,216.909 392.5,218.5C 393.247,215.638 394.914,213.638 397.5,212.5 Z"/></g>
<g><path style="opacity:0.475" fill="#f3857d" d="M 375.5,208.5 C 371.674,208.703 367.841,208.703 364,208.5C 362.648,210.594 362.148,212.927 362.5,215.5C 365.833,215.5 369.167,215.5 372.5,215.5C 369.038,216.482 365.371,216.815 361.5,216.5C 361.223,213.552 361.556,210.719 362.5,208C 367.02,207.186 371.354,207.353 375.5,208.5 Z"/></g>
<g><path style="opacity:0.008" fill="#f6e9e8" d="M 30.5,209.5 C 30.5797,212.781 29.913,215.781 28.5,218.5C 28.2153,215.171 28.8819,212.171 30.5,209.5 Z"/></g>
<g><path style="opacity:0.004" fill="#f6eeed" d="M 388.5,211.5 C 388.525,215.14 386.858,217.473 383.5,218.5C 385.424,216.305 387.091,213.972 388.5,211.5 Z"/></g>
<g><path style="opacity:0.263" fill="#f6dad7" d="M 459.5,210.5 C 463.839,214.205 464.505,218.539 461.5,223.5C 461.85,218.964 461.183,214.631 459.5,210.5 Z"/></g>
<g><path style="opacity:0.192" fill="#f5e0df" d="M 169.5,213.5 C 170.006,208.477 170.673,203.477 171.5,198.5C 167.774,198.177 164.107,198.511 160.5,199.5C 159.197,206.05 157.53,212.384 155.5,218.5C 156.198,211.708 157.531,205.041 159.5,198.5C 164.12,197.507 168.786,197.173 173.5,197.5C 172.584,203.051 171.25,208.385 169.5,213.5 Z"/></g>
<g><path style="opacity:0.016" fill="#f5ebeb" d="M 96.5,216.5 C 96.4098,220.214 95.4098,223.548 93.5,226.5C 93.7234,222.838 94.7234,219.505 96.5,216.5 Z"/></g>
<g><path style="opacity:0.033" fill="#e5e7ed" d="M 110.5,214.5 C 110.498,218.874 109.498,222.874 107.5,226.5C 107.67,225.178 107.337,224.011 106.5,223C 108.428,220.069 109.761,217.236 110.5,214.5 Z"/></g>
<g><path style="opacity:0.015" fill="#f5f3f3" d="M 314.5,220.5 C 312.208,219.314 309.874,219.314 307.5,220.5C 308.312,219.007 309.645,218.34 311.5,218.5C 313.03,218.64 314.03,219.307 314.5,220.5 Z"/></g>
<g><path style="opacity:0.086" fill="#f5e1e0" d="M 470.5,208.5 C 469.401,215.162 468.235,221.829 467,228.5C 466.722,229.416 466.222,230.082 465.5,230.5C 466.251,222.84 467.918,215.506 470.5,208.5 Z"/></g>
<g><path style="opacity:0.086" fill="#f5e3e3" d="M 77.5,218.5 C 77.7406,220.898 77.0739,222.898 75.5,224.5C 75.595,222.214 76.2616,220.214 77.5,218.5 Z"/></g>
<g><path style="opacity:0.161" fill="#f4eeef" d="M 256.5,218.5 C 256.34,220.153 255.674,221.486 254.5,222.5C 254.229,220.62 254.896,219.287 256.5,218.5 Z"/></g>
<g><path style="opacity:0.008" fill="#f6f7f6" d="M 276.5,219.5 C 277.404,220.209 277.737,221.209 277.5,222.5C 275.519,221.895 275.185,220.895 276.5,219.5 Z"/></g>
<g><path style="opacity:0.071" fill="#f6e9e9" d="M 349.5,214.5 C 349.706,217.495 349.04,220.162 347.5,222.5C 347.111,219.447 347.777,216.78 349.5,214.5 Z"/></g>
<g><path style="opacity:0.012" fill="#f6e6e5" d="M 499.5,215.5 C 496.833,218.5 494.167,221.5 491.5,224.5C 490.475,224.103 490.308,223.437 491,222.5C 493.436,219.553 496.269,217.22 499.5,215.5 Z"/></g>
<g><path style="opacity:0.027" fill="#f6d6d4" d="M 383.5,218.5 C 384.167,220.167 384.833,221.833 385.5,223.5C 383.852,222.19 382.186,220.857 380.5,219.5C 381.325,218.614 382.325,218.281 383.5,218.5 Z"/></g>
<g><path style="opacity:0.092" fill="#f5efef" d="M 181.5,219.5 C 181.784,221.415 181.451,223.081 180.5,224.5C 179.739,222.741 180.072,221.074 181.5,219.5 Z"/></g>
<g><path style="opacity:0.092" fill="#f6e2e1" d="M 201.5,210.5 C 201.502,215.5 200.502,220.167 198.5,224.5C 198.754,219.556 199.754,214.889 201.5,210.5 Z"/></g>
<g><path style="opacity:0.016" fill="#f6e3e2" d="M 307.5,220.5 C 307.771,222.38 307.104,223.713 305.5,224.5C 305.229,222.62 305.896,221.287 307.5,220.5 Z"/></g>
<g><path style="opacity:0.006" fill="#f5e5e4" d="M 405.5,218.5 C 405.056,220.113 404.056,221.28 402.5,222C 403.448,222.483 404.448,222.649 405.5,222.5C 402.063,223.945 398.397,224.945 394.5,225.5C 395.681,223.933 397.347,223.099 399.5,223C 396.549,222.904 393.882,222.071 391.5,220.5C 391.624,219.893 391.957,219.56 392.5,219.5C 396.881,220.924 401.214,220.591 405.5,218.5 Z"/></g>
<g><path style="opacity:0.055" fill="#f6e2e1" d="M 406.5,222.5 C 412.127,219.854 411.794,218.52 405.5,218.5C 407.897,215.834 410.231,216.001 412.5,219C 411.571,221.909 409.571,223.075 406.5,222.5 Z"/></g>
<g><path style="opacity:0.061" fill="#ede9ed" d="M 42.5,218.5 C 42.3699,222.525 41.3699,226.191 39.5,229.5C 39.7424,225.521 40.7424,221.854 42.5,218.5 Z"/></g>
<g><path style="opacity:0.022" fill="#eae7eb" d="M 60.5,219.5 C 60.7062,222.495 60.0395,225.162 58.5,227.5C 58.2938,224.505 58.9605,221.838 60.5,219.5 Z"/></g>
<g><path style="opacity:0.224" fill="#f5dcdb" d="M 296.5,210.5 C 295.451,218.42 293.785,226.087 291.5,233.5C 292.092,225.48 293.759,217.813 296.5,210.5 Z"/></g>
<g><path style="opacity:0.025" fill="#f7dfdd" d="M 430.5,212.5 C 430.451,217.816 429.451,222.816 427.5,227.5C 427.686,223.552 428.352,219.719 429.5,216C 428.713,214.687 429.046,213.52 430.5,212.5 Z"/></g>
<g><path style="opacity:0.086" fill="#f6d9d7" d="M 28.5,218.5 C 28.2576,222.479 27.2576,226.146 25.5,229.5C 25.4318,225.43 26.4318,221.763 28.5,218.5 Z"/></g>
<g><path style="opacity:0.018" fill="#f6dbd9" d="M 419.5,210.5 C 421.017,210.511 422.184,211.177 423,212.5C 423.667,217.167 423.667,221.833 423,226.5C 422.722,227.416 422.222,228.082 421.5,228.5C 422.332,223.519 422.498,218.519 422,213.5C 420.955,212.627 420.122,211.627 419.5,210.5 Z"/></g>
<g><path style="opacity:0.157" fill="#f8a59e" d="M 277.5,222.5 C 278.147,223.274 278.48,224.274 278.5,225.5C 278.66,227.355 277.993,228.688 276.5,229.5C 277.219,227.236 277.552,224.903 277.5,222.5 Z"/></g>
<g><path style="opacity:0.173" fill="#f28179" d="M 372.5,225.5 C 367.52,224.985 362.854,225.652 358.5,227.5C 358.5,226.5 358.5,225.5 358.5,224.5C 363.363,224.181 368.03,224.514 372.5,225.5 Z"/></g>
<g><path style="opacity:0.208" fill="#f6c6c2" d="M 194.5,219.5 C 194.575,224.192 193.575,228.526 191.5,232.5C 191.763,227.876 192.763,223.542 194.5,219.5 Z"/></g>
<g><path style="opacity:0.022" fill="#f6ebea" d="M 491.5,224.5 C 492.931,225.78 493.598,227.447 493.5,229.5C 492.069,228.22 491.402,226.553 491.5,224.5 Z"/></g>
<g><path style="opacity:0.102" fill="#f6d7d5" d="M 232.5,221.5 C 232.246,226.444 231.246,231.111 229.5,235.5C 229.443,230.469 230.443,225.802 232.5,221.5 Z"/></g>
<g><path style="opacity:0.086" fill="#f6dddb" d="M 445.5,239.5 C 446.823,232.878 447.823,226.211 448.5,219.5C 446.533,219.261 444.699,219.594 443,220.5C 440.653,228.236 438.486,235.902 436.5,243.5C 436.792,235.13 438.625,227.13 442,219.5C 444.381,218.565 446.881,218.232 449.5,218.5C 449.787,225.925 448.454,232.925 445.5,239.5 Z"/></g>
<g><path style="opacity:0.102" fill="#f6dedd" d="M 218.5,228.5 C 218.75,225.786 218.917,223.119 219,220.5C 217.612,219.446 216.112,219.28 214.5,220C 212.281,223.658 210.614,227.491 209.5,231.5C 207.934,222.414 211.601,218.081 220.5,218.5C 220.841,222.16 220.175,225.493 218.5,228.5 Z"/></g>
<g><path style="opacity:0.369" fill="#f6bab6" d="M 373.5,227.5 C 374.715,228.779 374.382,229.779 372.5,230.5C 372.557,229.391 372.89,228.391 373.5,227.5 Z"/></g>
<g><path style="opacity:0.02" fill="#f7d9d6" d="M 407.5,229.5 C 408.386,228.224 409.386,228.224 410.5,229.5C 410.376,230.107 410.043,230.44 409.5,230.5C 409.158,229.662 408.492,229.328 407.5,229.5 Z"/></g>
<g><path style="opacity:0.022" fill="#f6e7e7" d="M 93.5,227.5 C 93.5905,230.152 92.9238,232.485 91.5,234.5C 91.1706,231.772 91.8372,229.438 93.5,227.5 Z"/></g>
<g><path style="opacity:0.086" fill="#f6e1df" d="M 180.5,224.5 C 181.125,228.927 179.459,231.927 175.5,233.5C 177.977,230.873 179.644,227.873 180.5,224.5 Z"/></g>
<g><path style="opacity:0.102" fill="#f6eded" d="M 254.5,222.5 C 253.771,227.13 253.437,231.797 253.5,236.5C 252.751,235.469 252.085,234.302 251.5,233C 252.089,229.296 253.089,225.796 254.5,222.5 Z"/></g>
<g><path style="opacity:0.016" fill="#f5e3e2" d="M 394.5,225.5 C 388.078,230.698 387.078,236.698 391.5,243.5C 389.983,243.489 388.816,242.823 388,241.5C 387.233,237.406 387.566,233.406 389,229.5C 390.451,227.536 392.284,226.203 394.5,225.5 Z"/></g>
<g><path style="opacity:0.018" fill="#e6e6eb" d="M 126.5,224.5 C 125.612,231.471 123.946,238.138 121.5,244.5C 122.395,237.511 124.062,230.845 126.5,224.5 Z"/></g>
<g><path style="opacity:0.431" fill="#f7c9c6" d="M 155.5,218.5 C 154.668,224.484 154.501,230.484 155,236.5C 156.094,238.078 156.928,239.745 157.5,241.5C 154.16,239.518 152.493,236.518 152.5,232.5C 152.955,227.583 153.955,222.916 155.5,218.5 Z"/></g>
<g><path style="opacity:0.071" fill="#f5e7e7" d="M 198.5,224.5 C 198.785,227.829 198.118,230.829 196.5,233.5C 196.42,230.219 197.087,227.219 198.5,224.5 Z"/></g>
<g><path style="opacity:0.022" fill="#f7d5d2" d="M 289.5,215.5 C 291.314,222.691 290.481,229.691 287,236.5C 285.223,238.79 283.056,240.457 280.5,241.5C 288.082,234.542 291.082,225.876 289.5,215.5 Z"/></g>
<g><path style="opacity:0.008" fill="#f6f4f4" d="M 406.5,229.5 C 405.779,231.382 404.779,231.715 403.5,230.5C 404.391,229.89 405.391,229.557 406.5,229.5 Z"/></g>
<g><path style="opacity:0.518" fill="#cad5e3" d="M 107.5,227.5 C 107.829,230.228 107.163,232.562 105.5,234.5C 105.41,231.848 106.076,229.515 107.5,227.5 Z"/></g>
<g><path style="opacity:0.161" fill="#f5e9e9" d="M 218.5,228.5 C 218.58,231.781 217.913,234.781 216.5,237.5C 216.062,237.565 215.728,237.399 215.5,237C 216.437,234.051 217.437,231.217 218.5,228.5 Z"/></g>
<g><path style="opacity:0.022" fill="#f6e7e7" d="M 427.5,227.5 C 427.785,230.829 427.118,233.829 425.5,236.5C 425.42,233.219 426.087,230.219 427.5,227.5 Z"/></g>
<g><path style="opacity:0.025" fill="#f6dddb" d="M 75.5,225.5 C 75.3699,229.525 74.3699,233.191 72.5,236.5C 72.7424,232.521 73.7424,228.854 75.5,225.5 Z"/></g>
<g><path style="opacity:0.027" fill="#f8cecb" d="M 169.5,213.5 C 169.271,218.977 168.271,224.311 166.5,229.5C 167.04,230.748 167.707,231.915 168.5,233C 170.81,233.497 173.143,233.663 175.5,233.5C 167.675,236.513 164.508,233.846 166,225.5C 166.855,221.285 168.022,217.285 169.5,213.5 Z"/></g>
<g><path style="opacity:0.224" fill="#f4e1e0" d="M 236.5,229.5 C 236.706,232.495 236.04,235.162 234.5,237.5C 234.294,234.505 234.96,231.838 236.5,229.5 Z"/></g>
<g><path style="opacity:0.016" fill="#f7e7e6" d="M 481.5,233.5 C 478.962,233.831 477.296,235.164 476.5,237.5C 476.238,236.022 476.571,234.689 477.5,233.5C 478.814,232.687 479.981,231.687 481,230.5C 481.483,231.448 481.649,232.448 481.5,233.5 Z"/></g>
<g><path style="opacity:0.157" fill="#f48a82" d="M 358.5,230.5 C 358.5,231.5 358.5,232.5 358.5,233.5C 362.898,233.706 367.232,233.373 371.5,232.5C 371.389,233.117 371.056,233.617 370.5,234C 365.798,234.828 361.131,234.662 356.5,233.5C 356.942,232.261 357.609,231.261 358.5,230.5 Z"/></g>
<g><path style="opacity:0.086" fill="#dcdfe8" d="M 39.5,229.5 C 38.1043,235.061 37.4376,240.727 37.5,246.5C 36.1024,245.223 35.4357,243.557 35.5,241.5C 36.6644,237.34 37.9977,233.34 39.5,229.5 Z"/></g>
<g><path style="opacity:0.102" fill="#f9c9c5" d="M 401.5,231.5 C 400.766,232.708 400.433,234.041 400.5,235.5C 399.876,235.083 399.543,234.416 399.5,233.5C 399.747,232.287 400.414,231.62 401.5,231.5 Z"/></g>
<g><path style="opacity:0.055" fill="#f6e6e5" d="M 25.5,230.5 C 25.4349,233.428 24.7682,236.095 23.5,238.5C 23.1107,235.447 23.7773,232.78 25.5,230.5 Z"/></g>
<g><path style="opacity:0.161" fill="#f6dcdb" d="M 347.5,223.5 C 347.344,228.471 346.344,233.138 344.5,237.5C 344.656,232.529 345.656,227.862 347.5,223.5 Z"/></g>
<g><path style="opacity:0.996" fill="#f68173" d="M 409.5,231.5 C 409.817,235.172 408.151,236.838 404.5,236.5C 406.823,235.504 408.49,233.838 409.5,231.5 Z"/></g>
<g><path style="opacity:0.086" fill="#f6e2e1" d="M 494.5,232.5 C 495.931,233.78 496.598,235.447 496.5,237.5C 495.069,236.22 494.402,234.553 494.5,232.5 Z"/></g>
<g><path style="opacity:0.027" fill="#f7dfdd" d="M 191.5,232.5 C 191.155,235.198 189.822,237.198 187.5,238.5C 188.34,236.147 189.674,234.147 191.5,232.5 Z"/></g>
<g><path style="opacity:0.086" fill="#f7dcda" d="M 305.5,226.5 C 305.237,231.124 304.237,235.458 302.5,239.5C 302.858,235.491 303.358,231.491 304,227.5C 304.383,226.944 304.883,226.611 305.5,226.5 Z"/></g>
<g><path style="opacity:0.192" fill="#f3c3c0" d="M 400.5,235.5 C 401.708,236.234 403.041,236.567 404.5,236.5C 404.083,237.124 403.416,237.457 402.5,237.5C 401.287,237.253 400.62,236.586 400.5,235.5 Z"/></g>
<g><path style="opacity:0.016" fill="#d8dee8" d="M 58.5,227.5 C 58.2111,233.672 56.5444,239.338 53.5,244.5C 54.3645,238.481 56.0312,232.814 58.5,227.5 Z"/></g>
<g><path style="opacity:0.092" fill="#f5efef" d="M 465.5,231.5 C 465.706,234.495 465.04,237.162 463.5,239.5C 463.565,236.572 464.232,233.905 465.5,231.5 Z"/></g>
<g><path style="opacity:0.039" fill="#f7dfdd" d="M 385.5,231.5 C 384.679,236.32 382.012,239.653 377.5,241.5C 380.577,238.431 383.244,235.097 385.5,231.5 Z"/></g>
<g><path style="opacity:0.016" fill="#f5ecec" d="M 72.5,237.5 C 72.7406,239.898 72.0739,241.898 70.5,243.5C 70.2594,241.102 70.9261,239.102 72.5,237.5 Z"/></g>
<g><path style="opacity:0.345" fill="#f7d2cf" d="M 253.5,236.5 C 255.471,238.808 257.471,241.142 259.5,243.5C 256.103,242.432 254.103,240.099 253.5,236.5 Z"/></g>
<g><path style="opacity:0.016" fill="#f6e4e3" d="M 90.5,238.5 C 89.9474,243.806 88.6141,248.806 86.5,253.5C 87.0526,248.194 88.3859,243.194 90.5,238.5 Z"/></g>
<g><path style="opacity:0.306" fill="#f6c0bc" d="M 23.5,238.5 C 22.1667,243.5 22.1667,248.5 23.5,253.5C 22.027,250.983 21.3603,248.15 21.5,245C 21.6667,243.167 21.8333,241.333 22,239.5C 22.3826,238.944 22.8826,238.611 23.5,238.5 Z"/></g>
<g><path style="opacity:0.141" fill="#f5dfde" d="M 157.5,241.5 C 159.027,241.427 160.027,242.094 160.5,243.5C 158.973,243.573 157.973,242.906 157.5,241.5 Z"/></g>
<g><path style="opacity:0.055" fill="#f6ebeb" d="M 377.5,241.5 C 376.22,242.931 374.553,243.598 372.5,243.5C 373.78,242.069 375.447,241.402 377.5,241.5 Z"/></g>
<g><path style="opacity:0.11" fill="#f6ebea" d="M 209.5,231.5 C 209.313,235.913 208.646,240.246 207.5,244.5C 203.154,244.666 198.821,244.499 194.5,244C 194.167,243.667 193.833,243.333 193.5,243C 194.437,240.051 195.437,237.217 196.5,234.5C 196.492,237.545 196.159,240.545 195.5,243.5C 199.167,243.5 202.833,243.5 206.5,243.5C 206.87,239.226 207.87,235.226 209.5,231.5 Z"/></g>
<g><path style="opacity:0.113" fill="#f5ebea" d="M 229.5,235.5 C 229.296,238.518 228.963,241.518 228.5,244.5C 224.116,244.826 219.783,244.492 215.5,243.5C 214.753,241.711 215.086,240.044 216.5,238.5C 216.5,240.167 216.5,241.833 216.5,243.5C 220.167,243.5 223.833,243.5 227.5,243.5C 227.294,240.505 227.96,237.838 229.5,235.5 Z"/></g>
<g><path style="opacity:0.113" fill="#f6e9e8" d="M 247.5,235.5 C 247.296,238.518 246.963,241.518 246.5,244.5C 242.154,244.666 237.821,244.499 233.5,244C 233.167,243.667 232.833,243.333 232.5,243C 233.099,241.378 233.766,239.878 234.5,238.5C 234.5,240.167 234.5,241.833 234.5,243.5C 238.167,243.5 241.833,243.5 245.5,243.5C 245.294,240.505 245.96,237.838 247.5,235.5 Z"/></g>
<g><path style="opacity:0.113" fill="#f6e9e9" d="M 291.5,233.5 C 291.167,236.833 290.833,240.167 290.5,243.5C 294.167,243.5 297.833,243.5 301.5,243.5C 301.232,241.901 301.566,240.568 302.5,239.5C 302.5,241.167 302.5,242.833 302.5,244.5C 297.821,244.666 293.155,244.499 288.5,244C 289.833,242.333 289.833,240.667 288.5,239C 289.869,237.281 290.869,235.448 291.5,233.5 Z"/></g>
<g><path style="opacity:0.113" fill="#f6ecec" d="M 314.5,221.5 C 313.284,228.796 312.284,236.13 311.5,243.5C 315.167,243.5 318.833,243.5 322.5,243.5C 322.656,238.529 323.656,233.862 325.5,229.5C 325.092,234.537 324.426,239.537 323.5,244.5C 318.833,244.5 314.167,244.5 309.5,244.5C 310.549,236.581 312.215,228.914 314.5,221.5 Z"/></g>
<g><path style="opacity:0.118" fill="#f6efef" d="M 344.5,237.5 C 344.5,239.5 344.5,241.5 344.5,243.5C 353.5,243.5 362.5,243.5 371.5,243.5C 362.014,244.494 352.348,244.827 342.5,244.5C 342.721,241.933 343.388,239.599 344.5,237.5 Z"/></g>
<g><path style="opacity:0.118" fill="#f6e3e2" d="M 421.5,229.5 C 420.836,234.473 420.503,239.473 420.5,244.5C 415.678,245.065 411.178,244.399 407,242.5C 402.559,245.331 397.726,246.164 392.5,245C 391.944,244.617 391.611,244.117 391.5,243.5C 397.514,245.393 403.014,244.393 408,240.5C 408.483,241.448 408.649,242.448 408.5,243.5C 412.167,243.5 415.833,243.5 419.5,243.5C 419.335,239.818 419.501,236.152 420,232.5C 420.232,231.263 420.732,230.263 421.5,229.5 Z"/></g>
<g><path style="opacity:0.113" fill="#f6e9e9" d="M 425.5,237.5 C 425.5,239.5 425.5,241.5 425.5,243.5C 429.167,243.5 432.833,243.5 436.5,243.5C 432.689,244.645 428.689,244.812 424.5,244C 423.457,241.627 423.79,239.46 425.5,237.5 Z"/></g>
<g><path style="opacity:0.113" fill="#f6e6e5" d="M 461.5,223.5 C 460.916,230.257 459.749,236.924 458,243.5C 454,244.167 450,244.833 446,245.5C 444.323,243.852 444.156,242.185 445.5,240.5C 445.5,241.5 445.5,242.5 445.5,243.5C 449.226,243.823 452.893,243.489 456.5,242.5C 458.007,236.004 459.673,229.67 461.5,223.5 Z"/></g>
<g><path style="opacity:0.113" fill="#f6eaea" d="M 476.5,237.5 C 476.682,239.591 476.348,241.591 475.5,243.5C 471.217,244.492 466.884,244.826 462.5,244.5C 462.263,243.209 462.596,242.209 463.5,241.5C 466.684,243.414 470.351,244.08 474.5,243.5C 474.595,241.214 475.262,239.214 476.5,237.5 Z"/></g>
<g><path style="opacity:0.161" fill="#f4e9e9" d="M 481.5,233.5 C 483.403,236.53 484.737,239.863 485.5,243.5C 489.5,243.5 493.5,243.5 497.5,243.5C 497.167,241.5 496.833,239.5 496.5,237.5C 498.293,239.426 499.293,241.759 499.5,244.5C 494.489,244.666 489.489,244.499 484.5,244C 483.744,240.727 482.41,237.727 480.5,235C 481.056,234.617 481.389,234.117 481.5,233.5 Z"/></g>
<g><path style="opacity:0.102" fill="#e1e4eb" d="M 105.5,235.5 C 105.13,239.774 104.13,243.774 102.5,247.5C 102.586,246.504 102.252,245.671 101.5,245C 102.286,241.865 103.619,238.699 105.5,235.5 Z"/></g>
<g><path style="opacity:0.208" fill="#f7d4d1" d="M 186.5,239.5 C 186.047,240.458 185.381,241.292 184.5,242C 176.553,246.756 168.553,247.256 160.5,243.5C 169.791,245.708 178.457,244.375 186.5,239.5 Z"/></g>
<g><path style="opacity:0.067" fill="#f6e9e8" d="M 280.5,241.5 C 277.77,243.813 274.604,245.48 271,246.5C 266.92,246.043 263.086,245.043 259.5,243.5C 266.733,245.143 273.733,244.477 280.5,241.5 Z"/></g>
<g><path style="opacity:0.004" fill="#f4f0f1" d="M 53.5,244.5 C 53.1667,246.833 51.8333,248.167 49.5,248.5C 50.5,246.833 51.8333,245.5 53.5,244.5 Z"/></g>
<g><path style="opacity:0.055" fill="#f4edee" d="M 102.5,247.5 C 102.59,250.152 101.924,252.485 100.5,254.5C 100.171,251.772 100.837,249.438 102.5,247.5 Z"/></g>
<g><path style="opacity:0.021" fill="#d6dce8" d="M 37.5,246.5 C 41.2953,248.143 45.2953,248.809 49.5,248.5C 45.978,251.1 42.3113,251.1 38.5,248.5C 37.7025,248.043 37.3691,247.376 37.5,246.5 Z"/></g>
<g><path style="opacity:0.016" fill="#e9e7ec" d="M 121.5,244.5 C 120.811,251.21 119.144,257.544 116.5,263.5C 117.602,256.887 119.268,250.554 121.5,244.5 Z"/></g>
<g><path style="opacity:0.009" fill="#f7d9d7" d="M 431.5,272.5 C 432.179,266.448 433.179,260.448 434.5,254.5C 433.167,254.5 431.833,254.5 430.5,254.5C 430.118,258.446 429.118,262.112 427.5,265.5C 427.735,261.423 428.402,257.423 429.5,253.5C 431.396,252.534 433.396,252.201 435.5,252.5C 435.085,259.471 433.752,266.138 431.5,272.5 Z"/></g>
<g><path style="opacity:0.012" fill="#f7d7d5" d="M 7.5,228.5 C 4.92043,239.514 4.92043,250.514 7.5,261.5C 5.27757,258.411 3.94424,254.911 3.5,251C 4.83333,247.667 4.83333,244.333 3.5,241C 4.16667,239.333 4.83333,237.667 5.5,236C 5.16667,235.667 4.83333,235.333 4.5,235C 5.42167,232.706 6.42167,230.539 7.5,228.5 Z"/></g>
<g><path style="opacity:1" fill="#ee4939" d="M 419.5,253.5 C 419.833,256.5 418.5,257.833 415.5,257.5C 416.167,259.5 416.833,261.5 417.5,263.5C 415.876,263.36 414.71,264.027 414,265.5C 412.846,269.447 412.013,273.447 411.5,277.5C 410.167,277.5 408.833,277.5 407.5,277.5C 407.5,276.5 407.5,275.5 407.5,274.5C 407.5,274.167 407.5,273.833 407.5,273.5C 410.148,269.584 410.148,265.584 407.5,261.5C 408.708,260.766 410.041,260.433 411.5,260.5C 411.15,257.547 412.15,255.213 414.5,253.5C 416.167,252.167 417.833,252.167 419.5,253.5 Z"/></g>
<g><path style="opacity:1" fill="#eb372b" d="M 431.5,272.5 C 431.5,272.833 431.5,273.167 431.5,273.5C 430.621,275.23 429.288,276.563 427.5,277.5C 426.287,277.253 425.62,276.586 425.5,275.5C 425.5,275.167 425.5,274.833 425.5,274.5C 426.768,272.095 427.435,269.428 427.5,266.5C 427.5,266.167 427.5,265.833 427.5,265.5C 429.118,262.112 430.118,258.446 430.5,254.5C 431.833,254.5 433.167,254.5 434.5,254.5C 433.179,260.448 432.179,266.448 431.5,272.5 Z"/></g>
<g><path style="opacity:0.29" fill="#f6d5d3" d="M 70.5,244.5 C 70.1743,247.311 69.3409,249.978 68,252.5C 56.7234,264.299 43.89,266.966 29.5,260.5C 43.8408,265.457 56.3408,262.457 67,251.5C 67.8984,248.931 69.065,246.598 70.5,244.5 Z"/></g>
<g><path style="opacity:0.161" fill="#f5e6e6" d="M 23.5,253.5 C 25.4707,255.808 27.4707,258.142 29.5,260.5C 26.0536,259.388 24.0536,257.055 23.5,253.5 Z"/></g>
<g><path style="opacity:0.055" fill="#f7d6d3" d="M 86.5,253.5 C 86.539,256.089 85.539,258.089 83.5,259.5C 83.7549,257.033 84.7549,255.033 86.5,253.5 Z"/></g>
<g><path style="opacity:0.004" fill="#f6e2e1" d="M 419.5,253.5 C 420.124,253.917 420.457,254.584 420.5,255.5C 418.875,258.235 418.208,261.235 418.5,264.5C 416.876,264.36 415.71,265.027 415,266.5C 413.972,270.473 413.139,274.473 412.5,278.5C 410.5,278.5 408.5,278.5 406.5,278.5C 406.232,276.901 406.566,275.568 407.5,274.5C 407.5,275.5 407.5,276.5 407.5,277.5C 408.833,277.5 410.167,277.5 411.5,277.5C 412.013,273.447 412.846,269.447 414,265.5C 414.71,264.027 415.876,263.36 417.5,263.5C 416.833,261.5 416.167,259.5 415.5,257.5C 418.5,257.833 419.833,256.5 419.5,253.5 Z"/></g>
<g><path style="opacity:0.012" fill="#f6e0df" d="M 480.5,258.5 C 481.301,260.042 481.634,261.708 481.5,263.5C 480.833,264.833 480.167,266.167 479.5,267.5C 479.5,265.167 479.5,262.833 479.5,260.5C 478.167,260.5 476.833,260.5 475.5,260.5C 475.212,258.266 475.712,255.933 477,253.5C 478.699,252.594 480.533,252.261 482.5,252.5C 482.975,255.082 482.308,257.082 480.5,258.5 Z"/></g>
<g><path style="opacity:1" fill="#ed4739" d="M 480.5,258.5 C 479.5,258.5 478.5,258.5 477.5,258.5C 477.5,257.167 477.5,255.833 477.5,254.5C 478.833,254.5 480.167,254.5 481.5,254.5C 481.567,255.959 481.234,257.292 480.5,258.5 Z"/></g>
<g><path style="opacity:0.061" fill="#f6eeee" d="M 496.5,271.5 C 499.818,260.981 496.152,257.314 485.5,260.5C 485.611,259.883 485.944,259.383 486.5,259C 498.315,256.638 501.649,260.804 496.5,271.5 Z"/></g>
<g><path style="opacity:0.224" fill="#f5dbd9" d="M 414.5,253.5 C 412.15,255.213 411.15,257.547 411.5,260.5C 410.041,260.433 408.708,260.766 407.5,261.5C 407.574,259.589 408.574,258.422 410.5,258C 410.167,257.667 409.833,257.333 409.5,257C 410.789,255.198 412.456,254.031 414.5,253.5 Z"/></g>
<g><path style="opacity:1" fill="#f05241" d="M 399.5,278.5 C 397.167,278.5 394.833,278.5 392.5,278.5C 392.167,278.5 391.833,278.5 391.5,278.5C 387.922,275.367 386.589,271.367 387.5,266.5C 390.775,260.532 395.775,258.366 402.5,260C 407.29,264.311 407.79,269.145 404,274.5C 402.333,275.733 400.833,277.067 399.5,278.5 Z M 395.5,263.5 C 396.858,263.822 398.525,263.822 400.5,263.5C 400.932,264.71 401.599,265.71 402.5,266.5C 401.799,270.573 399.632,273.573 396,275.5C 393.833,274.667 392.333,273.167 391.5,271C 392.027,267.995 393.36,265.495 395.5,263.5 Z"/></g>
<g><path style="opacity:0.086" fill="#f4eaea" d="M 451.5,260.5 C 446.682,259.985 442.015,259.985 437.5,260.5C 437.59,263.152 436.924,265.485 435.5,267.5C 435.342,264.455 436.009,261.621 437.5,259C 440.679,259.657 443.846,259.49 447,258.5C 449.008,258.307 450.508,258.974 451.5,260.5 Z"/></g>
<g><path style="opacity:1" fill="#ee4637" d="M 471.5,267.5 C 470.133,270.466 469.133,273.633 468.5,277C 466.892,277.658 465.725,277.158 465,275.5C 460.868,278.339 457.035,278.006 453.5,274.5C 453.5,272.5 453.5,270.5 453.5,268.5C 453.5,268.167 453.5,267.833 453.5,267.5C 455.4,265.381 457.066,263.047 458.5,260.5C 461.895,258.854 465.061,259.187 468,261.5C 468.662,259.187 469.162,256.854 469.5,254.5C 470.873,254.343 472.207,254.51 473.5,255C 472.244,259.039 471.577,263.206 471.5,267.5 Z M 465.5,271.5 C 463.858,273.081 461.858,273.747 459.5,273.5C 457.493,269.046 458.826,265.713 463.5,263.5C 466.662,265.481 467.329,268.148 465.5,271.5 Z"/></g>
<g><path style="opacity:0.086" fill="#f6eeee" d="M 485.5,260.5 C 485.167,261.5 484.5,262.167 483.5,262.5C 483.5,261.167 484.167,260.5 485.5,260.5 Z"/></g>
<g><path style="opacity:1" fill="#ec3c2f" d="M 496.5,271.5 C 495.709,273.309 495.709,275.309 496.5,277.5C 491.172,277.33 485.839,276.996 480.5,276.5C 480.5,274.833 480.5,273.167 480.5,271.5C 481.962,270.542 483.295,269.376 484.5,268C 487.571,267.853 490.404,267.02 493,265.5C 493.167,265.167 493.333,264.833 493.5,264.5C 492.5,264.167 491.5,263.833 490.5,263.5C 488.159,264.182 485.826,264.849 483.5,265.5C 483.5,264.5 483.5,263.5 483.5,262.5C 484.5,262.167 485.167,261.5 485.5,260.5C 496.152,257.314 499.818,260.981 496.5,271.5 Z M 487.5,270.5 C 488.873,270.343 490.207,270.51 491.5,271C 490.748,271.671 490.414,272.504 490.5,273.5C 490.167,273.5 489.833,273.5 489.5,273.5C 487.128,275.148 485.794,274.481 485.5,271.5C 486.492,271.672 487.158,271.338 487.5,270.5 Z"/></g>
<g><path style="opacity:0.102" fill="#f2ecee" d="M 100.5,255.5 C 99.4208,259.199 99.4208,262.865 100.5,266.5C 99.8826,266.389 99.3826,266.056 99,265.5C 98.8333,264.167 98.6667,262.833 98.5,261.5C 98.361,259.117 99.0277,257.117 100.5,255.5 Z"/></g>
<g><path style="opacity:0.016" fill="#f7e0de" d="M 407.5,261.5 C 410.148,265.584 410.148,269.584 407.5,273.5C 407.631,272.761 407.464,272.094 407,271.5C 405.917,275.418 403.417,277.752 399.5,278.5C 400.833,277.067 402.333,275.733 404,274.5C 407.79,269.145 407.29,264.311 402.5,260C 395.775,258.366 390.775,260.532 387.5,266.5C 390.075,258.817 395.409,256.317 403.5,259C 404.471,260.481 405.804,261.315 407.5,261.5 Z"/></g>
<g><path style="opacity:1" fill="#eb392d" d="M 451.5,260.5 C 451.5,263.5 451.5,266.5 451.5,269.5C 450.232,271.905 449.565,274.572 449.5,277.5C 448.167,277.5 446.833,277.5 445.5,277.5C 445.5,276.5 445.5,275.5 445.5,274.5C 445.5,273.833 445.5,273.167 445.5,272.5C 447.265,269.877 447.932,266.877 447.5,263.5C 444.956,263.104 442.789,263.771 441,265.5C 439.631,269.377 438.798,273.377 438.5,277.5C 437.167,277.5 435.833,277.5 434.5,277.5C 434.963,274.518 435.296,271.518 435.5,268.5C 435.5,268.167 435.5,267.833 435.5,267.5C 436.924,265.485 437.59,263.152 437.5,260.5C 442.015,259.985 446.682,259.985 451.5,260.5 Z"/></g>
<g><path style="opacity:1" fill="#eb3a2e" d="M 475.5,260.5 C 476.833,260.5 478.167,260.5 479.5,260.5C 479.5,262.833 479.5,265.167 479.5,267.5C 477.976,270.207 476.976,273.207 476.5,276.5C 475.277,277.614 473.944,277.781 472.5,277C 473.423,274.959 473.756,272.792 473.5,270.5C 473.5,270.167 473.5,269.833 473.5,269.5C 475.223,267.22 475.889,264.553 475.5,261.5C 475.5,261.167 475.5,260.833 475.5,260.5 Z"/></g>
<g><path style="opacity:0.009" fill="#f6f3f3" d="M 400.5,263.5 C 398.525,263.822 396.858,263.822 395.5,263.5C 397.167,262.167 398.833,262.167 400.5,263.5 Z"/></g>
<g><path style="opacity:0.097" fill="#f6dfde" d="M 445.5,272.5 C 445.833,269.833 446.167,267.167 446.5,264.5C 444.61,264.297 443.11,264.963 442,266.5C 440.972,270.473 440.139,274.473 439.5,278.5C 437.5,278.5 435.5,278.5 433.5,278.5C 433.159,274.84 433.825,271.507 435.5,268.5C 435.296,271.518 434.963,274.518 434.5,277.5C 435.833,277.5 437.167,277.5 438.5,277.5C 438.798,273.377 439.631,269.377 441,265.5C 442.789,263.771 444.956,263.104 447.5,263.5C 447.932,266.877 447.265,269.877 445.5,272.5 Z"/></g>
<g><path style="opacity:0.102" fill="#f7dddb" d="M 471.5,267.5 C 471.577,263.206 472.244,259.039 473.5,255C 472.207,254.51 470.873,254.343 469.5,254.5C 469.162,256.854 468.662,259.187 468,261.5C 465.061,259.187 461.895,258.854 458.5,260.5C 461.055,258.382 463.888,258.049 467,259.5C 467.642,257.238 468.475,255.071 469.5,253C 471.134,252.506 472.801,252.34 474.5,252.5C 474.237,257.77 473.237,262.77 471.5,267.5 Z"/></g>
<g><path style="opacity:0.018" fill="#f6e5e5" d="M 475.5,261.5 C 475.889,264.553 475.223,267.22 473.5,269.5C 473.294,266.505 473.96,263.838 475.5,261.5 Z"/></g>
<g><path style="opacity:0.018" fill="#f6d9d7" d="M 483.5,262.5 C 483.5,263.5 483.5,264.5 483.5,265.5C 485.826,264.849 488.159,264.182 490.5,263.5C 491.5,263.833 492.5,264.167 493.5,264.5C 493.333,264.833 493.167,265.167 493,265.5C 490.404,267.02 487.571,267.853 484.5,268C 483.295,269.376 481.962,270.542 480.5,271.5C 480.859,269.629 481.859,268.129 483.5,267C 482.027,266.29 481.36,265.124 481.5,263.5C 482.167,263.167 482.833,262.833 483.5,262.5 Z"/></g>
<g><path style="opacity:0.004" fill="#fad9d5" d="M 400.5,263.5 C 402.048,263.821 402.715,264.821 402.5,266.5C 401.599,265.71 400.932,264.71 400.5,263.5 Z"/></g>
<g><path style="opacity:0.141" fill="#f7d9d7" d="M 7.5,261.5 C 11.4608,267.129 16.1275,272.129 21.5,276.5C 14.7724,273.439 10.1057,268.439 7.5,261.5 Z"/></g>
<g><path style="opacity:0.012" fill="#f6e3e2" d="M 83.5,259.5 C 79.2776,268.057 72.611,273.723 63.5,276.5C 71.3665,272.305 78.0331,266.638 83.5,259.5 Z"/></g>
<g><path style="opacity:0.004" fill="#eeedf0" d="M 116.5,263.5 C 115.833,266.167 114.167,267.833 111.5,268.5C 112.833,266.5 114.5,264.833 116.5,263.5 Z"/></g>
<g><path style="opacity:0.118" fill="#eeeaed" d="M 100.5,266.5 C 103.635,268.023 106.968,268.69 110.5,268.5C 108.034,269.634 105.367,269.801 102.5,269C 101.619,268.292 100.953,267.458 100.5,266.5 Z"/></g>
<g><path style="opacity:0.118" fill="#f6eded" d="M 387.5,266.5 C 386.589,271.367 387.922,275.367 391.5,278.5C 387.866,277.361 385.866,274.861 385.5,271C 386.099,269.378 386.766,267.878 387.5,266.5 Z"/></g>
<g><path style="opacity:0.022" fill="#f6eaea" d="M 427.5,266.5 C 427.435,269.428 426.768,272.095 425.5,274.5C 425.294,271.505 425.96,268.838 427.5,266.5 Z"/></g>
<g><path style="opacity:0.369" fill="#f49089" d="M 487.5,270.5 C 488.919,269.549 490.585,269.216 492.5,269.5C 492.771,271.38 492.104,272.713 490.5,273.5C 490.414,272.504 490.748,271.671 491.5,271C 490.207,270.51 488.873,270.343 487.5,270.5 Z"/></g>
<g><path style="opacity:0.067" fill="#f6e7e7" d="M 451.5,260.5 C 452.966,261.347 453.8,262.68 454,264.5C 454.876,262.365 456.376,261.031 458.5,260.5C 457.066,263.047 455.4,265.381 453.5,267.5C 452.356,266.817 452.356,267.151 453.5,268.5C 453.5,270.5 453.5,272.5 453.5,274.5C 452.833,272.833 452.167,271.167 451.5,269.5C 451.5,266.5 451.5,263.5 451.5,260.5 Z"/></g>
<g><path style="opacity:0.647" fill="#f9a298" d="M 465.5,271.5 C 465.586,272.496 465.252,273.329 464.5,274C 462.613,274.78 460.946,274.613 459.5,273.5C 461.858,273.747 463.858,273.081 465.5,271.5 Z"/></g>
<g><path style="opacity:0.506" fill="#f9b7b0" d="M 485.5,271.5 C 485.794,274.481 487.128,275.148 489.5,273.5C 488.686,275.273 487.352,275.773 485.5,275C 484.209,273.708 484.209,272.542 485.5,271.5 Z"/></g>
<g><path style="opacity:0.014" fill="#f7dad8" d="M 479.5,267.5 C 479.232,269.099 479.566,270.432 480.5,271.5C 480.5,273.167 480.5,274.833 480.5,276.5C 479.71,275.391 479.21,274.058 479,272.5C 478.505,274.473 478.338,276.473 478.5,278.5C 476.167,278.5 473.833,278.5 471.5,278.5C 471.565,275.572 472.232,272.905 473.5,270.5C 473.756,272.792 473.423,274.959 472.5,277C 473.944,277.781 475.277,277.614 476.5,276.5C 476.976,273.207 477.976,270.207 479.5,267.5 Z"/></g>
<g><path style="opacity:0.022" fill="#f6e9e8" d="M 21.5,276.5 C 23.3797,276.229 24.713,276.896 25.5,278.5C 23.6203,278.771 22.287,278.104 21.5,276.5 Z"/></g>
<g><path style="opacity:0.247" fill="#f6d0cd" d="M 431.5,273.5 C 431.714,275.144 431.38,276.644 430.5,278C 428.527,278.495 426.527,278.662 424.5,278.5C 424.263,277.209 424.596,276.209 425.5,275.5C 425.62,276.586 426.287,277.253 427.5,277.5C 429.288,276.563 430.621,275.23 431.5,273.5 Z"/></g>
<g><path style="opacity:0.247" fill="#f6d1cf" d="M 451.5,269.5 C 451.492,272.545 451.159,275.545 450.5,278.5C 448.5,278.5 446.5,278.5 444.5,278.5C 444.232,276.901 444.566,275.568 445.5,274.5C 445.5,275.5 445.5,276.5 445.5,277.5C 446.833,277.5 448.167,277.5 449.5,277.5C 449.565,274.572 450.232,271.905 451.5,269.5 Z"/></g>
<g><path style="opacity:0.027" fill="#f7cfcc" d="M 471.5,267.5 C 471.637,271.179 470.971,274.679 469.5,278C 465.504,278.811 461.504,279.144 457.5,279C 454.553,278.888 453.22,277.388 453.5,274.5C 457.035,278.006 460.868,278.339 465,275.5C 465.725,277.158 466.892,277.658 468.5,277C 469.133,273.633 470.133,270.466 471.5,267.5 Z"/></g>
<g><path style="opacity:0.431" fill="#f7c7c3" d="M 496.5,271.5 C 499.451,274.959 498.785,277.626 494.5,279.5C 490.536,278.769 486.536,278.602 482.5,279C 481.244,278.583 480.577,277.75 480.5,276.5C 485.839,276.996 491.172,277.33 496.5,277.5C 495.709,275.309 495.709,273.309 496.5,271.5 Z"/></g>
<g><path style="opacity:0.093" fill="#f6f1f1" d="M 392.5,278.5 C 394.833,278.5 397.167,278.5 399.5,278.5C 398.469,279.249 397.302,279.915 396,280.5C 394.698,279.915 393.531,279.249 392.5,278.5 Z"/></g>
<g><path style="opacity:0.016" fill="#f5f0f0" d="M 25.5,278.5 C 28.0673,278.721 30.4006,279.388 32.5,280.5C 29.7718,280.829 27.4385,280.163 25.5,278.5 Z"/></g>
<g><path style="opacity:0.083" fill="#f6eeee" d="M 63.5,276.5 C 60.3199,278.847 56.6532,280.347 52.5,281C 45.6536,281.821 38.987,281.654 32.5,280.5C 43.1648,281.337 53.4981,280.004 63.5,276.5 Z"/></g>
</svg>
