<?xml version="1.0" encoding="UTF-8"?>
<!DOCTYPE svg PUBLIC "-//W3C//DTD SVG 1.1//EN" "http://www.w3.org/Graphics/SVG/1.1/DTD/svg11.dtd">
<svg xmlns="http://www.w3.org/2000/svg" version="1.1" width="512px" height="512px" style="shape-rendering:geometricPrecision; text-rendering:geometricPrecision; image-rendering:optimizeQuality; fill-rule:evenodd; clip-rule:evenodd" xmlns:xlink="http://www.w3.org/1999/xlink">
<g><path style="opacity:0.941" fill="#fff" d="M 511.5,118.5 C 511.5,209.833 511.5,301.167 511.5,392.5C 504.909,421.927 486.909,440.427 457.5,448C 353.859,449.651 250.192,449.985 146.5,449C 139.013,444.394 138.679,439.394 145.5,434C 174.498,433.5 203.498,433.333 232.5,433.5C 232.5,405.5 232.5,377.5 232.5,349.5C 219.496,349.333 206.496,349.5 193.5,350C 181.167,362.333 168.833,374.667 156.5,387C 153.223,389.315 149.556,390.649 145.5,391C 102.501,391.5 59.5013,391.667 16.5,391.5C 22.3612,415.193 37.3612,429.026 61.5,433C 80.1667,433.333 98.8333,433.667 117.5,434C 121.277,436.911 122.444,440.744 121,445.5C 119.786,447.049 118.286,448.215 116.5,449C 97.8333,449.667 79.1667,449.667 60.5,449C 27.4225,443.751 7.08918,424.917 -0.5,392.5C -0.5,301.167 -0.5,209.833 -0.5,118.5C 6.09114,89.0734 24.0911,70.5734 53.5,63C 161.141,61.3482 268.808,61.0149 376.5,62C 384.067,66.5799 384.401,71.5799 377.5,77C 344.502,77.5 311.502,77.6666 278.5,77.5C 278.5,105.5 278.5,133.5 278.5,161.5C 291.504,161.667 304.504,161.5 317.5,161C 329.833,148.667 342.167,136.333 354.5,124C 357.777,121.685 361.444,120.351 365.5,120C 408.499,119.5 451.499,119.333 494.5,119.5C 488.639,95.807 473.639,81.9737 449.5,78C 434.833,77.6667 420.167,77.3333 405.5,77C 401.723,74.0453 400.557,70.212 402,65.5C 403.214,63.9512 404.714,62.7845 406.5,62C 421.167,61.3333 435.833,61.3333 450.5,62C 483.577,67.2493 503.911,86.0827 511.5,118.5 Z M 61.5,77.5 C 118.5,77.5 175.5,77.5 232.5,77.5C 232.5,105.5 232.5,133.5 232.5,161.5C 219.496,161.667 206.496,161.5 193.5,161C 181.167,148.667 168.833,136.333 156.5,124C 153.223,121.685 149.556,120.351 145.5,120C 102.501,119.5 59.5013,119.333 16.5,119.5C 22.5353,95.7953 37.5353,81.7953 61.5,77.5 Z M 248.5,77.5 C 253.167,77.5 257.833,77.5 262.5,77.5C 262.333,109.168 262.5,140.835 263,172.5C 263.833,174.667 265.333,176.167 267.5,177C 286.167,177.667 304.833,177.667 323.5,177C 337.833,163.333 352.167,149.667 366.5,136C 409.832,135.5 453.165,135.333 496.5,135.5C 496.5,140.5 496.5,145.5 496.5,150.5C 454.499,150.333 412.499,150.5 370.5,151C 357.667,162.5 345.5,174.667 334,187.5C 333.333,206.167 333.333,224.833 334,243.5C 334.833,245.667 336.333,247.167 338.5,248C 390.499,248.5 442.499,248.667 494.5,248.5C 494.5,253.167 494.5,257.833 494.5,262.5C 442.499,262.333 390.499,262.5 338.5,263C 336.333,263.833 334.833,265.333 334,267.5C 333.333,286.167 333.333,304.833 334,323.5C 345.5,336.333 357.667,348.5 370.5,360C 412.499,360.5 454.499,360.667 496.5,360.5C 496.5,365.5 496.5,370.5 496.5,375.5C 453.165,375.667 409.832,375.5 366.5,375C 352.167,361.333 337.833,347.667 323.5,334C 304.833,333.333 286.167,333.333 267.5,334C 265.333,334.833 263.833,336.333 263,338.5C 262.5,370.165 262.333,401.832 262.5,433.5C 257.833,433.5 253.167,433.5 248.5,433.5C 248.667,401.832 248.5,370.165 248,338.5C 247.167,336.333 245.667,334.833 243.5,334C 224.833,333.333 206.167,333.333 187.5,334C 173.167,347.667 158.833,361.333 144.5,375C 101.168,375.5 57.8346,375.667 14.5,375.5C 14.5,370.5 14.5,365.5 14.5,360.5C 56.5013,360.667 98.5013,360.5 140.5,360C 153.333,348.5 165.5,336.333 177,323.5C 177.667,304.833 177.667,286.167 177,267.5C 176.167,265.333 174.667,263.833 172.5,263C 120.501,262.5 68.5011,262.333 16.5,262.5C 16.5,257.833 16.5,253.167 16.5,248.5C 38.1692,248.667 59.8359,248.5 81.5,248C 86.48,245.149 87.8133,240.982 85.5,235.5C 84.5,234.667 83.5,233.833 82.5,233C 59.8358,232.5 37.1691,232.333 14.5,232.5C 14.5,210.5 14.5,188.5 14.5,166.5C 54.5014,166.333 94.5014,166.5 134.5,167C 143.333,175.833 152.167,184.667 161,193.5C 161.5,206.496 161.667,219.496 161.5,232.5C 144.497,232.333 127.497,232.5 110.5,233C 103.679,238.394 104.013,243.394 111.5,248C 131.833,248.667 152.167,248.667 172.5,248C 174.667,247.167 176.167,245.667 177,243.5C 177.667,224.833 177.667,206.167 177,187.5C 165.863,175.362 154.363,163.529 142.5,152C 99.9185,150.511 57.2518,150.011 14.5,150.5C 14.5,145.5 14.5,140.5 14.5,135.5C 57.8346,135.333 101.168,135.5 144.5,136C 158.833,149.667 173.167,163.333 187.5,177C 206.167,177.667 224.833,177.667 243.5,177C 245.667,176.167 247.167,174.667 248,172.5C 248.5,140.835 248.667,109.168 248.5,77.5 Z M 376.5,166.5 C 416.5,166.5 456.5,166.5 496.5,166.5C 496.5,188.5 496.5,210.5 496.5,232.5C 447.5,232.5 398.5,232.5 349.5,232.5C 349.333,219.496 349.5,206.496 350,193.5C 359.036,184.632 367.869,175.632 376.5,166.5 Z M 207.5,207.5 C 239.5,207.5 271.5,207.5 303.5,207.5C 303.5,239.5 303.5,271.5 303.5,303.5C 271.5,303.5 239.5,303.5 207.5,303.5C 207.5,271.5 207.5,239.5 207.5,207.5 Z M 14.5,278.5 C 63.5,278.5 112.5,278.5 161.5,278.5C 161.667,291.504 161.5,304.504 161,317.5C 152.167,326.333 143.333,335.167 134.5,344C 94.5014,344.5 54.5014,344.667 14.5,344.5C 14.5,322.5 14.5,300.5 14.5,278.5 Z M 349.5,278.5 C 398.5,278.5 447.5,278.5 496.5,278.5C 496.5,300.5 496.5,322.5 496.5,344.5C 456.499,344.667 416.499,344.5 376.5,344C 367.667,335.167 358.833,326.333 350,317.5C 349.5,304.504 349.333,291.504 349.5,278.5 Z M 278.5,349.5 C 291.504,349.333 304.504,349.5 317.5,350C 329.833,362.333 342.167,374.667 354.5,387C 357.777,389.315 361.444,390.649 365.5,391C 408.499,391.5 451.499,391.667 494.5,391.5C 488.639,415.193 473.639,429.026 449.5,433C 392.501,433.5 335.501,433.667 278.5,433.5C 278.5,405.5 278.5,377.5 278.5,349.5 Z"/></g>
<g><path style="opacity:0.934" fill="#fff" d="M 199.5,191.5 C 236.835,191.333 274.168,191.5 311.5,192C 314.276,192.066 316.442,193.232 318,195.5C 319.642,234.12 319.976,272.787 319,311.5C 318.934,314.276 317.768,316.442 315.5,318C 276.88,319.642 238.213,319.976 199.5,319C 196.724,318.934 194.558,317.768 193,315.5C 191.358,276.88 191.024,238.213 192,199.5C 192.68,194.989 195.18,192.323 199.5,191.5 Z M 207.5,207.5 C 207.5,239.5 207.5,271.5 207.5,303.5C 239.5,303.5 271.5,303.5 303.5,303.5C 303.5,271.5 303.5,239.5 303.5,207.5C 271.5,207.5 239.5,207.5 207.5,207.5 Z"/></g>
</svg>
