<?xml version="1.0" encoding="UTF-8"?>
<!DOCTYPE svg PUBLIC "-//W3C//DTD SVG 1.1//EN" "http://www.w3.org/Graphics/SVG/1.1/DTD/svg11.dtd">
<svg xmlns="http://www.w3.org/2000/svg" version="1.1" width="512px" height="512px" style="shape-rendering:geometricPrecision; text-rendering:geometricPrecision; image-rendering:optimizeQuality; fill-rule:evenodd; clip-rule:evenodd" xmlns:xlink="http://www.w3.org/1999/xlink">
<g><path style="opacity:0.96" fill="#fff" d="M 296.5,-0.5 C 300.167,-0.5 303.833,-0.5 307.5,-0.5C 313.737,4.22974 319.57,9.56307 325,15.5C 404.121,107.258 432.121,212.924 409,332.5C 394.924,394.325 366.924,448.659 325,495.5C 319.57,501.437 313.737,506.77 307.5,511.5C 303.833,511.5 300.167,511.5 296.5,511.5C 287.499,506.676 284.665,499.343 288,489.5C 373.191,400.432 402.525,295.432 376,174.5C 364.78,132.064 346.113,93.3974 320,58.5C 309.707,45.8715 299.04,33.5381 288,21.5C 284.665,11.6572 287.499,4.32385 296.5,-0.5 Z"/></g>
<g><path style="opacity:0.96" fill="#fff" d="M 232.5,63.5 C 238.275,62.7745 243.608,63.9412 248.5,67C 314.626,136.965 338.46,219.465 320,314.5C 308.005,364.422 284.172,407.589 248.5,444C 237.664,450.382 229.164,448.215 223,437.5C 221.776,431.696 222.776,426.362 226,421.5C 283.048,362.341 304.714,292.007 291,210.5C 281.598,163.35 259.931,123.017 226,89.5C 219.647,78.5609 221.813,69.8942 232.5,63.5 Z"/></g>
<g><path style="opacity:0.959" fill="#fff" d="M 169.5,127.5 C 174.08,127.113 178.414,127.947 182.5,130C 226.33,174.838 242.83,228.338 232,290.5C 224.47,325.738 207.97,355.904 182.5,381C 169.027,386.431 160.694,382.098 157.5,368C 158.168,364.68 159.335,361.513 161,358.5C 203.7,313.007 214.7,260.674 194,201.5C 190.447,192.726 186.114,184.393 181,176.5C 173.667,167.167 166.333,157.833 159,148.5C 156.617,138.599 160.117,131.599 169.5,127.5 Z"/></g>
<g><path style="opacity:0.953" fill="#fff" d="M 106.5,191.5 C 111.686,191.462 116.353,192.962 120.5,196C 147.587,227.284 151.753,261.45 133,298.5C 129.451,304.886 124.951,310.553 119.5,315.5C 110.814,321.331 102.981,320.331 96,312.5C 92.5455,305.998 92.8788,299.665 97,293.5C 115.765,273.172 118.431,250.838 105,226.5C 102.705,223.203 100.038,220.203 97,217.5C 90.6171,205.136 93.7837,196.47 106.5,191.5 Z"/></g>
</svg>
