<?xml version="1.0" encoding="UTF-8"?>
<!DOCTYPE svg PUBLIC "-//W3C//DTD SVG 1.1//EN" "http://www.w3.org/Graphics/SVG/1.1/DTD/svg11.dtd">
<svg xmlns="http://www.w3.org/2000/svg" version="1.1" width="920px" height="572px" style="shape-rendering:geometricPrecision; text-rendering:geometricPrecision; image-rendering:optimizeQuality; fill-rule:evenodd; clip-rule:evenodd" xmlns:xlink="http://www.w3.org/1999/xlink">
<g><path style="opacity:1" fill="#eb0019" d="M 413.5,127.5 C 430.879,132.525 446.879,140.192 461.5,150.5C 410.694,186.736 386.527,236.07 389,298.5C 393.726,349.305 416.559,389.638 457.5,419.5C 427.75,438.772 395.083,447.439 359.5,445.5C 343.409,444.682 327.742,441.682 312.5,436.5C 303.902,432.537 295.236,428.537 286.5,424.5C 259.997,407.997 239.331,385.997 224.5,358.5C 200.861,309.021 200.527,259.355 223.5,209.5C 238.302,182.03 258.969,160.03 285.5,143.5C 294.781,138.36 304.448,134.027 314.5,130.5C 347.339,119.192 380.339,118.192 413.5,127.5 Z"/></g>
<g><path style="opacity:1" fill="#f79d19" d="M 707.5,332.5 C 704.364,341.24 701.031,349.907 697.5,358.5C 691.595,369.307 684.928,379.64 677.5,389.5C 667.764,400.572 657.098,410.572 645.5,419.5C 635.463,426.187 624.796,431.854 613.5,436.5C 591.777,445.605 569.111,449.605 545.5,448.5C 528.36,448.072 511.694,445.072 495.5,439.5C 482.432,434.134 470.099,427.467 458.5,419.5C 513.513,380.448 537.346,327.115 530,259.5C 522.355,214.081 500.188,177.747 463.5,150.5C 469.437,146.19 475.77,142.357 482.5,139C 538.975,115.298 592.975,119.965 644.5,153C 703.717,199.139 724.717,258.972 707.5,332.5 Z"/></g>
<g><path style="opacity:1" fill="#fe5e00" d="M 461.5,150.5 C 462.167,150.5 462.833,150.5 463.5,150.5C 500.188,177.747 522.355,214.081 530,259.5C 537.346,327.115 513.513,380.448 458.5,419.5C 458.167,419.5 457.833,419.5 457.5,419.5C 416.559,389.638 393.726,349.305 389,298.5C 386.527,236.07 410.694,186.736 461.5,150.5 Z"/></g>
</svg>
