<?xml version="1.0" encoding="UTF-8"?>
<!DOCTYPE svg PUBLIC "-//W3C//DTD SVG 1.1//EN" "http://www.w3.org/Graphics/SVG/1.1/DTD/svg11.dtd">
<svg xmlns="http://www.w3.org/2000/svg" version="1.1" width="1024px" height="768px" style="shape-rendering:geometricPrecision; text-rendering:geometricPrecision; image-rendering:optimizeQuality; fill-rule:evenodd; clip-rule:evenodd" xmlns:xlink="http://www.w3.org/1999/xlink">
<g><path style="opacity:1" fill="#3b4158" d="M 511.5,201.5 C 511.832,234.338 511.498,267.004 510.5,299.5C 499.389,296.597 488.222,293.931 477,291.5C 470.449,291.852 464.282,293.519 458.5,296.5C 458.516,269.861 458.516,243.528 458.5,217.5C 474.426,206.72 492.093,201.387 511.5,201.5 Z"/></g>
<g><path style="opacity:1" fill="#5d7c82" d="M 511.5,201.5 C 530.821,201.742 548.488,207.075 564.5,217.5C 564.484,243.528 564.484,269.861 564.5,296.5C 558.632,293.824 552.465,292.157 546,291.5C 534.218,293.487 522.718,296.487 511.5,300.5C 510.833,300.5 510.5,300.167 510.5,299.5C 511.498,267.004 511.832,234.338 511.5,201.5 Z"/></g>
<g><path style="opacity:1" fill="#462e48" d="M 458.5,217.5 C 458.516,243.528 458.516,269.861 458.5,296.5C 451.139,300.528 445.472,306.194 441.5,313.5C 435.853,305.193 429.853,297.193 423.5,289.5C 421.441,285.05 419.108,280.717 416.5,276.5C 422.765,251.249 436.765,231.582 458.5,217.5 Z"/></g>
<g><path style="opacity:1" fill="#3a4158" d="M 564.5,217.5 C 586.235,231.582 600.235,251.249 606.5,276.5C 603.912,280.674 601.579,285.007 599.5,289.5C 597.926,289.937 596.759,290.937 596,292.5C 591.638,299.914 586.804,306.914 581.5,313.5C 577.528,306.194 571.861,300.528 564.5,296.5C 564.484,269.861 564.484,243.528 564.5,217.5 Z"/></g>
<g><path style="opacity:1" fill="#0fa79d" d="M 375.5,277.5 C 388.99,276.504 402.656,276.171 416.5,276.5C 419.108,280.717 421.441,285.05 423.5,289.5C 421.441,294.01 419.774,298.677 418.5,303.5C 404.748,294.41 390.748,285.744 376.5,277.5C 376.167,277.5 375.833,277.5 375.5,277.5 Z"/></g>
<g><path style="opacity:1" fill="#11c8bc" d="M 606.5,276.5 C 620.01,276.171 633.344,276.504 646.5,277.5C 632.5,285.833 618.5,294.167 604.5,302.5C 603.03,298.088 601.363,293.755 599.5,289.5C 601.579,285.007 603.912,280.674 606.5,276.5 Z"/></g>
<g><path style="opacity:1" fill="#06827a" d="M 376.5,277.5 C 390.748,285.744 404.748,294.41 418.5,303.5C 413.216,322.226 413.55,340.892 419.5,359.5C 419.157,361.225 418.157,361.725 416.5,361C 397.95,349.429 386.116,332.929 381,311.5C 378.52,300.287 377.02,288.954 376.5,277.5 Z"/></g>
<g><path style="opacity:1" fill="#08988f" d="M 646.5,277.5 C 646.393,301.98 639.56,324.313 626,344.5C 619.636,352.579 611.803,358.579 602.5,362.5C 609.335,342.664 610.001,322.664 604.5,302.5C 618.5,294.167 632.5,285.833 646.5,277.5 Z"/></g>
<g><path style="opacity:1" fill="#135f5a" d="M 646.5,277.5 C 654.185,288.199 660.852,299.532 666.5,311.5C 661.058,336.715 650.058,359.048 633.5,378.5C 627.167,378.5 620.833,378.5 614.5,378.5C 608.5,378.5 602.5,378.5 596.5,378.5C 598.305,373.084 600.305,367.751 602.5,362.5C 611.803,358.579 619.636,352.579 626,344.5C 639.56,324.313 646.393,301.98 646.5,277.5 Z"/></g>
<g><path style="opacity:1" fill="#074a46" d="M 375.5,277.5 C 375.833,277.5 376.167,277.5 376.5,277.5C 377.02,288.954 378.52,300.287 381,311.5C 386.116,332.929 397.95,349.429 416.5,361C 418.157,361.725 419.157,361.225 419.5,359.5C 422.004,365.67 424.338,372.004 426.5,378.5C 414.167,378.5 401.833,378.5 389.5,378.5C 372.934,359.033 361.934,336.7 356.5,311.5C 356.577,309.701 357.077,308.034 358,306.5C 363.845,296.806 369.678,287.139 375.5,277.5 Z"/></g>
<g><path style="opacity:1" fill="#462e48" d="M 599.5,289.5 C 601.363,293.755 603.03,298.088 604.5,302.5C 610.001,322.664 609.335,342.664 602.5,362.5C 600.305,367.751 598.305,373.084 596.5,378.5C 592.697,386.1 588.364,393.433 583.5,400.5C 593.524,413.519 603.524,426.519 613.5,439.5C 614.492,469.426 614.825,499.426 614.5,529.5C 599.205,541.653 582.205,550.987 563.5,557.5C 563.832,524.329 563.498,491.329 562.5,458.5C 563.11,457.609 563.443,456.609 563.5,455.5C 564.167,455.5 564.5,455.167 564.5,454.5C 568.471,440.496 568.471,426.496 564.5,412.5C 564.5,396.833 564.5,381.167 564.5,365.5C 575.288,359.606 581.954,350.606 584.5,338.5C 585.833,333.833 585.833,329.167 584.5,324.5C 583.8,320.763 582.8,317.096 581.5,313.5C 586.804,306.914 591.638,299.914 596,292.5C 596.759,290.937 597.926,289.937 599.5,289.5 Z"/></g>
<g><path style="opacity:1" fill="#271431" d="M 423.5,289.5 C 429.853,297.193 435.853,305.193 441.5,313.5C 440.833,315.833 440.167,318.167 439.5,320.5C 439.167,321.833 438.833,323.167 438.5,324.5C 436.993,330.058 437.326,335.392 439.5,340.5C 441.722,351.937 448.055,360.27 458.5,365.5C 459.499,380.485 459.833,395.485 459.5,410.5C 455.649,421.821 454.482,433.488 456,445.5C 456.878,449.052 458.044,452.386 459.5,455.5C 459.5,455.833 459.5,456.167 459.5,456.5C 458.336,489.331 458.169,522.331 459,555.5C 460.067,556.191 461.234,556.691 462.5,557C 462.272,557.399 461.938,557.565 461.5,557.5C 441.937,551.554 424.27,542.221 408.5,529.5C 408.5,499.5 408.5,469.5 408.5,439.5C 419.16,426.831 429.493,413.831 439.5,400.5C 434.636,393.433 430.303,386.1 426.5,378.5C 424.338,372.004 422.004,365.67 419.5,359.5C 413.55,340.892 413.216,322.226 418.5,303.5C 419.774,298.677 421.441,294.01 423.5,289.5 Z"/></g>
<g><path style="opacity:1" fill="#08988f" d="M 510.5,299.5 C 510.5,300.167 510.833,300.5 511.5,300.5C 511.5,303.5 511.5,306.5 511.5,309.5C 511.5,309.833 511.5,310.167 511.5,310.5C 499.539,307.343 487.539,304.176 475.5,301C 467.698,299.38 460.698,301.047 454.5,306C 449.592,311.042 444.592,315.875 439.5,320.5C 440.167,318.167 440.833,315.833 441.5,313.5C 445.472,306.194 451.139,300.528 458.5,296.5C 464.282,293.519 470.449,291.852 477,291.5C 488.222,293.931 499.389,296.597 510.5,299.5 Z"/></g>
<g><path style="opacity:1" fill="#08968e" d="M 564.5,296.5 C 571.861,300.528 577.528,306.194 581.5,313.5C 582.8,317.096 583.8,320.763 584.5,324.5C 583.833,324.5 583.5,324.167 583.5,323.5C 578.179,312.68 569.845,305.18 558.5,301C 554.167,300.333 549.833,300.333 545.5,301C 534.217,304.154 522.884,306.987 511.5,309.5C 511.5,306.5 511.5,303.5 511.5,300.5C 522.718,296.487 534.218,293.487 546,291.5C 552.465,292.157 558.632,293.824 564.5,296.5 Z"/></g>
<g><path style="opacity:1" fill="#067b74" d="M 511.5,310.5 C 511.5,315.167 511.5,319.833 511.5,324.5C 496.71,319.688 481.877,315.021 467,310.5C 456.271,312.744 446.771,317.411 438.5,324.5C 438.833,323.167 439.167,321.833 439.5,320.5C 444.592,315.875 449.592,311.042 454.5,306C 460.698,301.047 467.698,299.38 475.5,301C 487.539,304.176 499.539,307.343 511.5,310.5 Z"/></g>
<g><path style="opacity:1" fill="#fcf8f6" d="M 583.5,323.5 C 578.593,319.791 573.26,316.624 567.5,314C 561.388,311.586 555.054,310.919 548.5,312C 536.081,316.352 523.747,320.852 511.5,325.5C 511.5,325.167 511.5,324.833 511.5,324.5C 511.5,319.833 511.5,315.167 511.5,310.5C 511.5,310.167 511.5,309.833 511.5,309.5C 522.884,306.987 534.217,304.154 545.5,301C 549.833,300.333 554.167,300.333 558.5,301C 569.845,305.18 578.179,312.68 583.5,323.5 Z"/></g>
<g><path style="opacity:1" fill="#074a46" d="M 511.5,324.5 C 511.5,324.833 511.5,325.167 511.5,325.5C 511.5,329.833 511.5,334.167 511.5,338.5C 505.167,338.5 498.833,338.5 492.5,338.5C 491.199,327.199 484.866,320.866 473.5,319.5C 462.134,320.866 455.801,327.199 454.5,338.5C 449.056,337.892 444.056,338.558 439.5,340.5C 437.326,335.392 436.993,330.058 438.5,324.5C 446.771,317.411 456.271,312.744 467,310.5C 481.877,315.021 496.71,319.688 511.5,324.5 Z"/></g>
<g><path style="opacity:1" fill="#135f5a" d="M 583.5,323.5 C 583.5,324.167 583.833,324.5 584.5,324.5C 585.833,329.167 585.833,333.833 584.5,338.5C 579.167,338.5 573.833,338.5 568.5,338.5C 567.227,327.227 560.894,320.894 549.5,319.5C 538.134,320.866 531.801,327.199 530.5,338.5C 524.167,338.5 517.833,338.5 511.5,338.5C 511.5,334.167 511.5,329.833 511.5,325.5C 523.747,320.852 536.081,316.352 548.5,312C 555.054,310.919 561.388,311.586 567.5,314C 573.26,316.624 578.593,319.791 583.5,323.5 Z"/></g>
<g><path style="opacity:1" fill="#faf8f6" d="M 492.5,338.5 C 492.5,338.833 492.5,339.167 492.5,339.5C 484.054,350.022 473.72,352.189 461.5,346C 458.588,343.985 456.255,341.485 454.5,338.5C 455.801,327.199 462.134,320.866 473.5,319.5C 484.866,320.866 491.199,327.199 492.5,338.5 Z"/></g>
<g><path style="opacity:1" fill="#faf8f6" d="M 568.5,338.5 C 560.058,349.69 549.391,352.19 536.5,346C 534.266,343.937 532.266,341.771 530.5,339.5C 530.5,339.167 530.5,338.833 530.5,338.5C 531.801,327.199 538.134,320.866 549.5,319.5C 560.894,320.894 567.227,327.227 568.5,338.5 Z"/></g>
<g><path style="opacity:1" fill="#0c072c" d="M 469.5,325.5 C 476.253,323.772 480.253,326.272 481.5,333C 480.933,337.734 478.266,340.234 473.5,340.5C 467.369,339.871 464.869,336.538 466,330.5C 466.997,328.677 468.164,327.01 469.5,325.5 Z"/></g>
<g><path style="opacity:1" fill="#0c072d" d="M 545.5,325.5 C 552.253,323.772 556.253,326.272 557.5,333C 556.933,337.734 554.266,340.234 549.5,340.5C 543.369,339.871 540.869,336.538 542,330.5C 542.997,328.677 544.164,327.01 545.5,325.5 Z"/></g>
<g><path style="opacity:1" fill="#06827a" d="M 454.5,338.5 C 457.658,355.413 467.325,360.913 483.5,355C 488.702,351.094 491.702,345.927 492.5,339.5C 492.5,339.167 492.5,338.833 492.5,338.5C 498.833,338.5 505.167,338.5 511.5,338.5C 511.5,343.167 511.5,347.833 511.5,352.5C 500.326,353.925 491.993,359.592 486.5,369.5C 477.653,371.177 468.986,370.51 460.5,367.5C 460.171,381.01 460.504,394.344 461.5,407.5C 461.068,408.71 460.401,409.71 459.5,410.5C 459.833,395.485 459.499,380.485 458.5,365.5C 448.055,360.27 441.722,351.937 439.5,340.5C 444.056,338.558 449.056,337.892 454.5,338.5 Z"/></g>
<g><path style="opacity:1" fill="#08988f" d="M 511.5,338.5 C 517.833,338.5 524.167,338.5 530.5,338.5C 530.5,338.833 530.5,339.167 530.5,339.5C 533.474,354.614 542.474,360.114 557.5,356C 564.594,352.39 568.26,346.557 568.5,338.5C 573.833,338.5 579.167,338.5 584.5,338.5C 581.954,350.606 575.288,359.606 564.5,365.5C 555.668,370.232 546.334,371.565 536.5,369.5C 531.12,359.448 522.787,353.781 511.5,352.5C 511.5,347.833 511.5,343.167 511.5,338.5 Z"/></g>
<g><path style="opacity:1" fill="#067b74" d="M 454.5,338.5 C 456.255,341.485 458.588,343.985 461.5,346C 473.72,352.189 484.054,350.022 492.5,339.5C 491.702,345.927 488.702,351.094 483.5,355C 467.325,360.913 457.658,355.413 454.5,338.5 Z"/></g>
<g><path style="opacity:1" fill="#08968e" d="M 568.5,338.5 C 568.26,346.557 564.594,352.39 557.5,356C 542.474,360.114 533.474,354.614 530.5,339.5C 532.266,341.771 534.266,343.937 536.5,346C 549.391,352.19 560.058,349.69 568.5,338.5 Z"/></g>
<g><path style="opacity:1" fill="#08968e" d="M 511.5,352.5 C 522.787,353.781 531.12,359.448 536.5,369.5C 540.761,375.693 544.761,382.026 548.5,388.5C 537.263,381.424 524.93,377.757 511.5,377.5C 511.5,369.167 511.5,360.833 511.5,352.5 Z"/></g>
<g><path style="opacity:1" fill="#08988f" d="M 511.5,352.5 C 511.5,360.833 511.5,369.167 511.5,377.5C 497.111,377.074 484.444,381.407 473.5,390.5C 477.41,383.252 481.744,376.252 486.5,369.5C 491.993,359.592 500.326,353.925 511.5,352.5 Z"/></g>
<g><path style="opacity:1" fill="#074a46" d="M 486.5,369.5 C 481.744,376.252 477.41,383.252 473.5,390.5C 472.833,390.5 472.5,390.833 472.5,391.5C 468.352,396.448 464.686,401.782 461.5,407.5C 460.504,394.344 460.171,381.01 460.5,367.5C 468.986,370.51 477.653,371.177 486.5,369.5 Z"/></g>
<g><path style="opacity:1" fill="#085854" d="M 564.5,365.5 C 564.5,381.167 564.5,396.833 564.5,412.5C 560.578,404.984 555.911,397.984 550.5,391.5C 549.833,390.5 549.167,389.5 548.5,388.5C 544.761,382.026 540.761,375.693 536.5,369.5C 546.334,371.565 555.668,370.232 564.5,365.5 Z"/></g>
<g><path style="opacity:1" fill="#08968e" d="M 511.5,377.5 C 511.5,385.167 511.5,392.833 511.5,400.5C 497.722,400.377 484.722,397.377 472.5,391.5C 472.5,390.833 472.833,390.5 473.5,390.5C 484.444,381.407 497.111,377.074 511.5,377.5 Z"/></g>
<g><path style="opacity:1" fill="#f9f9f8" d="M 511.5,377.5 C 524.93,377.757 537.263,381.424 548.5,388.5C 549.167,389.5 549.833,390.5 550.5,391.5C 538.163,396.832 525.163,399.832 511.5,400.5C 511.5,392.833 511.5,385.167 511.5,377.5 Z"/></g>
<g><path style="opacity:1" fill="#462e48" d="M 388.5,379.5 C 395.167,379.5 401.833,379.5 408.5,379.5C 408.5,399.5 408.5,419.5 408.5,439.5C 408.5,469.5 408.5,499.5 408.5,529.5C 377.168,504.626 357.501,472.459 349.5,433C 349.384,430.456 350.217,428.289 352,426.5C 364.412,410.933 376.579,395.267 388.5,379.5 Z"/></g>
<g><path style="opacity:1" fill="#3a4158" d="M 388.5,379.5 C 388.5,378.833 388.833,378.5 389.5,378.5C 401.833,378.5 414.167,378.5 426.5,378.5C 430.303,386.1 434.636,393.433 439.5,400.5C 429.493,413.831 419.16,426.831 408.5,439.5C 408.5,419.5 408.5,399.5 408.5,379.5C 401.833,379.5 395.167,379.5 388.5,379.5 Z"/></g>
<g><path style="opacity:1" fill="#3a4158" d="M 614.5,378.5 C 620.833,378.5 627.167,378.5 633.5,378.5C 646.222,394.25 658.722,410.25 671,426.5C 672.783,428.289 673.616,430.456 673.5,433C 665.499,472.459 645.832,504.626 614.5,529.5C 614.825,499.426 614.492,469.426 613.5,439.5C 614.497,419.34 614.83,399.007 614.5,378.5 Z"/></g>
<g><path style="opacity:1" fill="#5d7c82" d="M 596.5,378.5 C 602.5,378.5 608.5,378.5 614.5,378.5C 614.83,399.007 614.497,419.34 613.5,439.5C 603.524,426.519 593.524,413.519 583.5,400.5C 588.364,393.433 592.697,386.1 596.5,378.5 Z"/></g>
<g><path style="opacity:1" fill="#0e092e" d="M 495.5,384.5 C 500.948,383.975 505.115,385.975 508,390.5C 508.86,393.478 507.693,394.812 504.5,394.5C 499.712,393.718 496.379,391.051 494.5,386.5C 494.863,385.817 495.196,385.15 495.5,384.5 Z"/></g>
<g><path style="opacity:1" fill="#0e0b2c" d="M 520.5,384.5 C 522.857,384.337 525.19,384.503 527.5,385C 527.757,389.147 525.757,392.147 521.5,394C 515.399,395.903 513.566,394.069 516,388.5C 517.667,387.267 519.167,385.933 520.5,384.5 Z"/></g>
<g><path style="opacity:1" fill="#08988f" d="M 472.5,391.5 C 484.722,397.377 497.722,400.377 511.5,400.5C 511.5,411.5 511.5,422.5 511.5,433.5C 500.933,436.475 490.267,439.142 479.5,441.5C 478.527,441.987 477.527,442.487 476.5,443C 488.162,443.5 499.829,443.667 511.5,443.5C 511.5,447.167 511.5,450.833 511.5,454.5C 529.167,454.5 546.833,454.5 564.5,454.5C 564.5,455.167 564.167,455.5 563.5,455.5C 546.167,455.5 528.833,455.5 511.5,455.5C 494.167,455.5 476.833,455.5 459.5,455.5C 458.044,452.386 456.878,449.052 456,445.5C 454.482,433.488 455.649,421.821 459.5,410.5C 460.401,409.71 461.068,408.71 461.5,407.5C 464.686,401.782 468.352,396.448 472.5,391.5 Z"/></g>
<g><path style="opacity:1" fill="#08aba1" d="M 550.5,391.5 C 555.911,397.984 560.578,404.984 564.5,412.5C 568.471,426.496 568.471,440.496 564.5,454.5C 546.833,454.5 529.167,454.5 511.5,454.5C 511.5,450.833 511.5,447.167 511.5,443.5C 522.838,443.667 534.172,443.5 545.5,443C 544.956,442.283 544.289,441.783 543.5,441.5C 532.727,439.213 522.061,436.546 511.5,433.5C 511.5,422.5 511.5,411.5 511.5,400.5C 525.163,399.832 538.163,396.832 550.5,391.5 Z"/></g>
<g><path style="opacity:1" fill="#0e072e" d="M 511.5,433.5 C 522.061,436.546 532.727,439.213 543.5,441.5C 522.167,442.833 500.833,442.833 479.5,441.5C 490.267,439.142 500.933,436.475 511.5,433.5 Z"/></g>
<g><path style="opacity:1" fill="#8d5d30" d="M 479.5,441.5 C 500.833,442.833 522.167,442.833 543.5,441.5C 544.289,441.783 544.956,442.283 545.5,443C 534.172,443.5 522.838,443.667 511.5,443.5C 499.829,443.667 488.162,443.5 476.5,443C 477.527,442.487 478.527,441.987 479.5,441.5 Z"/></g>
<g><path style="opacity:1" fill="#074a46" d="M 459.5,455.5 C 476.833,455.5 494.167,455.5 511.5,455.5C 511.5,467.167 511.5,478.833 511.5,490.5C 487.208,489.694 469.874,478.361 459.5,456.5C 459.5,456.167 459.5,455.833 459.5,455.5 Z"/></g>
<g><path style="opacity:1" fill="#135f5a" d="M 511.5,455.5 C 528.833,455.5 546.167,455.5 563.5,455.5C 563.443,456.609 563.11,457.609 562.5,458.5C 551.786,479.031 534.786,489.698 511.5,490.5C 511.5,478.833 511.5,467.167 511.5,455.5 Z"/></g>
<g><path style="opacity:1" fill="#09032e" d="M 459.5,456.5 C 469.874,478.361 487.208,489.694 511.5,490.5C 511.5,515.167 511.5,539.833 511.5,564.5C 504.684,563.315 498.017,563.315 491.5,564.5C 481.036,563.677 471.036,561.344 461.5,557.5C 461.938,557.565 462.272,557.399 462.5,557C 461.234,556.691 460.067,556.191 459,555.5C 458.169,522.331 458.336,489.331 459.5,456.5 Z"/></g>
<g><path style="opacity:1" fill="#261330" d="M 562.5,458.5 C 563.498,491.329 563.832,524.329 563.5,557.5C 539.987,564.718 515.987,567.051 491.5,564.5C 498.017,563.315 504.684,563.315 511.5,564.5C 511.5,539.833 511.5,515.167 511.5,490.5C 534.786,489.698 551.786,479.031 562.5,458.5 Z"/></g>
</svg>
