<?xml version="1.0" encoding="UTF-8"?>
<!DOCTYPE svg PUBLIC "-//W3C//DTD SVG 1.1//EN" "http://www.w3.org/Graphics/SVG/1.1/DTD/svg11.dtd">
<svg xmlns="http://www.w3.org/2000/svg" version="1.1" width="3840px" height="2160px" style="shape-rendering:geometricPrecision; text-rendering:geometricPrecision; image-rendering:optimizeQuality; fill-rule:evenodd; clip-rule:evenodd" xmlns:xlink="http://www.w3.org/1999/xlink">
<g><path style="opacity:1" fill="#ffffff" d="M 2644.5,1063.5 C 2644.97,1064.91 2645.97,1065.57 2647.5,1065.5C 2723.17,1137 2753.67,1224.67 2739,1328.5C 2723.99,1434.75 2673.16,1518.91 2586.5,1581C 2526.3,1622.09 2460.3,1650.09 2388.5,1665C 2295.83,1683.77 2202.5,1687.77 2108.5,1677C 2039.24,1670.08 1971.58,1655.75 1905.5,1634C 1893.79,1629.98 1882.46,1625.14 1871.5,1619.5C 1885.74,1531.39 1900.41,1443.39 1915.5,1355.5C 1968.72,1382.41 2024.06,1403.91 2081.5,1420C 2151.83,1436.33 2222.83,1440.33 2294.5,1432C 2331.71,1426.39 2364.71,1411.72 2393.5,1388C 2421.2,1360.35 2429.04,1327.85 2417,1290.5C 2409.23,1274.06 2398.4,1259.89 2384.5,1248C 2359.54,1228.18 2332.87,1210.84 2304.5,1196C 2253.91,1172.38 2205.24,1145.71 2158.5,1116C 2120.9,1090.92 2087.4,1061.09 2058,1026.5C 2005.81,959.715 1987.47,884.382 2003,800.5C 2017.41,720.504 2054.57,653.337 2114.5,599C 2169.59,550.942 2232.59,516.609 2303.5,496C 2406.6,466.954 2511.27,459.621 2617.5,474C 2675.82,481.33 2732.16,495.997 2786.5,518C 2772.43,602.818 2758.26,687.651 2744,772.5C 2640.68,720.085 2531.84,703.252 2417.5,722C 2384.23,728.543 2356.07,744.043 2333,768.5C 2309.06,801.049 2309.73,833.049 2335,864.5C 2348.79,878.791 2363.95,891.291 2380.5,902C 2427.23,929.703 2475.23,955.369 2524.5,979C 2557.03,996.757 2588.03,1016.76 2617.5,1039C 2626.99,1046.66 2635.99,1054.83 2644.5,1063.5 Z"/></g>
<g><path style="opacity:1" fill="#ffffff" d="M 560.5,489.5 C 393.325,489.507 225.992,489.507 58.5,489.5C 58.7373,490.791 58.404,491.791 57.5,492.5C 57.5,491.167 57.5,489.833 57.5,488.5C 225.334,488.167 393.001,488.5 560.5,489.5 Z"/></g>
<g><path style="opacity:1" fill="#ffffff" d="M 1444.5,490.5 C 1337.26,489.168 1229.93,489.168 1122.5,490.5C 1176,489.167 1229.83,488.5 1284,488.5C 1337.83,488.833 1391.67,489.167 1445.5,489.5C 1445.38,490.107 1445.04,490.44 1444.5,490.5 Z"/></g>
<g><path style="opacity:1" fill="#ffffff" d="M 1871.5,494.5 C 1871.5,492.833 1871.5,491.167 1871.5,489.5C 1770.1,489.169 1668.76,489.502 1567.5,490.5C 1668.83,488.502 1770.49,487.836 1872.5,488.5C 1872.79,490.735 1872.46,492.735 1871.5,494.5 Z"/></g>
<g><path style="opacity:1" fill="#ffffff" d="M 3322.5,488.5 C 3404.17,487.836 3485.51,488.503 3566.5,490.5C 3485.07,489.836 3403.74,489.169 3322.5,488.5 Z"/></g>
<g><path style="opacity:1" fill="#ffffff" d="M 560.5,489.5 C 587.202,490.258 612.202,497.091 635.5,510C 642.119,514.133 648.119,518.966 653.5,524.5C 654.419,527.089 656.086,529.089 658.5,530.5C 668.162,540.463 675.329,552.129 680,565.5C 682.202,571.772 684.202,578.105 686,584.5C 721.695,765.142 757.195,945.809 792.5,1126.5C 732.112,970.567 637.112,839.733 507.5,734C 465.128,700.127 420.462,669.627 373.5,642.5C 272.984,584.587 166.317,541.587 53.5,513.5C 54.0685,506.326 55.4018,499.326 57.5,492.5C 58.404,491.791 58.7373,490.791 58.5,489.5C 225.992,489.507 393.325,489.507 560.5,489.5 Z"/></g>
<g><path style="opacity:1" fill="#ffffff" d="M 1444.5,490.5 C 1286.02,881.451 1127.02,1272.12 967.5,1662.5C 859.904,1663.5 752.237,1663.83 644.5,1663.5C 553.721,1323.39 463.387,983.055 373.5,642.5C 420.462,669.627 465.128,700.127 507.5,734C 637.112,839.733 732.112,970.567 792.5,1126.5C 803.517,1180.09 814.351,1233.75 825,1287.5C 825.333,1287.17 825.667,1286.83 826,1286.5C 924.568,1020.95 1023.4,755.619 1122.5,490.5C 1229.93,489.168 1337.26,489.168 1444.5,490.5 Z"/></g>
<g><path style="opacity:1" fill="#ffffff" d="M 1871.5,494.5 C 1808.82,884.886 1745.82,1275.22 1682.5,1665.5C 1580.83,1665.5 1479.17,1665.5 1377.5,1665.5C 1440.09,1273.68 1503.43,882.015 1567.5,490.5C 1668.76,489.502 1770.1,489.169 1871.5,489.5C 1871.5,491.167 1871.5,492.833 1871.5,494.5 Z"/></g>
<g><path style="opacity:1" fill="#ffffff" d="M 3322.5,488.5 C 3403.74,489.169 3485.07,489.836 3566.5,490.5C 3648.8,882.013 3730.47,1273.68 3811.5,1665.5C 3717.5,1665.67 3623.5,1665.5 3529.5,1665C 3517.06,1606.61 3505.06,1548.11 3493.5,1489.5C 3363.16,1489.17 3232.83,1489.5 3102.5,1490.5C 3081.2,1548.76 3060.2,1607.09 3039.5,1665.5C 2932.5,1665.83 2825.5,1665.5 2718.5,1664.5C 2869,1305.5 3019.5,946.5 3170,587.5C 3192.62,529.096 3235.12,496.596 3297.5,490C 3305.81,489.026 3314.14,488.526 3322.5,488.5 Z M 3350.5,810.5 C 3351.17,810.5 3351.83,810.5 3352.5,810.5C 3382.24,956.221 3412.24,1101.89 3442.5,1247.5C 3358.49,1248.16 3274.83,1247.5 3191.5,1245.5C 3245.86,1101.1 3298.86,956.1 3350.5,810.5 Z"/></g>
<g><path style="opacity:1" fill="#ffffff" d="M 653.5,524.5 C 655.914,525.911 657.581,527.911 658.5,530.5C 656.086,529.089 654.419,527.089 653.5,524.5 Z"/></g>
<g><path style="opacity:1" fill="#ffffff" d="M 3352.5,810.5 C 3351.83,810.5 3351.17,810.5 3350.5,810.5C 3351.6,806.711 3352.26,806.711 3352.5,810.5 Z"/></g>
<g><path style="opacity:1" fill="#ffffff" d="M 2644.5,1063.5 C 2646.03,1063.43 2647.03,1064.09 2647.5,1065.5C 2645.97,1065.57 2644.97,1064.91 2644.5,1063.5 Z"/></g>
<g><path style="opacity:1" fill="#ffffff" d="M 3191.5,1245.5 C 3274.83,1247.5 3358.49,1248.16 3442.5,1247.5C 3359.24,1248.5 3275.24,1248.83 3190.5,1248.5C 3190.26,1247.21 3190.6,1246.21 3191.5,1245.5 Z"/></g>
<g><path style="opacity:1" fill="#ffffff" d="M 967.5,1662.5 C 914.004,1663.83 860.171,1664.5 806,1664.5C 751.999,1664.5 698.166,1664.17 644.5,1663.5C 752.237,1663.83 859.904,1663.5 967.5,1662.5 Z"/></g>
</svg>
